G04 #@! TF.GenerationSoftware,KiCad,Pcbnew,(5.1.2)-2*
G04 #@! TF.CreationDate,2019-07-16T17:36:30-04:00*
G04 #@! TF.ProjectId,8 bit serial to parallel,38206269-7420-4736-9572-69616c20746f,rev?*
G04 #@! TF.SameCoordinates,Original*
G04 #@! TF.FileFunction,Soldermask,Top*
G04 #@! TF.FilePolarity,Negative*
%FSLAX46Y46*%
G04 Gerber Fmt 4.6, Leading zero omitted, Abs format (unit mm)*
G04 Created by KiCad (PCBNEW (5.1.2)-2) date 2019-07-16 17:36:30*
%MOMM*%
%LPD*%
G04 APERTURE LIST*
%ADD10C,0.100000*%
G04 APERTURE END LIST*
D10*
G36*
X99508903Y-110773213D02*
G01*
X99731177Y-110817426D01*
X100149932Y-110990880D01*
X100526802Y-111242696D01*
X100847304Y-111563198D01*
X101099120Y-111940068D01*
X101272574Y-112358823D01*
X101361000Y-112803371D01*
X101361000Y-113256629D01*
X101272574Y-113701177D01*
X101099120Y-114119932D01*
X100847304Y-114496802D01*
X100526802Y-114817304D01*
X100149932Y-115069120D01*
X99731177Y-115242574D01*
X99508903Y-115286787D01*
X99286630Y-115331000D01*
X98833370Y-115331000D01*
X98611097Y-115286787D01*
X98388823Y-115242574D01*
X97970068Y-115069120D01*
X97593198Y-114817304D01*
X97272696Y-114496802D01*
X97020880Y-114119932D01*
X96847426Y-113701177D01*
X96759000Y-113256629D01*
X96759000Y-112803371D01*
X96847426Y-112358823D01*
X97020880Y-111940068D01*
X97272696Y-111563198D01*
X97593198Y-111242696D01*
X97970068Y-110990880D01*
X98388823Y-110817426D01*
X98611097Y-110773213D01*
X98833370Y-110729000D01*
X99286630Y-110729000D01*
X99508903Y-110773213D01*
X99508903Y-110773213D01*
G37*
G36*
X46168903Y-110773213D02*
G01*
X46391177Y-110817426D01*
X46809932Y-110990880D01*
X47186802Y-111242696D01*
X47507304Y-111563198D01*
X47759120Y-111940068D01*
X47932574Y-112358823D01*
X48021000Y-112803371D01*
X48021000Y-113256629D01*
X47932574Y-113701177D01*
X47759120Y-114119932D01*
X47507304Y-114496802D01*
X47186802Y-114817304D01*
X46809932Y-115069120D01*
X46391177Y-115242574D01*
X46168903Y-115286787D01*
X45946630Y-115331000D01*
X45493370Y-115331000D01*
X45271097Y-115286787D01*
X45048823Y-115242574D01*
X44630068Y-115069120D01*
X44253198Y-114817304D01*
X43932696Y-114496802D01*
X43680880Y-114119932D01*
X43507426Y-113701177D01*
X43419000Y-113256629D01*
X43419000Y-112803371D01*
X43507426Y-112358823D01*
X43680880Y-111940068D01*
X43932696Y-111563198D01*
X44253198Y-111242696D01*
X44630068Y-110990880D01*
X45048823Y-110817426D01*
X45271097Y-110773213D01*
X45493370Y-110729000D01*
X45946630Y-110729000D01*
X46168903Y-110773213D01*
X46168903Y-110773213D01*
G37*
G36*
X53413665Y-105932622D02*
G01*
X53487222Y-105939867D01*
X53628786Y-105982810D01*
X53759252Y-106052546D01*
X53789040Y-106076992D01*
X53873607Y-106146393D01*
X53943008Y-106230960D01*
X53967454Y-106260748D01*
X54037190Y-106391214D01*
X54080133Y-106532778D01*
X54094633Y-106680000D01*
X54080133Y-106827222D01*
X54037190Y-106968786D01*
X53967454Y-107099252D01*
X53943008Y-107129040D01*
X53873607Y-107213607D01*
X53789040Y-107283008D01*
X53759252Y-107307454D01*
X53628786Y-107377190D01*
X53487222Y-107420133D01*
X53413665Y-107427378D01*
X53376888Y-107431000D01*
X53303112Y-107431000D01*
X53266335Y-107427378D01*
X53192778Y-107420133D01*
X53051214Y-107377190D01*
X52920748Y-107307454D01*
X52890960Y-107283008D01*
X52806393Y-107213607D01*
X52736992Y-107129040D01*
X52712546Y-107099252D01*
X52642810Y-106968786D01*
X52599867Y-106827222D01*
X52585367Y-106680000D01*
X52599867Y-106532778D01*
X52642810Y-106391214D01*
X52712546Y-106260748D01*
X52736992Y-106230960D01*
X52806393Y-106146393D01*
X52890960Y-106076992D01*
X52920748Y-106052546D01*
X53051214Y-105982810D01*
X53192778Y-105939867D01*
X53266335Y-105932622D01*
X53303112Y-105929000D01*
X53376888Y-105929000D01*
X53413665Y-105932622D01*
X53413665Y-105932622D01*
G37*
G36*
X94053665Y-105932622D02*
G01*
X94127222Y-105939867D01*
X94268786Y-105982810D01*
X94399252Y-106052546D01*
X94429040Y-106076992D01*
X94513607Y-106146393D01*
X94583008Y-106230960D01*
X94607454Y-106260748D01*
X94677190Y-106391214D01*
X94720133Y-106532778D01*
X94734633Y-106680000D01*
X94720133Y-106827222D01*
X94677190Y-106968786D01*
X94607454Y-107099252D01*
X94583008Y-107129040D01*
X94513607Y-107213607D01*
X94429040Y-107283008D01*
X94399252Y-107307454D01*
X94268786Y-107377190D01*
X94127222Y-107420133D01*
X94053665Y-107427378D01*
X94016888Y-107431000D01*
X93943112Y-107431000D01*
X93906335Y-107427378D01*
X93832778Y-107420133D01*
X93691214Y-107377190D01*
X93560748Y-107307454D01*
X93530960Y-107283008D01*
X93446393Y-107213607D01*
X93376992Y-107129040D01*
X93352546Y-107099252D01*
X93282810Y-106968786D01*
X93239867Y-106827222D01*
X93225367Y-106680000D01*
X93239867Y-106532778D01*
X93282810Y-106391214D01*
X93352546Y-106260748D01*
X93376992Y-106230960D01*
X93446393Y-106146393D01*
X93530960Y-106076992D01*
X93560748Y-106052546D01*
X93691214Y-105982810D01*
X93832778Y-105939867D01*
X93906335Y-105932622D01*
X93943112Y-105929000D01*
X94016888Y-105929000D01*
X94053665Y-105932622D01*
X94053665Y-105932622D01*
G37*
G36*
X84065239Y-104177101D02*
G01*
X84301053Y-104248634D01*
X84518381Y-104364799D01*
X84708871Y-104521129D01*
X84865201Y-104711619D01*
X84981366Y-104928947D01*
X85052899Y-105164761D01*
X85077053Y-105410000D01*
X85052899Y-105655239D01*
X84981366Y-105891053D01*
X84865201Y-106108381D01*
X84708871Y-106298871D01*
X84518381Y-106455201D01*
X84301053Y-106571366D01*
X84065239Y-106642899D01*
X83881457Y-106661000D01*
X83758543Y-106661000D01*
X83574761Y-106642899D01*
X83338947Y-106571366D01*
X83121619Y-106455201D01*
X82931129Y-106298871D01*
X82774799Y-106108381D01*
X82658634Y-105891053D01*
X82587101Y-105655239D01*
X82562947Y-105410000D01*
X82587101Y-105164761D01*
X82658634Y-104928947D01*
X82774799Y-104711619D01*
X82931129Y-104521129D01*
X83121619Y-104364799D01*
X83338947Y-104248634D01*
X83574761Y-104177101D01*
X83758543Y-104159000D01*
X83881457Y-104159000D01*
X84065239Y-104177101D01*
X84065239Y-104177101D01*
G37*
G36*
X63745239Y-104177101D02*
G01*
X63981053Y-104248634D01*
X64198381Y-104364799D01*
X64388871Y-104521129D01*
X64545201Y-104711619D01*
X64661366Y-104928947D01*
X64732899Y-105164761D01*
X64757053Y-105410000D01*
X64732899Y-105655239D01*
X64661366Y-105891053D01*
X64545201Y-106108381D01*
X64388871Y-106298871D01*
X64198381Y-106455201D01*
X63981053Y-106571366D01*
X63745239Y-106642899D01*
X63561457Y-106661000D01*
X63438543Y-106661000D01*
X63254761Y-106642899D01*
X63018947Y-106571366D01*
X62801619Y-106455201D01*
X62611129Y-106298871D01*
X62454799Y-106108381D01*
X62338634Y-105891053D01*
X62267101Y-105655239D01*
X62242947Y-105410000D01*
X62267101Y-105164761D01*
X62338634Y-104928947D01*
X62454799Y-104711619D01*
X62611129Y-104521129D01*
X62801619Y-104364799D01*
X63018947Y-104248634D01*
X63254761Y-104177101D01*
X63438543Y-104159000D01*
X63561457Y-104159000D01*
X63745239Y-104177101D01*
X63745239Y-104177101D01*
G37*
G36*
X91221000Y-106413500D02*
G01*
X89119000Y-106413500D01*
X89119000Y-104406500D01*
X91221000Y-104406500D01*
X91221000Y-106413500D01*
X91221000Y-106413500D01*
G37*
G36*
X59471000Y-106413500D02*
G01*
X57369000Y-106413500D01*
X57369000Y-104406500D01*
X59471000Y-104406500D01*
X59471000Y-106413500D01*
X59471000Y-106413500D01*
G37*
G36*
X78065170Y-99877879D02*
G01*
X78359868Y-99936498D01*
X78915067Y-100166469D01*
X79159808Y-100330000D01*
X79414733Y-100500335D01*
X79839665Y-100925267D01*
X79918341Y-101043015D01*
X80173531Y-101424933D01*
X80403502Y-101980132D01*
X80520740Y-102569528D01*
X80520740Y-103170472D01*
X80403502Y-103759868D01*
X80173531Y-104315067D01*
X79982565Y-104600867D01*
X79839665Y-104814733D01*
X79414733Y-105239665D01*
X79200867Y-105382565D01*
X78915067Y-105573531D01*
X78359868Y-105803502D01*
X78065170Y-105862121D01*
X77770473Y-105920740D01*
X77169527Y-105920740D01*
X76874830Y-105862121D01*
X76580132Y-105803502D01*
X76024933Y-105573531D01*
X75739133Y-105382565D01*
X75525267Y-105239665D01*
X75100335Y-104814733D01*
X74957435Y-104600867D01*
X74766469Y-104315067D01*
X74536498Y-103759868D01*
X74419260Y-103170472D01*
X74419260Y-102569528D01*
X74536498Y-101980132D01*
X74766469Y-101424933D01*
X75021659Y-101043015D01*
X75100335Y-100925267D01*
X75525267Y-100500335D01*
X75780192Y-100330000D01*
X76024933Y-100166469D01*
X76580132Y-99936498D01*
X76874830Y-99877879D01*
X77169527Y-99819260D01*
X77770473Y-99819260D01*
X78065170Y-99877879D01*
X78065170Y-99877879D01*
G37*
G36*
X70445170Y-99877879D02*
G01*
X70739868Y-99936498D01*
X71295067Y-100166469D01*
X71539808Y-100330000D01*
X71794733Y-100500335D01*
X72219665Y-100925267D01*
X72298341Y-101043015D01*
X72553531Y-101424933D01*
X72783502Y-101980132D01*
X72900740Y-102569528D01*
X72900740Y-103170472D01*
X72783502Y-103759868D01*
X72553531Y-104315067D01*
X72362565Y-104600867D01*
X72219665Y-104814733D01*
X71794733Y-105239665D01*
X71580867Y-105382565D01*
X71295067Y-105573531D01*
X70739868Y-105803502D01*
X70445170Y-105862121D01*
X70150473Y-105920740D01*
X69549527Y-105920740D01*
X69254830Y-105862121D01*
X68960132Y-105803502D01*
X68404933Y-105573531D01*
X68119133Y-105382565D01*
X67905267Y-105239665D01*
X67480335Y-104814733D01*
X67337435Y-104600867D01*
X67146469Y-104315067D01*
X66916498Y-103759868D01*
X66799260Y-103170472D01*
X66799260Y-102569528D01*
X66916498Y-101980132D01*
X67146469Y-101424933D01*
X67401659Y-101043015D01*
X67480335Y-100925267D01*
X67905267Y-100500335D01*
X68160192Y-100330000D01*
X68404933Y-100166469D01*
X68960132Y-99936498D01*
X69254830Y-99877879D01*
X69549527Y-99819260D01*
X70150473Y-99819260D01*
X70445170Y-99877879D01*
X70445170Y-99877879D01*
G37*
G36*
X58565936Y-101871340D02*
G01*
X58664220Y-101881020D01*
X58853381Y-101938401D01*
X59027712Y-102031583D01*
X59180515Y-102156985D01*
X59305917Y-102309788D01*
X59399099Y-102484119D01*
X59456480Y-102673280D01*
X59475855Y-102870000D01*
X59456480Y-103066720D01*
X59399099Y-103255881D01*
X59305917Y-103430212D01*
X59180515Y-103583015D01*
X59027712Y-103708417D01*
X58853381Y-103801599D01*
X58664220Y-103858980D01*
X58565936Y-103868660D01*
X58516795Y-103873500D01*
X58323205Y-103873500D01*
X58274064Y-103868660D01*
X58175780Y-103858980D01*
X57986619Y-103801599D01*
X57812288Y-103708417D01*
X57659485Y-103583015D01*
X57534083Y-103430212D01*
X57440901Y-103255881D01*
X57383520Y-103066720D01*
X57364145Y-102870000D01*
X57383520Y-102673280D01*
X57440901Y-102484119D01*
X57534083Y-102309788D01*
X57659485Y-102156985D01*
X57812288Y-102031583D01*
X57986619Y-101938401D01*
X58175780Y-101881020D01*
X58274064Y-101871340D01*
X58323205Y-101866500D01*
X58516795Y-101866500D01*
X58565936Y-101871340D01*
X58565936Y-101871340D01*
G37*
G36*
X90315936Y-101871340D02*
G01*
X90414220Y-101881020D01*
X90603381Y-101938401D01*
X90777712Y-102031583D01*
X90930515Y-102156985D01*
X91055917Y-102309788D01*
X91149099Y-102484119D01*
X91206480Y-102673280D01*
X91225855Y-102870000D01*
X91206480Y-103066720D01*
X91149099Y-103255881D01*
X91055917Y-103430212D01*
X90930515Y-103583015D01*
X90777712Y-103708417D01*
X90603381Y-103801599D01*
X90414220Y-103858980D01*
X90315936Y-103868660D01*
X90266795Y-103873500D01*
X90073205Y-103873500D01*
X90024064Y-103868660D01*
X89925780Y-103858980D01*
X89736619Y-103801599D01*
X89562288Y-103708417D01*
X89409485Y-103583015D01*
X89284083Y-103430212D01*
X89190901Y-103255881D01*
X89133520Y-103066720D01*
X89114145Y-102870000D01*
X89133520Y-102673280D01*
X89190901Y-102484119D01*
X89284083Y-102309788D01*
X89409485Y-102156985D01*
X89562288Y-102031583D01*
X89736619Y-101938401D01*
X89925780Y-101881020D01*
X90024064Y-101871340D01*
X90073205Y-101866500D01*
X90266795Y-101866500D01*
X90315936Y-101871340D01*
X90315936Y-101871340D01*
G37*
G36*
X64751000Y-102851000D02*
G01*
X62249000Y-102851000D01*
X62249000Y-100349000D01*
X64751000Y-100349000D01*
X64751000Y-102851000D01*
X64751000Y-102851000D01*
G37*
G36*
X85071000Y-102851000D02*
G01*
X82569000Y-102851000D01*
X82569000Y-100349000D01*
X85071000Y-100349000D01*
X85071000Y-102851000D01*
X85071000Y-102851000D01*
G37*
G36*
X58565936Y-99331340D02*
G01*
X58664220Y-99341020D01*
X58853381Y-99398401D01*
X59027712Y-99491583D01*
X59180515Y-99616985D01*
X59305917Y-99769788D01*
X59312519Y-99782140D01*
X59395026Y-99936498D01*
X59399099Y-99944119D01*
X59456480Y-100133280D01*
X59475855Y-100330000D01*
X59456480Y-100526720D01*
X59399099Y-100715881D01*
X59305917Y-100890212D01*
X59180515Y-101043015D01*
X59027712Y-101168417D01*
X58853381Y-101261599D01*
X58664220Y-101318980D01*
X58565936Y-101328660D01*
X58516795Y-101333500D01*
X58323205Y-101333500D01*
X58274064Y-101328660D01*
X58175780Y-101318980D01*
X57986619Y-101261599D01*
X57812288Y-101168417D01*
X57659485Y-101043015D01*
X57534083Y-100890212D01*
X57440901Y-100715881D01*
X57383520Y-100526720D01*
X57364145Y-100330000D01*
X57383520Y-100133280D01*
X57440901Y-99944119D01*
X57444975Y-99936498D01*
X57527481Y-99782140D01*
X57534083Y-99769788D01*
X57659485Y-99616985D01*
X57812288Y-99491583D01*
X57986619Y-99398401D01*
X58175780Y-99341020D01*
X58274064Y-99331340D01*
X58323205Y-99326500D01*
X58516795Y-99326500D01*
X58565936Y-99331340D01*
X58565936Y-99331340D01*
G37*
G36*
X90315936Y-99331340D02*
G01*
X90414220Y-99341020D01*
X90603381Y-99398401D01*
X90777712Y-99491583D01*
X90930515Y-99616985D01*
X91055917Y-99769788D01*
X91062519Y-99782140D01*
X91145026Y-99936498D01*
X91149099Y-99944119D01*
X91206480Y-100133280D01*
X91225855Y-100330000D01*
X91206480Y-100526720D01*
X91149099Y-100715881D01*
X91055917Y-100890212D01*
X90930515Y-101043015D01*
X90777712Y-101168417D01*
X90603381Y-101261599D01*
X90414220Y-101318980D01*
X90315936Y-101328660D01*
X90266795Y-101333500D01*
X90073205Y-101333500D01*
X90024064Y-101328660D01*
X89925780Y-101318980D01*
X89736619Y-101261599D01*
X89562288Y-101168417D01*
X89409485Y-101043015D01*
X89284083Y-100890212D01*
X89190901Y-100715881D01*
X89133520Y-100526720D01*
X89114145Y-100330000D01*
X89133520Y-100133280D01*
X89190901Y-99944119D01*
X89194975Y-99936498D01*
X89277481Y-99782140D01*
X89284083Y-99769788D01*
X89409485Y-99616985D01*
X89562288Y-99491583D01*
X89736619Y-99398401D01*
X89925780Y-99341020D01*
X90024064Y-99331340D01*
X90073205Y-99326500D01*
X90266795Y-99326500D01*
X90315936Y-99331340D01*
X90315936Y-99331340D01*
G37*
G36*
X53559059Y-98337860D02*
G01*
X53695732Y-98394472D01*
X53818735Y-98476660D01*
X53923340Y-98581265D01*
X54005528Y-98704268D01*
X54062140Y-98840941D01*
X54091000Y-98986033D01*
X54091000Y-99133967D01*
X54062140Y-99279059D01*
X54005528Y-99415732D01*
X53923340Y-99538735D01*
X53818735Y-99643340D01*
X53695732Y-99725528D01*
X53695731Y-99725529D01*
X53695730Y-99725529D01*
X53559059Y-99782140D01*
X53413968Y-99811000D01*
X53266032Y-99811000D01*
X53120941Y-99782140D01*
X52984270Y-99725529D01*
X52984269Y-99725529D01*
X52984268Y-99725528D01*
X52861265Y-99643340D01*
X52756660Y-99538735D01*
X52674472Y-99415732D01*
X52617860Y-99279059D01*
X52589000Y-99133967D01*
X52589000Y-98986033D01*
X52617860Y-98840941D01*
X52674472Y-98704268D01*
X52756660Y-98581265D01*
X52861265Y-98476660D01*
X52984268Y-98394472D01*
X53120941Y-98337860D01*
X53266032Y-98309000D01*
X53413968Y-98309000D01*
X53559059Y-98337860D01*
X53559059Y-98337860D01*
G37*
G36*
X94199059Y-98337860D02*
G01*
X94335732Y-98394472D01*
X94458735Y-98476660D01*
X94563340Y-98581265D01*
X94645528Y-98704268D01*
X94702140Y-98840941D01*
X94731000Y-98986033D01*
X94731000Y-99133967D01*
X94702140Y-99279059D01*
X94645528Y-99415732D01*
X94563340Y-99538735D01*
X94458735Y-99643340D01*
X94335732Y-99725528D01*
X94335731Y-99725529D01*
X94335730Y-99725529D01*
X94199059Y-99782140D01*
X94053968Y-99811000D01*
X93906032Y-99811000D01*
X93760941Y-99782140D01*
X93624270Y-99725529D01*
X93624269Y-99725529D01*
X93624268Y-99725528D01*
X93501265Y-99643340D01*
X93396660Y-99538735D01*
X93314472Y-99415732D01*
X93257860Y-99279059D01*
X93229000Y-99133967D01*
X93229000Y-98986033D01*
X93257860Y-98840941D01*
X93314472Y-98704268D01*
X93396660Y-98581265D01*
X93501265Y-98476660D01*
X93624268Y-98394472D01*
X93760941Y-98337860D01*
X93906032Y-98309000D01*
X94053968Y-98309000D01*
X94199059Y-98337860D01*
X94199059Y-98337860D01*
G37*
G36*
X94053665Y-94502622D02*
G01*
X94127222Y-94509867D01*
X94268786Y-94552810D01*
X94399252Y-94622546D01*
X94429040Y-94646992D01*
X94513607Y-94716393D01*
X94583008Y-94800960D01*
X94607454Y-94830748D01*
X94677190Y-94961214D01*
X94720133Y-95102778D01*
X94734633Y-95250000D01*
X94720133Y-95397222D01*
X94677190Y-95538786D01*
X94607454Y-95669252D01*
X94583008Y-95699040D01*
X94513607Y-95783607D01*
X94429040Y-95853008D01*
X94399252Y-95877454D01*
X94268786Y-95947190D01*
X94127222Y-95990133D01*
X94053665Y-95997378D01*
X94016888Y-96001000D01*
X93943112Y-96001000D01*
X93906335Y-95997378D01*
X93832778Y-95990133D01*
X93691214Y-95947190D01*
X93560748Y-95877454D01*
X93530960Y-95853008D01*
X93446393Y-95783607D01*
X93376992Y-95699040D01*
X93352546Y-95669252D01*
X93282810Y-95538786D01*
X93239867Y-95397222D01*
X93225367Y-95250000D01*
X93239867Y-95102778D01*
X93282810Y-94961214D01*
X93352546Y-94830748D01*
X93376992Y-94800960D01*
X93446393Y-94716393D01*
X93530960Y-94646992D01*
X93560748Y-94622546D01*
X93691214Y-94552810D01*
X93832778Y-94509867D01*
X93906335Y-94502622D01*
X93943112Y-94499000D01*
X94016888Y-94499000D01*
X94053665Y-94502622D01*
X94053665Y-94502622D01*
G37*
G36*
X53413665Y-94502622D02*
G01*
X53487222Y-94509867D01*
X53628786Y-94552810D01*
X53759252Y-94622546D01*
X53789040Y-94646992D01*
X53873607Y-94716393D01*
X53943008Y-94800960D01*
X53967454Y-94830748D01*
X54037190Y-94961214D01*
X54080133Y-95102778D01*
X54094633Y-95250000D01*
X54080133Y-95397222D01*
X54037190Y-95538786D01*
X53967454Y-95669252D01*
X53943008Y-95699040D01*
X53873607Y-95783607D01*
X53789040Y-95853008D01*
X53759252Y-95877454D01*
X53628786Y-95947190D01*
X53487222Y-95990133D01*
X53413665Y-95997378D01*
X53376888Y-96001000D01*
X53303112Y-96001000D01*
X53266335Y-95997378D01*
X53192778Y-95990133D01*
X53051214Y-95947190D01*
X52920748Y-95877454D01*
X52890960Y-95853008D01*
X52806393Y-95783607D01*
X52736992Y-95699040D01*
X52712546Y-95669252D01*
X52642810Y-95538786D01*
X52599867Y-95397222D01*
X52585367Y-95250000D01*
X52599867Y-95102778D01*
X52642810Y-94961214D01*
X52712546Y-94830748D01*
X52736992Y-94800960D01*
X52806393Y-94716393D01*
X52890960Y-94646992D01*
X52920748Y-94622546D01*
X53051214Y-94552810D01*
X53192778Y-94509867D01*
X53266335Y-94502622D01*
X53303112Y-94499000D01*
X53376888Y-94499000D01*
X53413665Y-94502622D01*
X53413665Y-94502622D01*
G37*
G36*
X84065239Y-92747101D02*
G01*
X84301053Y-92818634D01*
X84518381Y-92934799D01*
X84708871Y-93091129D01*
X84865201Y-93281619D01*
X84981366Y-93498947D01*
X85052899Y-93734761D01*
X85077053Y-93980000D01*
X85052899Y-94225239D01*
X84981366Y-94461053D01*
X84865201Y-94678381D01*
X84708871Y-94868871D01*
X84518381Y-95025201D01*
X84301053Y-95141366D01*
X84065239Y-95212899D01*
X83881457Y-95231000D01*
X83758543Y-95231000D01*
X83574761Y-95212899D01*
X83338947Y-95141366D01*
X83121619Y-95025201D01*
X82931129Y-94868871D01*
X82774799Y-94678381D01*
X82658634Y-94461053D01*
X82587101Y-94225239D01*
X82562947Y-93980000D01*
X82587101Y-93734761D01*
X82658634Y-93498947D01*
X82774799Y-93281619D01*
X82931129Y-93091129D01*
X83121619Y-92934799D01*
X83338947Y-92818634D01*
X83574761Y-92747101D01*
X83758543Y-92729000D01*
X83881457Y-92729000D01*
X84065239Y-92747101D01*
X84065239Y-92747101D01*
G37*
G36*
X63745239Y-92747101D02*
G01*
X63981053Y-92818634D01*
X64198381Y-92934799D01*
X64388871Y-93091129D01*
X64545201Y-93281619D01*
X64661366Y-93498947D01*
X64732899Y-93734761D01*
X64757053Y-93980000D01*
X64732899Y-94225239D01*
X64661366Y-94461053D01*
X64545201Y-94678381D01*
X64388871Y-94868871D01*
X64198381Y-95025201D01*
X63981053Y-95141366D01*
X63745239Y-95212899D01*
X63561457Y-95231000D01*
X63438543Y-95231000D01*
X63254761Y-95212899D01*
X63018947Y-95141366D01*
X62801619Y-95025201D01*
X62611129Y-94868871D01*
X62454799Y-94678381D01*
X62338634Y-94461053D01*
X62267101Y-94225239D01*
X62242947Y-93980000D01*
X62267101Y-93734761D01*
X62338634Y-93498947D01*
X62454799Y-93281619D01*
X62611129Y-93091129D01*
X62801619Y-92934799D01*
X63018947Y-92818634D01*
X63254761Y-92747101D01*
X63438543Y-92729000D01*
X63561457Y-92729000D01*
X63745239Y-92747101D01*
X63745239Y-92747101D01*
G37*
G36*
X91221000Y-94983500D02*
G01*
X89119000Y-94983500D01*
X89119000Y-92976500D01*
X91221000Y-92976500D01*
X91221000Y-94983500D01*
X91221000Y-94983500D01*
G37*
G36*
X59471000Y-94983500D02*
G01*
X57369000Y-94983500D01*
X57369000Y-92976500D01*
X59471000Y-92976500D01*
X59471000Y-94983500D01*
X59471000Y-94983500D01*
G37*
G36*
X70445170Y-88447879D02*
G01*
X70739868Y-88506498D01*
X71295067Y-88736469D01*
X71539808Y-88900000D01*
X71794733Y-89070335D01*
X72219665Y-89495267D01*
X72298341Y-89613015D01*
X72553531Y-89994933D01*
X72783502Y-90550132D01*
X72900740Y-91139528D01*
X72900740Y-91740472D01*
X72783502Y-92329868D01*
X72553531Y-92885067D01*
X72362565Y-93170867D01*
X72219665Y-93384733D01*
X71794733Y-93809665D01*
X71580867Y-93952565D01*
X71295067Y-94143531D01*
X70739868Y-94373502D01*
X70445170Y-94432121D01*
X70150473Y-94490740D01*
X69549527Y-94490740D01*
X69254830Y-94432121D01*
X68960132Y-94373502D01*
X68404933Y-94143531D01*
X68119133Y-93952565D01*
X67905267Y-93809665D01*
X67480335Y-93384733D01*
X67337435Y-93170867D01*
X67146469Y-92885067D01*
X66916498Y-92329868D01*
X66799260Y-91740472D01*
X66799260Y-91139528D01*
X66916498Y-90550132D01*
X67146469Y-89994933D01*
X67401659Y-89613015D01*
X67480335Y-89495267D01*
X67905267Y-89070335D01*
X68160192Y-88900000D01*
X68404933Y-88736469D01*
X68960132Y-88506498D01*
X69254830Y-88447879D01*
X69549527Y-88389260D01*
X70150473Y-88389260D01*
X70445170Y-88447879D01*
X70445170Y-88447879D01*
G37*
G36*
X78065170Y-88447879D02*
G01*
X78359868Y-88506498D01*
X78915067Y-88736469D01*
X79159808Y-88900000D01*
X79414733Y-89070335D01*
X79839665Y-89495267D01*
X79918341Y-89613015D01*
X80173531Y-89994933D01*
X80403502Y-90550132D01*
X80520740Y-91139528D01*
X80520740Y-91740472D01*
X80403502Y-92329868D01*
X80173531Y-92885067D01*
X79982565Y-93170867D01*
X79839665Y-93384733D01*
X79414733Y-93809665D01*
X79200867Y-93952565D01*
X78915067Y-94143531D01*
X78359868Y-94373502D01*
X78065170Y-94432121D01*
X77770473Y-94490740D01*
X77169527Y-94490740D01*
X76874830Y-94432121D01*
X76580132Y-94373502D01*
X76024933Y-94143531D01*
X75739133Y-93952565D01*
X75525267Y-93809665D01*
X75100335Y-93384733D01*
X74957435Y-93170867D01*
X74766469Y-92885067D01*
X74536498Y-92329868D01*
X74419260Y-91740472D01*
X74419260Y-91139528D01*
X74536498Y-90550132D01*
X74766469Y-89994933D01*
X75021659Y-89613015D01*
X75100335Y-89495267D01*
X75525267Y-89070335D01*
X75780192Y-88900000D01*
X76024933Y-88736469D01*
X76580132Y-88506498D01*
X76874830Y-88447879D01*
X77169527Y-88389260D01*
X77770473Y-88389260D01*
X78065170Y-88447879D01*
X78065170Y-88447879D01*
G37*
G36*
X58565936Y-90441340D02*
G01*
X58664220Y-90451020D01*
X58853381Y-90508401D01*
X59027712Y-90601583D01*
X59180515Y-90726985D01*
X59305917Y-90879788D01*
X59399099Y-91054119D01*
X59456480Y-91243280D01*
X59475855Y-91440000D01*
X59456480Y-91636720D01*
X59399099Y-91825881D01*
X59305917Y-92000212D01*
X59180515Y-92153015D01*
X59027712Y-92278417D01*
X58853381Y-92371599D01*
X58664220Y-92428980D01*
X58565936Y-92438660D01*
X58516795Y-92443500D01*
X58323205Y-92443500D01*
X58274064Y-92438660D01*
X58175780Y-92428980D01*
X57986619Y-92371599D01*
X57812288Y-92278417D01*
X57659485Y-92153015D01*
X57534083Y-92000212D01*
X57440901Y-91825881D01*
X57383520Y-91636720D01*
X57364145Y-91440000D01*
X57383520Y-91243280D01*
X57440901Y-91054119D01*
X57534083Y-90879788D01*
X57659485Y-90726985D01*
X57812288Y-90601583D01*
X57986619Y-90508401D01*
X58175780Y-90451020D01*
X58274064Y-90441340D01*
X58323205Y-90436500D01*
X58516795Y-90436500D01*
X58565936Y-90441340D01*
X58565936Y-90441340D01*
G37*
G36*
X90315936Y-90441340D02*
G01*
X90414220Y-90451020D01*
X90603381Y-90508401D01*
X90777712Y-90601583D01*
X90930515Y-90726985D01*
X91055917Y-90879788D01*
X91149099Y-91054119D01*
X91206480Y-91243280D01*
X91225855Y-91440000D01*
X91206480Y-91636720D01*
X91149099Y-91825881D01*
X91055917Y-92000212D01*
X90930515Y-92153015D01*
X90777712Y-92278417D01*
X90603381Y-92371599D01*
X90414220Y-92428980D01*
X90315936Y-92438660D01*
X90266795Y-92443500D01*
X90073205Y-92443500D01*
X90024064Y-92438660D01*
X89925780Y-92428980D01*
X89736619Y-92371599D01*
X89562288Y-92278417D01*
X89409485Y-92153015D01*
X89284083Y-92000212D01*
X89190901Y-91825881D01*
X89133520Y-91636720D01*
X89114145Y-91440000D01*
X89133520Y-91243280D01*
X89190901Y-91054119D01*
X89284083Y-90879788D01*
X89409485Y-90726985D01*
X89562288Y-90601583D01*
X89736619Y-90508401D01*
X89925780Y-90451020D01*
X90024064Y-90441340D01*
X90073205Y-90436500D01*
X90266795Y-90436500D01*
X90315936Y-90441340D01*
X90315936Y-90441340D01*
G37*
G36*
X64751000Y-91421000D02*
G01*
X62249000Y-91421000D01*
X62249000Y-88919000D01*
X64751000Y-88919000D01*
X64751000Y-91421000D01*
X64751000Y-91421000D01*
G37*
G36*
X85071000Y-91421000D02*
G01*
X82569000Y-91421000D01*
X82569000Y-88919000D01*
X85071000Y-88919000D01*
X85071000Y-91421000D01*
X85071000Y-91421000D01*
G37*
G36*
X58565936Y-87901340D02*
G01*
X58664220Y-87911020D01*
X58853381Y-87968401D01*
X59027712Y-88061583D01*
X59180515Y-88186985D01*
X59305917Y-88339788D01*
X59312519Y-88352140D01*
X59395026Y-88506498D01*
X59399099Y-88514119D01*
X59456480Y-88703280D01*
X59475855Y-88900000D01*
X59456480Y-89096720D01*
X59399099Y-89285881D01*
X59305917Y-89460212D01*
X59180515Y-89613015D01*
X59027712Y-89738417D01*
X58853381Y-89831599D01*
X58664220Y-89888980D01*
X58565936Y-89898660D01*
X58516795Y-89903500D01*
X58323205Y-89903500D01*
X58274064Y-89898660D01*
X58175780Y-89888980D01*
X57986619Y-89831599D01*
X57812288Y-89738417D01*
X57659485Y-89613015D01*
X57534083Y-89460212D01*
X57440901Y-89285881D01*
X57383520Y-89096720D01*
X57364145Y-88900000D01*
X57383520Y-88703280D01*
X57440901Y-88514119D01*
X57444975Y-88506498D01*
X57527481Y-88352140D01*
X57534083Y-88339788D01*
X57659485Y-88186985D01*
X57812288Y-88061583D01*
X57986619Y-87968401D01*
X58175780Y-87911020D01*
X58274064Y-87901340D01*
X58323205Y-87896500D01*
X58516795Y-87896500D01*
X58565936Y-87901340D01*
X58565936Y-87901340D01*
G37*
G36*
X90315936Y-87901340D02*
G01*
X90414220Y-87911020D01*
X90603381Y-87968401D01*
X90777712Y-88061583D01*
X90930515Y-88186985D01*
X91055917Y-88339788D01*
X91062519Y-88352140D01*
X91145026Y-88506498D01*
X91149099Y-88514119D01*
X91206480Y-88703280D01*
X91225855Y-88900000D01*
X91206480Y-89096720D01*
X91149099Y-89285881D01*
X91055917Y-89460212D01*
X90930515Y-89613015D01*
X90777712Y-89738417D01*
X90603381Y-89831599D01*
X90414220Y-89888980D01*
X90315936Y-89898660D01*
X90266795Y-89903500D01*
X90073205Y-89903500D01*
X90024064Y-89898660D01*
X89925780Y-89888980D01*
X89736619Y-89831599D01*
X89562288Y-89738417D01*
X89409485Y-89613015D01*
X89284083Y-89460212D01*
X89190901Y-89285881D01*
X89133520Y-89096720D01*
X89114145Y-88900000D01*
X89133520Y-88703280D01*
X89190901Y-88514119D01*
X89194975Y-88506498D01*
X89277481Y-88352140D01*
X89284083Y-88339788D01*
X89409485Y-88186985D01*
X89562288Y-88061583D01*
X89736619Y-87968401D01*
X89925780Y-87911020D01*
X90024064Y-87901340D01*
X90073205Y-87896500D01*
X90266795Y-87896500D01*
X90315936Y-87901340D01*
X90315936Y-87901340D01*
G37*
G36*
X53559059Y-86907860D02*
G01*
X53695732Y-86964472D01*
X53818735Y-87046660D01*
X53923340Y-87151265D01*
X54005528Y-87274268D01*
X54062140Y-87410941D01*
X54091000Y-87556033D01*
X54091000Y-87703967D01*
X54062140Y-87849059D01*
X54005528Y-87985732D01*
X53923340Y-88108735D01*
X53818735Y-88213340D01*
X53695732Y-88295528D01*
X53695731Y-88295529D01*
X53695730Y-88295529D01*
X53559059Y-88352140D01*
X53413968Y-88381000D01*
X53266032Y-88381000D01*
X53120941Y-88352140D01*
X52984270Y-88295529D01*
X52984269Y-88295529D01*
X52984268Y-88295528D01*
X52861265Y-88213340D01*
X52756660Y-88108735D01*
X52674472Y-87985732D01*
X52617860Y-87849059D01*
X52589000Y-87703967D01*
X52589000Y-87556033D01*
X52617860Y-87410941D01*
X52674472Y-87274268D01*
X52756660Y-87151265D01*
X52861265Y-87046660D01*
X52984268Y-86964472D01*
X53120941Y-86907860D01*
X53266032Y-86879000D01*
X53413968Y-86879000D01*
X53559059Y-86907860D01*
X53559059Y-86907860D01*
G37*
G36*
X94199059Y-86907860D02*
G01*
X94335732Y-86964472D01*
X94458735Y-87046660D01*
X94563340Y-87151265D01*
X94645528Y-87274268D01*
X94702140Y-87410941D01*
X94731000Y-87556033D01*
X94731000Y-87703967D01*
X94702140Y-87849059D01*
X94645528Y-87985732D01*
X94563340Y-88108735D01*
X94458735Y-88213340D01*
X94335732Y-88295528D01*
X94335731Y-88295529D01*
X94335730Y-88295529D01*
X94199059Y-88352140D01*
X94053968Y-88381000D01*
X93906032Y-88381000D01*
X93760941Y-88352140D01*
X93624270Y-88295529D01*
X93624269Y-88295529D01*
X93624268Y-88295528D01*
X93501265Y-88213340D01*
X93396660Y-88108735D01*
X93314472Y-87985732D01*
X93257860Y-87849059D01*
X93229000Y-87703967D01*
X93229000Y-87556033D01*
X93257860Y-87410941D01*
X93314472Y-87274268D01*
X93396660Y-87151265D01*
X93501265Y-87046660D01*
X93624268Y-86964472D01*
X93760941Y-86907860D01*
X93906032Y-86879000D01*
X94053968Y-86879000D01*
X94199059Y-86907860D01*
X94199059Y-86907860D01*
G37*
G36*
X94053665Y-83072622D02*
G01*
X94127222Y-83079867D01*
X94268786Y-83122810D01*
X94399252Y-83192546D01*
X94429040Y-83216992D01*
X94513607Y-83286393D01*
X94583008Y-83370960D01*
X94607454Y-83400748D01*
X94677190Y-83531214D01*
X94720133Y-83672778D01*
X94734633Y-83820000D01*
X94720133Y-83967222D01*
X94677190Y-84108786D01*
X94607454Y-84239252D01*
X94583008Y-84269040D01*
X94513607Y-84353607D01*
X94429040Y-84423008D01*
X94399252Y-84447454D01*
X94268786Y-84517190D01*
X94127222Y-84560133D01*
X94053665Y-84567378D01*
X94016888Y-84571000D01*
X93943112Y-84571000D01*
X93906335Y-84567378D01*
X93832778Y-84560133D01*
X93691214Y-84517190D01*
X93560748Y-84447454D01*
X93530960Y-84423008D01*
X93446393Y-84353607D01*
X93376992Y-84269040D01*
X93352546Y-84239252D01*
X93282810Y-84108786D01*
X93239867Y-83967222D01*
X93225367Y-83820000D01*
X93239867Y-83672778D01*
X93282810Y-83531214D01*
X93352546Y-83400748D01*
X93376992Y-83370960D01*
X93446393Y-83286393D01*
X93530960Y-83216992D01*
X93560748Y-83192546D01*
X93691214Y-83122810D01*
X93832778Y-83079867D01*
X93906335Y-83072622D01*
X93943112Y-83069000D01*
X94016888Y-83069000D01*
X94053665Y-83072622D01*
X94053665Y-83072622D01*
G37*
G36*
X53413665Y-83072622D02*
G01*
X53487222Y-83079867D01*
X53628786Y-83122810D01*
X53759252Y-83192546D01*
X53789040Y-83216992D01*
X53873607Y-83286393D01*
X53943008Y-83370960D01*
X53967454Y-83400748D01*
X54037190Y-83531214D01*
X54080133Y-83672778D01*
X54094633Y-83820000D01*
X54080133Y-83967222D01*
X54037190Y-84108786D01*
X53967454Y-84239252D01*
X53943008Y-84269040D01*
X53873607Y-84353607D01*
X53789040Y-84423008D01*
X53759252Y-84447454D01*
X53628786Y-84517190D01*
X53487222Y-84560133D01*
X53413665Y-84567378D01*
X53376888Y-84571000D01*
X53303112Y-84571000D01*
X53266335Y-84567378D01*
X53192778Y-84560133D01*
X53051214Y-84517190D01*
X52920748Y-84447454D01*
X52890960Y-84423008D01*
X52806393Y-84353607D01*
X52736992Y-84269040D01*
X52712546Y-84239252D01*
X52642810Y-84108786D01*
X52599867Y-83967222D01*
X52585367Y-83820000D01*
X52599867Y-83672778D01*
X52642810Y-83531214D01*
X52712546Y-83400748D01*
X52736992Y-83370960D01*
X52806393Y-83286393D01*
X52890960Y-83216992D01*
X52920748Y-83192546D01*
X53051214Y-83122810D01*
X53192778Y-83079867D01*
X53266335Y-83072622D01*
X53303112Y-83069000D01*
X53376888Y-83069000D01*
X53413665Y-83072622D01*
X53413665Y-83072622D01*
G37*
G36*
X63745239Y-81317101D02*
G01*
X63981053Y-81388634D01*
X64198381Y-81504799D01*
X64388871Y-81661129D01*
X64545201Y-81851619D01*
X64661366Y-82068947D01*
X64732899Y-82304761D01*
X64757053Y-82550000D01*
X64732899Y-82795239D01*
X64661366Y-83031053D01*
X64545201Y-83248381D01*
X64388871Y-83438871D01*
X64198381Y-83595201D01*
X63981053Y-83711366D01*
X63745239Y-83782899D01*
X63561457Y-83801000D01*
X63438543Y-83801000D01*
X63254761Y-83782899D01*
X63018947Y-83711366D01*
X62801619Y-83595201D01*
X62611129Y-83438871D01*
X62454799Y-83248381D01*
X62338634Y-83031053D01*
X62267101Y-82795239D01*
X62242947Y-82550000D01*
X62267101Y-82304761D01*
X62338634Y-82068947D01*
X62454799Y-81851619D01*
X62611129Y-81661129D01*
X62801619Y-81504799D01*
X63018947Y-81388634D01*
X63254761Y-81317101D01*
X63438543Y-81299000D01*
X63561457Y-81299000D01*
X63745239Y-81317101D01*
X63745239Y-81317101D01*
G37*
G36*
X84065239Y-81317101D02*
G01*
X84301053Y-81388634D01*
X84518381Y-81504799D01*
X84708871Y-81661129D01*
X84865201Y-81851619D01*
X84981366Y-82068947D01*
X85052899Y-82304761D01*
X85077053Y-82550000D01*
X85052899Y-82795239D01*
X84981366Y-83031053D01*
X84865201Y-83248381D01*
X84708871Y-83438871D01*
X84518381Y-83595201D01*
X84301053Y-83711366D01*
X84065239Y-83782899D01*
X83881457Y-83801000D01*
X83758543Y-83801000D01*
X83574761Y-83782899D01*
X83338947Y-83711366D01*
X83121619Y-83595201D01*
X82931129Y-83438871D01*
X82774799Y-83248381D01*
X82658634Y-83031053D01*
X82587101Y-82795239D01*
X82562947Y-82550000D01*
X82587101Y-82304761D01*
X82658634Y-82068947D01*
X82774799Y-81851619D01*
X82931129Y-81661129D01*
X83121619Y-81504799D01*
X83338947Y-81388634D01*
X83574761Y-81317101D01*
X83758543Y-81299000D01*
X83881457Y-81299000D01*
X84065239Y-81317101D01*
X84065239Y-81317101D01*
G37*
G36*
X91221000Y-83553500D02*
G01*
X89119000Y-83553500D01*
X89119000Y-81546500D01*
X91221000Y-81546500D01*
X91221000Y-83553500D01*
X91221000Y-83553500D01*
G37*
G36*
X59471000Y-83553500D02*
G01*
X57369000Y-83553500D01*
X57369000Y-81546500D01*
X59471000Y-81546500D01*
X59471000Y-83553500D01*
X59471000Y-83553500D01*
G37*
G36*
X78065170Y-77017879D02*
G01*
X78359868Y-77076498D01*
X78915067Y-77306469D01*
X79159808Y-77470000D01*
X79414733Y-77640335D01*
X79839665Y-78065267D01*
X79918341Y-78183015D01*
X80173531Y-78564933D01*
X80403502Y-79120132D01*
X80520740Y-79709528D01*
X80520740Y-80310472D01*
X80403502Y-80899868D01*
X80173531Y-81455067D01*
X79982565Y-81740867D01*
X79839665Y-81954733D01*
X79414733Y-82379665D01*
X79200867Y-82522565D01*
X78915067Y-82713531D01*
X78359868Y-82943502D01*
X78065170Y-83002121D01*
X77770473Y-83060740D01*
X77169527Y-83060740D01*
X76874830Y-83002121D01*
X76580132Y-82943502D01*
X76024933Y-82713531D01*
X75739133Y-82522565D01*
X75525267Y-82379665D01*
X75100335Y-81954733D01*
X74957435Y-81740867D01*
X74766469Y-81455067D01*
X74536498Y-80899868D01*
X74419260Y-80310472D01*
X74419260Y-79709528D01*
X74536498Y-79120132D01*
X74766469Y-78564933D01*
X75021659Y-78183015D01*
X75100335Y-78065267D01*
X75525267Y-77640335D01*
X75780192Y-77470000D01*
X76024933Y-77306469D01*
X76580132Y-77076498D01*
X76874830Y-77017879D01*
X77169527Y-76959260D01*
X77770473Y-76959260D01*
X78065170Y-77017879D01*
X78065170Y-77017879D01*
G37*
G36*
X70445170Y-77017879D02*
G01*
X70739868Y-77076498D01*
X71295067Y-77306469D01*
X71539808Y-77470000D01*
X71794733Y-77640335D01*
X72219665Y-78065267D01*
X72298341Y-78183015D01*
X72553531Y-78564933D01*
X72783502Y-79120132D01*
X72900740Y-79709528D01*
X72900740Y-80310472D01*
X72783502Y-80899868D01*
X72553531Y-81455067D01*
X72362565Y-81740867D01*
X72219665Y-81954733D01*
X71794733Y-82379665D01*
X71580867Y-82522565D01*
X71295067Y-82713531D01*
X70739868Y-82943502D01*
X70445170Y-83002121D01*
X70150473Y-83060740D01*
X69549527Y-83060740D01*
X69254830Y-83002121D01*
X68960132Y-82943502D01*
X68404933Y-82713531D01*
X68119133Y-82522565D01*
X67905267Y-82379665D01*
X67480335Y-81954733D01*
X67337435Y-81740867D01*
X67146469Y-81455067D01*
X66916498Y-80899868D01*
X66799260Y-80310472D01*
X66799260Y-79709528D01*
X66916498Y-79120132D01*
X67146469Y-78564933D01*
X67401659Y-78183015D01*
X67480335Y-78065267D01*
X67905267Y-77640335D01*
X68160192Y-77470000D01*
X68404933Y-77306469D01*
X68960132Y-77076498D01*
X69254830Y-77017879D01*
X69549527Y-76959260D01*
X70150473Y-76959260D01*
X70445170Y-77017879D01*
X70445170Y-77017879D01*
G37*
G36*
X90315936Y-79011340D02*
G01*
X90414220Y-79021020D01*
X90603381Y-79078401D01*
X90777712Y-79171583D01*
X90930515Y-79296985D01*
X91055917Y-79449788D01*
X91149099Y-79624119D01*
X91206480Y-79813280D01*
X91225855Y-80010000D01*
X91206480Y-80206720D01*
X91149099Y-80395881D01*
X91055917Y-80570212D01*
X90930515Y-80723015D01*
X90777712Y-80848417D01*
X90603381Y-80941599D01*
X90414220Y-80998980D01*
X90315936Y-81008660D01*
X90266795Y-81013500D01*
X90073205Y-81013500D01*
X90024064Y-81008660D01*
X89925780Y-80998980D01*
X89736619Y-80941599D01*
X89562288Y-80848417D01*
X89409485Y-80723015D01*
X89284083Y-80570212D01*
X89190901Y-80395881D01*
X89133520Y-80206720D01*
X89114145Y-80010000D01*
X89133520Y-79813280D01*
X89190901Y-79624119D01*
X89284083Y-79449788D01*
X89409485Y-79296985D01*
X89562288Y-79171583D01*
X89736619Y-79078401D01*
X89925780Y-79021020D01*
X90024064Y-79011340D01*
X90073205Y-79006500D01*
X90266795Y-79006500D01*
X90315936Y-79011340D01*
X90315936Y-79011340D01*
G37*
G36*
X58565936Y-79011340D02*
G01*
X58664220Y-79021020D01*
X58853381Y-79078401D01*
X59027712Y-79171583D01*
X59180515Y-79296985D01*
X59305917Y-79449788D01*
X59399099Y-79624119D01*
X59456480Y-79813280D01*
X59475855Y-80010000D01*
X59456480Y-80206720D01*
X59399099Y-80395881D01*
X59305917Y-80570212D01*
X59180515Y-80723015D01*
X59027712Y-80848417D01*
X58853381Y-80941599D01*
X58664220Y-80998980D01*
X58565936Y-81008660D01*
X58516795Y-81013500D01*
X58323205Y-81013500D01*
X58274064Y-81008660D01*
X58175780Y-80998980D01*
X57986619Y-80941599D01*
X57812288Y-80848417D01*
X57659485Y-80723015D01*
X57534083Y-80570212D01*
X57440901Y-80395881D01*
X57383520Y-80206720D01*
X57364145Y-80010000D01*
X57383520Y-79813280D01*
X57440901Y-79624119D01*
X57534083Y-79449788D01*
X57659485Y-79296985D01*
X57812288Y-79171583D01*
X57986619Y-79078401D01*
X58175780Y-79021020D01*
X58274064Y-79011340D01*
X58323205Y-79006500D01*
X58516795Y-79006500D01*
X58565936Y-79011340D01*
X58565936Y-79011340D01*
G37*
G36*
X85071000Y-79991000D02*
G01*
X82569000Y-79991000D01*
X82569000Y-77489000D01*
X85071000Y-77489000D01*
X85071000Y-79991000D01*
X85071000Y-79991000D01*
G37*
G36*
X64751000Y-79991000D02*
G01*
X62249000Y-79991000D01*
X62249000Y-77489000D01*
X64751000Y-77489000D01*
X64751000Y-79991000D01*
X64751000Y-79991000D01*
G37*
G36*
X90315936Y-76471340D02*
G01*
X90414220Y-76481020D01*
X90603381Y-76538401D01*
X90777712Y-76631583D01*
X90930515Y-76756985D01*
X91055917Y-76909788D01*
X91062519Y-76922140D01*
X91145026Y-77076498D01*
X91149099Y-77084119D01*
X91206480Y-77273280D01*
X91225855Y-77470000D01*
X91206480Y-77666720D01*
X91149099Y-77855881D01*
X91055917Y-78030212D01*
X90930515Y-78183015D01*
X90777712Y-78308417D01*
X90603381Y-78401599D01*
X90414220Y-78458980D01*
X90315936Y-78468660D01*
X90266795Y-78473500D01*
X90073205Y-78473500D01*
X90024064Y-78468660D01*
X89925780Y-78458980D01*
X89736619Y-78401599D01*
X89562288Y-78308417D01*
X89409485Y-78183015D01*
X89284083Y-78030212D01*
X89190901Y-77855881D01*
X89133520Y-77666720D01*
X89114145Y-77470000D01*
X89133520Y-77273280D01*
X89190901Y-77084119D01*
X89194975Y-77076498D01*
X89277481Y-76922140D01*
X89284083Y-76909788D01*
X89409485Y-76756985D01*
X89562288Y-76631583D01*
X89736619Y-76538401D01*
X89925780Y-76481020D01*
X90024064Y-76471340D01*
X90073205Y-76466500D01*
X90266795Y-76466500D01*
X90315936Y-76471340D01*
X90315936Y-76471340D01*
G37*
G36*
X58565936Y-76471340D02*
G01*
X58664220Y-76481020D01*
X58853381Y-76538401D01*
X59027712Y-76631583D01*
X59180515Y-76756985D01*
X59305917Y-76909788D01*
X59312519Y-76922140D01*
X59395026Y-77076498D01*
X59399099Y-77084119D01*
X59456480Y-77273280D01*
X59475855Y-77470000D01*
X59456480Y-77666720D01*
X59399099Y-77855881D01*
X59305917Y-78030212D01*
X59180515Y-78183015D01*
X59027712Y-78308417D01*
X58853381Y-78401599D01*
X58664220Y-78458980D01*
X58565936Y-78468660D01*
X58516795Y-78473500D01*
X58323205Y-78473500D01*
X58274064Y-78468660D01*
X58175780Y-78458980D01*
X57986619Y-78401599D01*
X57812288Y-78308417D01*
X57659485Y-78183015D01*
X57534083Y-78030212D01*
X57440901Y-77855881D01*
X57383520Y-77666720D01*
X57364145Y-77470000D01*
X57383520Y-77273280D01*
X57440901Y-77084119D01*
X57444975Y-77076498D01*
X57527481Y-76922140D01*
X57534083Y-76909788D01*
X57659485Y-76756985D01*
X57812288Y-76631583D01*
X57986619Y-76538401D01*
X58175780Y-76481020D01*
X58274064Y-76471340D01*
X58323205Y-76466500D01*
X58516795Y-76466500D01*
X58565936Y-76471340D01*
X58565936Y-76471340D01*
G37*
G36*
X94199059Y-75477860D02*
G01*
X94335732Y-75534472D01*
X94458735Y-75616660D01*
X94563340Y-75721265D01*
X94645528Y-75844268D01*
X94702140Y-75980941D01*
X94731000Y-76126033D01*
X94731000Y-76273967D01*
X94702140Y-76419059D01*
X94645528Y-76555732D01*
X94563340Y-76678735D01*
X94458735Y-76783340D01*
X94335732Y-76865528D01*
X94335731Y-76865529D01*
X94335730Y-76865529D01*
X94199059Y-76922140D01*
X94053968Y-76951000D01*
X93906032Y-76951000D01*
X93760941Y-76922140D01*
X93624270Y-76865529D01*
X93624269Y-76865529D01*
X93624268Y-76865528D01*
X93501265Y-76783340D01*
X93396660Y-76678735D01*
X93314472Y-76555732D01*
X93257860Y-76419059D01*
X93229000Y-76273967D01*
X93229000Y-76126033D01*
X93257860Y-75980941D01*
X93314472Y-75844268D01*
X93396660Y-75721265D01*
X93501265Y-75616660D01*
X93624268Y-75534472D01*
X93760941Y-75477860D01*
X93906032Y-75449000D01*
X94053968Y-75449000D01*
X94199059Y-75477860D01*
X94199059Y-75477860D01*
G37*
G36*
X53559059Y-75477860D02*
G01*
X53695732Y-75534472D01*
X53818735Y-75616660D01*
X53923340Y-75721265D01*
X54005528Y-75844268D01*
X54062140Y-75980941D01*
X54091000Y-76126033D01*
X54091000Y-76273967D01*
X54062140Y-76419059D01*
X54005528Y-76555732D01*
X53923340Y-76678735D01*
X53818735Y-76783340D01*
X53695732Y-76865528D01*
X53695731Y-76865529D01*
X53695730Y-76865529D01*
X53559059Y-76922140D01*
X53413968Y-76951000D01*
X53266032Y-76951000D01*
X53120941Y-76922140D01*
X52984270Y-76865529D01*
X52984269Y-76865529D01*
X52984268Y-76865528D01*
X52861265Y-76783340D01*
X52756660Y-76678735D01*
X52674472Y-76555732D01*
X52617860Y-76419059D01*
X52589000Y-76273967D01*
X52589000Y-76126033D01*
X52617860Y-75980941D01*
X52674472Y-75844268D01*
X52756660Y-75721265D01*
X52861265Y-75616660D01*
X52984268Y-75534472D01*
X53120941Y-75477860D01*
X53266032Y-75449000D01*
X53413968Y-75449000D01*
X53559059Y-75477860D01*
X53559059Y-75477860D01*
G37*
G36*
X94053665Y-71642622D02*
G01*
X94127222Y-71649867D01*
X94268786Y-71692810D01*
X94399252Y-71762546D01*
X94429040Y-71786992D01*
X94513607Y-71856393D01*
X94583008Y-71940960D01*
X94607454Y-71970748D01*
X94677190Y-72101214D01*
X94720133Y-72242778D01*
X94734633Y-72390000D01*
X94720133Y-72537222D01*
X94677190Y-72678786D01*
X94607454Y-72809252D01*
X94583008Y-72839040D01*
X94513607Y-72923607D01*
X94429040Y-72993008D01*
X94399252Y-73017454D01*
X94268786Y-73087190D01*
X94127222Y-73130133D01*
X94053665Y-73137378D01*
X94016888Y-73141000D01*
X93943112Y-73141000D01*
X93906335Y-73137378D01*
X93832778Y-73130133D01*
X93691214Y-73087190D01*
X93560748Y-73017454D01*
X93530960Y-72993008D01*
X93446393Y-72923607D01*
X93376992Y-72839040D01*
X93352546Y-72809252D01*
X93282810Y-72678786D01*
X93239867Y-72537222D01*
X93225367Y-72390000D01*
X93239867Y-72242778D01*
X93282810Y-72101214D01*
X93352546Y-71970748D01*
X93376992Y-71940960D01*
X93446393Y-71856393D01*
X93530960Y-71786992D01*
X93560748Y-71762546D01*
X93691214Y-71692810D01*
X93832778Y-71649867D01*
X93906335Y-71642622D01*
X93943112Y-71639000D01*
X94016888Y-71639000D01*
X94053665Y-71642622D01*
X94053665Y-71642622D01*
G37*
G36*
X53413665Y-71642622D02*
G01*
X53487222Y-71649867D01*
X53628786Y-71692810D01*
X53759252Y-71762546D01*
X53789040Y-71786992D01*
X53873607Y-71856393D01*
X53943008Y-71940960D01*
X53967454Y-71970748D01*
X54037190Y-72101214D01*
X54080133Y-72242778D01*
X54094633Y-72390000D01*
X54080133Y-72537222D01*
X54037190Y-72678786D01*
X53967454Y-72809252D01*
X53943008Y-72839040D01*
X53873607Y-72923607D01*
X53789040Y-72993008D01*
X53759252Y-73017454D01*
X53628786Y-73087190D01*
X53487222Y-73130133D01*
X53413665Y-73137378D01*
X53376888Y-73141000D01*
X53303112Y-73141000D01*
X53266335Y-73137378D01*
X53192778Y-73130133D01*
X53051214Y-73087190D01*
X52920748Y-73017454D01*
X52890960Y-72993008D01*
X52806393Y-72923607D01*
X52736992Y-72839040D01*
X52712546Y-72809252D01*
X52642810Y-72678786D01*
X52599867Y-72537222D01*
X52585367Y-72390000D01*
X52599867Y-72242778D01*
X52642810Y-72101214D01*
X52712546Y-71970748D01*
X52736992Y-71940960D01*
X52806393Y-71856393D01*
X52890960Y-71786992D01*
X52920748Y-71762546D01*
X53051214Y-71692810D01*
X53192778Y-71649867D01*
X53266335Y-71642622D01*
X53303112Y-71639000D01*
X53376888Y-71639000D01*
X53413665Y-71642622D01*
X53413665Y-71642622D01*
G37*
G36*
X84065239Y-69887101D02*
G01*
X84301053Y-69958634D01*
X84518381Y-70074799D01*
X84708871Y-70231129D01*
X84865201Y-70421619D01*
X84981366Y-70638947D01*
X85052899Y-70874761D01*
X85077053Y-71120000D01*
X85052899Y-71365239D01*
X84981366Y-71601053D01*
X84865201Y-71818381D01*
X84708871Y-72008871D01*
X84518381Y-72165201D01*
X84301053Y-72281366D01*
X84065239Y-72352899D01*
X83881457Y-72371000D01*
X83758543Y-72371000D01*
X83574761Y-72352899D01*
X83338947Y-72281366D01*
X83121619Y-72165201D01*
X82931129Y-72008871D01*
X82774799Y-71818381D01*
X82658634Y-71601053D01*
X82587101Y-71365239D01*
X82562947Y-71120000D01*
X82587101Y-70874761D01*
X82658634Y-70638947D01*
X82774799Y-70421619D01*
X82931129Y-70231129D01*
X83121619Y-70074799D01*
X83338947Y-69958634D01*
X83574761Y-69887101D01*
X83758543Y-69869000D01*
X83881457Y-69869000D01*
X84065239Y-69887101D01*
X84065239Y-69887101D01*
G37*
G36*
X63745239Y-69887101D02*
G01*
X63981053Y-69958634D01*
X64198381Y-70074799D01*
X64388871Y-70231129D01*
X64545201Y-70421619D01*
X64661366Y-70638947D01*
X64732899Y-70874761D01*
X64757053Y-71120000D01*
X64732899Y-71365239D01*
X64661366Y-71601053D01*
X64545201Y-71818381D01*
X64388871Y-72008871D01*
X64198381Y-72165201D01*
X63981053Y-72281366D01*
X63745239Y-72352899D01*
X63561457Y-72371000D01*
X63438543Y-72371000D01*
X63254761Y-72352899D01*
X63018947Y-72281366D01*
X62801619Y-72165201D01*
X62611129Y-72008871D01*
X62454799Y-71818381D01*
X62338634Y-71601053D01*
X62267101Y-71365239D01*
X62242947Y-71120000D01*
X62267101Y-70874761D01*
X62338634Y-70638947D01*
X62454799Y-70421619D01*
X62611129Y-70231129D01*
X62801619Y-70074799D01*
X63018947Y-69958634D01*
X63254761Y-69887101D01*
X63438543Y-69869000D01*
X63561457Y-69869000D01*
X63745239Y-69887101D01*
X63745239Y-69887101D01*
G37*
G36*
X59471000Y-72123500D02*
G01*
X57369000Y-72123500D01*
X57369000Y-70116500D01*
X59471000Y-70116500D01*
X59471000Y-72123500D01*
X59471000Y-72123500D01*
G37*
G36*
X91221000Y-72123500D02*
G01*
X89119000Y-72123500D01*
X89119000Y-70116500D01*
X91221000Y-70116500D01*
X91221000Y-72123500D01*
X91221000Y-72123500D01*
G37*
G36*
X78065170Y-65587879D02*
G01*
X78359868Y-65646498D01*
X78915067Y-65876469D01*
X79159808Y-66040000D01*
X79414733Y-66210335D01*
X79839665Y-66635267D01*
X79918341Y-66753015D01*
X80173531Y-67134933D01*
X80403502Y-67690132D01*
X80520740Y-68279528D01*
X80520740Y-68880472D01*
X80403502Y-69469868D01*
X80173531Y-70025067D01*
X79982565Y-70310867D01*
X79839665Y-70524733D01*
X79414733Y-70949665D01*
X79200867Y-71092565D01*
X78915067Y-71283531D01*
X78359868Y-71513502D01*
X78065170Y-71572121D01*
X77770473Y-71630740D01*
X77169527Y-71630740D01*
X76874830Y-71572121D01*
X76580132Y-71513502D01*
X76024933Y-71283531D01*
X75739133Y-71092565D01*
X75525267Y-70949665D01*
X75100335Y-70524733D01*
X74957435Y-70310867D01*
X74766469Y-70025067D01*
X74536498Y-69469868D01*
X74419260Y-68880472D01*
X74419260Y-68279528D01*
X74536498Y-67690132D01*
X74766469Y-67134933D01*
X75021659Y-66753015D01*
X75100335Y-66635267D01*
X75525267Y-66210335D01*
X75780192Y-66040000D01*
X76024933Y-65876469D01*
X76580132Y-65646498D01*
X76874830Y-65587879D01*
X77169527Y-65529260D01*
X77770473Y-65529260D01*
X78065170Y-65587879D01*
X78065170Y-65587879D01*
G37*
G36*
X70445170Y-65587879D02*
G01*
X70739868Y-65646498D01*
X71295067Y-65876469D01*
X71539808Y-66040000D01*
X71794733Y-66210335D01*
X72219665Y-66635267D01*
X72298341Y-66753015D01*
X72553531Y-67134933D01*
X72783502Y-67690132D01*
X72900740Y-68279528D01*
X72900740Y-68880472D01*
X72783502Y-69469868D01*
X72553531Y-70025067D01*
X72362565Y-70310867D01*
X72219665Y-70524733D01*
X71794733Y-70949665D01*
X71580867Y-71092565D01*
X71295067Y-71283531D01*
X70739868Y-71513502D01*
X70445170Y-71572121D01*
X70150473Y-71630740D01*
X69549527Y-71630740D01*
X69254830Y-71572121D01*
X68960132Y-71513502D01*
X68404933Y-71283531D01*
X68119133Y-71092565D01*
X67905267Y-70949665D01*
X67480335Y-70524733D01*
X67337435Y-70310867D01*
X67146469Y-70025067D01*
X66916498Y-69469868D01*
X66799260Y-68880472D01*
X66799260Y-68279528D01*
X66916498Y-67690132D01*
X67146469Y-67134933D01*
X67401659Y-66753015D01*
X67480335Y-66635267D01*
X67905267Y-66210335D01*
X68160192Y-66040000D01*
X68404933Y-65876469D01*
X68960132Y-65646498D01*
X69254830Y-65587879D01*
X69549527Y-65529260D01*
X70150473Y-65529260D01*
X70445170Y-65587879D01*
X70445170Y-65587879D01*
G37*
G36*
X90315936Y-67581340D02*
G01*
X90414220Y-67591020D01*
X90603381Y-67648401D01*
X90777712Y-67741583D01*
X90930515Y-67866985D01*
X91055917Y-68019788D01*
X91149099Y-68194119D01*
X91206480Y-68383280D01*
X91225855Y-68580000D01*
X91206480Y-68776720D01*
X91149099Y-68965881D01*
X91055917Y-69140212D01*
X90930515Y-69293015D01*
X90777712Y-69418417D01*
X90603381Y-69511599D01*
X90414220Y-69568980D01*
X90315936Y-69578660D01*
X90266795Y-69583500D01*
X90073205Y-69583500D01*
X90024064Y-69578660D01*
X89925780Y-69568980D01*
X89736619Y-69511599D01*
X89562288Y-69418417D01*
X89409485Y-69293015D01*
X89284083Y-69140212D01*
X89190901Y-68965881D01*
X89133520Y-68776720D01*
X89114145Y-68580000D01*
X89133520Y-68383280D01*
X89190901Y-68194119D01*
X89284083Y-68019788D01*
X89409485Y-67866985D01*
X89562288Y-67741583D01*
X89736619Y-67648401D01*
X89925780Y-67591020D01*
X90024064Y-67581340D01*
X90073205Y-67576500D01*
X90266795Y-67576500D01*
X90315936Y-67581340D01*
X90315936Y-67581340D01*
G37*
G36*
X58565936Y-67581340D02*
G01*
X58664220Y-67591020D01*
X58853381Y-67648401D01*
X59027712Y-67741583D01*
X59180515Y-67866985D01*
X59305917Y-68019788D01*
X59399099Y-68194119D01*
X59456480Y-68383280D01*
X59475855Y-68580000D01*
X59456480Y-68776720D01*
X59399099Y-68965881D01*
X59305917Y-69140212D01*
X59180515Y-69293015D01*
X59027712Y-69418417D01*
X58853381Y-69511599D01*
X58664220Y-69568980D01*
X58565936Y-69578660D01*
X58516795Y-69583500D01*
X58323205Y-69583500D01*
X58274064Y-69578660D01*
X58175780Y-69568980D01*
X57986619Y-69511599D01*
X57812288Y-69418417D01*
X57659485Y-69293015D01*
X57534083Y-69140212D01*
X57440901Y-68965881D01*
X57383520Y-68776720D01*
X57364145Y-68580000D01*
X57383520Y-68383280D01*
X57440901Y-68194119D01*
X57534083Y-68019788D01*
X57659485Y-67866985D01*
X57812288Y-67741583D01*
X57986619Y-67648401D01*
X58175780Y-67591020D01*
X58274064Y-67581340D01*
X58323205Y-67576500D01*
X58516795Y-67576500D01*
X58565936Y-67581340D01*
X58565936Y-67581340D01*
G37*
G36*
X64751000Y-68561000D02*
G01*
X62249000Y-68561000D01*
X62249000Y-66059000D01*
X64751000Y-66059000D01*
X64751000Y-68561000D01*
X64751000Y-68561000D01*
G37*
G36*
X85071000Y-68561000D02*
G01*
X82569000Y-68561000D01*
X82569000Y-66059000D01*
X85071000Y-66059000D01*
X85071000Y-68561000D01*
X85071000Y-68561000D01*
G37*
G36*
X90315936Y-65041340D02*
G01*
X90414220Y-65051020D01*
X90603381Y-65108401D01*
X90777712Y-65201583D01*
X90930515Y-65326985D01*
X91055917Y-65479788D01*
X91062519Y-65492140D01*
X91145026Y-65646498D01*
X91149099Y-65654119D01*
X91206480Y-65843280D01*
X91225855Y-66040000D01*
X91206480Y-66236720D01*
X91149099Y-66425881D01*
X91055917Y-66600212D01*
X90930515Y-66753015D01*
X90777712Y-66878417D01*
X90603381Y-66971599D01*
X90414220Y-67028980D01*
X90315936Y-67038660D01*
X90266795Y-67043500D01*
X90073205Y-67043500D01*
X90024064Y-67038660D01*
X89925780Y-67028980D01*
X89736619Y-66971599D01*
X89562288Y-66878417D01*
X89409485Y-66753015D01*
X89284083Y-66600212D01*
X89190901Y-66425881D01*
X89133520Y-66236720D01*
X89114145Y-66040000D01*
X89133520Y-65843280D01*
X89190901Y-65654119D01*
X89194975Y-65646498D01*
X89277481Y-65492140D01*
X89284083Y-65479788D01*
X89409485Y-65326985D01*
X89562288Y-65201583D01*
X89736619Y-65108401D01*
X89925780Y-65051020D01*
X90024064Y-65041340D01*
X90073205Y-65036500D01*
X90266795Y-65036500D01*
X90315936Y-65041340D01*
X90315936Y-65041340D01*
G37*
G36*
X58565936Y-65041340D02*
G01*
X58664220Y-65051020D01*
X58853381Y-65108401D01*
X59027712Y-65201583D01*
X59180515Y-65326985D01*
X59305917Y-65479788D01*
X59312519Y-65492140D01*
X59395026Y-65646498D01*
X59399099Y-65654119D01*
X59456480Y-65843280D01*
X59475855Y-66040000D01*
X59456480Y-66236720D01*
X59399099Y-66425881D01*
X59305917Y-66600212D01*
X59180515Y-66753015D01*
X59027712Y-66878417D01*
X58853381Y-66971599D01*
X58664220Y-67028980D01*
X58565936Y-67038660D01*
X58516795Y-67043500D01*
X58323205Y-67043500D01*
X58274064Y-67038660D01*
X58175780Y-67028980D01*
X57986619Y-66971599D01*
X57812288Y-66878417D01*
X57659485Y-66753015D01*
X57534083Y-66600212D01*
X57440901Y-66425881D01*
X57383520Y-66236720D01*
X57364145Y-66040000D01*
X57383520Y-65843280D01*
X57440901Y-65654119D01*
X57444975Y-65646498D01*
X57527481Y-65492140D01*
X57534083Y-65479788D01*
X57659485Y-65326985D01*
X57812288Y-65201583D01*
X57986619Y-65108401D01*
X58175780Y-65051020D01*
X58274064Y-65041340D01*
X58323205Y-65036500D01*
X58516795Y-65036500D01*
X58565936Y-65041340D01*
X58565936Y-65041340D01*
G37*
G36*
X53559059Y-64047860D02*
G01*
X53695732Y-64104472D01*
X53818735Y-64186660D01*
X53923340Y-64291265D01*
X54005528Y-64414268D01*
X54062140Y-64550941D01*
X54091000Y-64696033D01*
X54091000Y-64843967D01*
X54062140Y-64989059D01*
X54005528Y-65125732D01*
X53923340Y-65248735D01*
X53818735Y-65353340D01*
X53695732Y-65435528D01*
X53695731Y-65435529D01*
X53695730Y-65435529D01*
X53559059Y-65492140D01*
X53413968Y-65521000D01*
X53266032Y-65521000D01*
X53120941Y-65492140D01*
X52984270Y-65435529D01*
X52984269Y-65435529D01*
X52984268Y-65435528D01*
X52861265Y-65353340D01*
X52756660Y-65248735D01*
X52674472Y-65125732D01*
X52617860Y-64989059D01*
X52589000Y-64843967D01*
X52589000Y-64696033D01*
X52617860Y-64550941D01*
X52674472Y-64414268D01*
X52756660Y-64291265D01*
X52861265Y-64186660D01*
X52984268Y-64104472D01*
X53120941Y-64047860D01*
X53266032Y-64019000D01*
X53413968Y-64019000D01*
X53559059Y-64047860D01*
X53559059Y-64047860D01*
G37*
G36*
X94199059Y-64047860D02*
G01*
X94335732Y-64104472D01*
X94458735Y-64186660D01*
X94563340Y-64291265D01*
X94645528Y-64414268D01*
X94702140Y-64550941D01*
X94731000Y-64696033D01*
X94731000Y-64843967D01*
X94702140Y-64989059D01*
X94645528Y-65125732D01*
X94563340Y-65248735D01*
X94458735Y-65353340D01*
X94335732Y-65435528D01*
X94335731Y-65435529D01*
X94335730Y-65435529D01*
X94199059Y-65492140D01*
X94053968Y-65521000D01*
X93906032Y-65521000D01*
X93760941Y-65492140D01*
X93624270Y-65435529D01*
X93624269Y-65435529D01*
X93624268Y-65435528D01*
X93501265Y-65353340D01*
X93396660Y-65248735D01*
X93314472Y-65125732D01*
X93257860Y-64989059D01*
X93229000Y-64843967D01*
X93229000Y-64696033D01*
X93257860Y-64550941D01*
X93314472Y-64414268D01*
X93396660Y-64291265D01*
X93501265Y-64186660D01*
X93624268Y-64104472D01*
X93760941Y-64047860D01*
X93906032Y-64019000D01*
X94053968Y-64019000D01*
X94199059Y-64047860D01*
X94199059Y-64047860D01*
G37*
G36*
X89495170Y-52887879D02*
G01*
X89789868Y-52946498D01*
X90345067Y-53176469D01*
X90630867Y-53367435D01*
X90844733Y-53510335D01*
X91269665Y-53935267D01*
X91412565Y-54149133D01*
X91603531Y-54434933D01*
X91833502Y-54990132D01*
X91833502Y-54990133D01*
X91950740Y-55579527D01*
X91950740Y-56180473D01*
X91899317Y-56438995D01*
X91833502Y-56769868D01*
X91603531Y-57325067D01*
X91412565Y-57610867D01*
X91269665Y-57824733D01*
X90844733Y-58249665D01*
X90630867Y-58392565D01*
X90345067Y-58583531D01*
X89789868Y-58813502D01*
X89495170Y-58872121D01*
X89200473Y-58930740D01*
X88599527Y-58930740D01*
X88304830Y-58872121D01*
X88010132Y-58813502D01*
X87454933Y-58583531D01*
X87169133Y-58392565D01*
X86955267Y-58249665D01*
X86530335Y-57824733D01*
X86387435Y-57610867D01*
X86196469Y-57325067D01*
X85966498Y-56769868D01*
X85900683Y-56438995D01*
X85849260Y-56180473D01*
X85849260Y-55579527D01*
X85966498Y-54990133D01*
X85966498Y-54990132D01*
X86196469Y-54434933D01*
X86387435Y-54149133D01*
X86530335Y-53935267D01*
X86955267Y-53510335D01*
X87169133Y-53367435D01*
X87454933Y-53176469D01*
X88010132Y-52946498D01*
X88304830Y-52887879D01*
X88599527Y-52829260D01*
X89200473Y-52829260D01*
X89495170Y-52887879D01*
X89495170Y-52887879D01*
G37*
G36*
X71286823Y-56311313D02*
G01*
X71447242Y-56359976D01*
X71579906Y-56430886D01*
X71595078Y-56438996D01*
X71724659Y-56545341D01*
X71831004Y-56674922D01*
X71831005Y-56674924D01*
X71910024Y-56822758D01*
X71958687Y-56983177D01*
X71975117Y-57150000D01*
X71958687Y-57316823D01*
X71910024Y-57477242D01*
X71839114Y-57609906D01*
X71831004Y-57625078D01*
X71724659Y-57754659D01*
X71595078Y-57861004D01*
X71595076Y-57861005D01*
X71447242Y-57940024D01*
X71286823Y-57988687D01*
X71161804Y-58001000D01*
X71078196Y-58001000D01*
X70953177Y-57988687D01*
X70792758Y-57940024D01*
X70644924Y-57861005D01*
X70644922Y-57861004D01*
X70515341Y-57754659D01*
X70408996Y-57625078D01*
X70400886Y-57609906D01*
X70329976Y-57477242D01*
X70281313Y-57316823D01*
X70264883Y-57150000D01*
X70281313Y-56983177D01*
X70329976Y-56822758D01*
X70408995Y-56674924D01*
X70408996Y-56674922D01*
X70515341Y-56545341D01*
X70644922Y-56438996D01*
X70660094Y-56430886D01*
X70792758Y-56359976D01*
X70953177Y-56311313D01*
X71078196Y-56299000D01*
X71161804Y-56299000D01*
X71286823Y-56311313D01*
X71286823Y-56311313D01*
G37*
G36*
X63666823Y-56311313D02*
G01*
X63827242Y-56359976D01*
X63959906Y-56430886D01*
X63975078Y-56438996D01*
X64104659Y-56545341D01*
X64211004Y-56674922D01*
X64211005Y-56674924D01*
X64290024Y-56822758D01*
X64338687Y-56983177D01*
X64355117Y-57150000D01*
X64338687Y-57316823D01*
X64290024Y-57477242D01*
X64219114Y-57609906D01*
X64211004Y-57625078D01*
X64104659Y-57754659D01*
X63975078Y-57861004D01*
X63975076Y-57861005D01*
X63827242Y-57940024D01*
X63666823Y-57988687D01*
X63541804Y-58001000D01*
X63458196Y-58001000D01*
X63333177Y-57988687D01*
X63172758Y-57940024D01*
X63024924Y-57861005D01*
X63024922Y-57861004D01*
X62895341Y-57754659D01*
X62788996Y-57625078D01*
X62780886Y-57609906D01*
X62709976Y-57477242D01*
X62661313Y-57316823D01*
X62644883Y-57150000D01*
X62661313Y-56983177D01*
X62709976Y-56822758D01*
X62788995Y-56674924D01*
X62788996Y-56674922D01*
X62895341Y-56545341D01*
X63024922Y-56438996D01*
X63040094Y-56430886D01*
X63172758Y-56359976D01*
X63333177Y-56311313D01*
X63458196Y-56299000D01*
X63541804Y-56299000D01*
X63666823Y-56311313D01*
X63666823Y-56311313D01*
G37*
G36*
X68746823Y-56311313D02*
G01*
X68907242Y-56359976D01*
X69039906Y-56430886D01*
X69055078Y-56438996D01*
X69184659Y-56545341D01*
X69291004Y-56674922D01*
X69291005Y-56674924D01*
X69370024Y-56822758D01*
X69418687Y-56983177D01*
X69435117Y-57150000D01*
X69418687Y-57316823D01*
X69370024Y-57477242D01*
X69299114Y-57609906D01*
X69291004Y-57625078D01*
X69184659Y-57754659D01*
X69055078Y-57861004D01*
X69055076Y-57861005D01*
X68907242Y-57940024D01*
X68746823Y-57988687D01*
X68621804Y-58001000D01*
X68538196Y-58001000D01*
X68413177Y-57988687D01*
X68252758Y-57940024D01*
X68104924Y-57861005D01*
X68104922Y-57861004D01*
X67975341Y-57754659D01*
X67868996Y-57625078D01*
X67860886Y-57609906D01*
X67789976Y-57477242D01*
X67741313Y-57316823D01*
X67724883Y-57150000D01*
X67741313Y-56983177D01*
X67789976Y-56822758D01*
X67868995Y-56674924D01*
X67868996Y-56674922D01*
X67975341Y-56545341D01*
X68104922Y-56438996D01*
X68120094Y-56430886D01*
X68252758Y-56359976D01*
X68413177Y-56311313D01*
X68538196Y-56299000D01*
X68621804Y-56299000D01*
X68746823Y-56311313D01*
X68746823Y-56311313D01*
G37*
G36*
X66206823Y-56311313D02*
G01*
X66367242Y-56359976D01*
X66499906Y-56430886D01*
X66515078Y-56438996D01*
X66644659Y-56545341D01*
X66751004Y-56674922D01*
X66751005Y-56674924D01*
X66830024Y-56822758D01*
X66878687Y-56983177D01*
X66895117Y-57150000D01*
X66878687Y-57316823D01*
X66830024Y-57477242D01*
X66759114Y-57609906D01*
X66751004Y-57625078D01*
X66644659Y-57754659D01*
X66515078Y-57861004D01*
X66515076Y-57861005D01*
X66367242Y-57940024D01*
X66206823Y-57988687D01*
X66081804Y-58001000D01*
X65998196Y-58001000D01*
X65873177Y-57988687D01*
X65712758Y-57940024D01*
X65564924Y-57861005D01*
X65564922Y-57861004D01*
X65435341Y-57754659D01*
X65328996Y-57625078D01*
X65320886Y-57609906D01*
X65249976Y-57477242D01*
X65201313Y-57316823D01*
X65184883Y-57150000D01*
X65201313Y-56983177D01*
X65249976Y-56822758D01*
X65328995Y-56674924D01*
X65328996Y-56674922D01*
X65435341Y-56545341D01*
X65564922Y-56438996D01*
X65580094Y-56430886D01*
X65712758Y-56359976D01*
X65873177Y-56311313D01*
X65998196Y-56299000D01*
X66081804Y-56299000D01*
X66206823Y-56311313D01*
X66206823Y-56311313D01*
G37*
G36*
X58586823Y-56311313D02*
G01*
X58747242Y-56359976D01*
X58879906Y-56430886D01*
X58895078Y-56438996D01*
X59024659Y-56545341D01*
X59131004Y-56674922D01*
X59131005Y-56674924D01*
X59210024Y-56822758D01*
X59258687Y-56983177D01*
X59275117Y-57150000D01*
X59258687Y-57316823D01*
X59210024Y-57477242D01*
X59139114Y-57609906D01*
X59131004Y-57625078D01*
X59024659Y-57754659D01*
X58895078Y-57861004D01*
X58895076Y-57861005D01*
X58747242Y-57940024D01*
X58586823Y-57988687D01*
X58461804Y-58001000D01*
X58378196Y-58001000D01*
X58253177Y-57988687D01*
X58092758Y-57940024D01*
X57944924Y-57861005D01*
X57944922Y-57861004D01*
X57815341Y-57754659D01*
X57708996Y-57625078D01*
X57700886Y-57609906D01*
X57629976Y-57477242D01*
X57581313Y-57316823D01*
X57564883Y-57150000D01*
X57581313Y-56983177D01*
X57629976Y-56822758D01*
X57708995Y-56674924D01*
X57708996Y-56674922D01*
X57815341Y-56545341D01*
X57944922Y-56438996D01*
X57960094Y-56430886D01*
X58092758Y-56359976D01*
X58253177Y-56311313D01*
X58378196Y-56299000D01*
X58461804Y-56299000D01*
X58586823Y-56311313D01*
X58586823Y-56311313D01*
G37*
G36*
X56046823Y-56311313D02*
G01*
X56207242Y-56359976D01*
X56339906Y-56430886D01*
X56355078Y-56438996D01*
X56484659Y-56545341D01*
X56591004Y-56674922D01*
X56591005Y-56674924D01*
X56670024Y-56822758D01*
X56718687Y-56983177D01*
X56735117Y-57150000D01*
X56718687Y-57316823D01*
X56670024Y-57477242D01*
X56599114Y-57609906D01*
X56591004Y-57625078D01*
X56484659Y-57754659D01*
X56355078Y-57861004D01*
X56355076Y-57861005D01*
X56207242Y-57940024D01*
X56046823Y-57988687D01*
X55921804Y-58001000D01*
X55838196Y-58001000D01*
X55713177Y-57988687D01*
X55552758Y-57940024D01*
X55404924Y-57861005D01*
X55404922Y-57861004D01*
X55275341Y-57754659D01*
X55168996Y-57625078D01*
X55160886Y-57609906D01*
X55089976Y-57477242D01*
X55041313Y-57316823D01*
X55024883Y-57150000D01*
X55041313Y-56983177D01*
X55089976Y-56822758D01*
X55168995Y-56674924D01*
X55168996Y-56674922D01*
X55275341Y-56545341D01*
X55404922Y-56438996D01*
X55420094Y-56430886D01*
X55552758Y-56359976D01*
X55713177Y-56311313D01*
X55838196Y-56299000D01*
X55921804Y-56299000D01*
X56046823Y-56311313D01*
X56046823Y-56311313D01*
G37*
G36*
X54191000Y-58001000D02*
G01*
X52489000Y-58001000D01*
X52489000Y-56299000D01*
X54191000Y-56299000D01*
X54191000Y-58001000D01*
X54191000Y-58001000D01*
G37*
G36*
X61126823Y-56311313D02*
G01*
X61287242Y-56359976D01*
X61419906Y-56430886D01*
X61435078Y-56438996D01*
X61564659Y-56545341D01*
X61671004Y-56674922D01*
X61671005Y-56674924D01*
X61750024Y-56822758D01*
X61798687Y-56983177D01*
X61815117Y-57150000D01*
X61798687Y-57316823D01*
X61750024Y-57477242D01*
X61679114Y-57609906D01*
X61671004Y-57625078D01*
X61564659Y-57754659D01*
X61435078Y-57861004D01*
X61435076Y-57861005D01*
X61287242Y-57940024D01*
X61126823Y-57988687D01*
X61001804Y-58001000D01*
X60918196Y-58001000D01*
X60793177Y-57988687D01*
X60632758Y-57940024D01*
X60484924Y-57861005D01*
X60484922Y-57861004D01*
X60355341Y-57754659D01*
X60248996Y-57625078D01*
X60240886Y-57609906D01*
X60169976Y-57477242D01*
X60121313Y-57316823D01*
X60104883Y-57150000D01*
X60121313Y-56983177D01*
X60169976Y-56822758D01*
X60248995Y-56674924D01*
X60248996Y-56674922D01*
X60355341Y-56545341D01*
X60484922Y-56438996D01*
X60500094Y-56430886D01*
X60632758Y-56359976D01*
X60793177Y-56311313D01*
X60918196Y-56299000D01*
X61001804Y-56299000D01*
X61126823Y-56311313D01*
X61126823Y-56311313D01*
G37*
G36*
X56046823Y-48691313D02*
G01*
X56207242Y-48739976D01*
X56339906Y-48810886D01*
X56355078Y-48818996D01*
X56484659Y-48925341D01*
X56591004Y-49054922D01*
X56591005Y-49054924D01*
X56670024Y-49202758D01*
X56718687Y-49363177D01*
X56735117Y-49530000D01*
X56718687Y-49696823D01*
X56670024Y-49857242D01*
X56599114Y-49989906D01*
X56591004Y-50005078D01*
X56484659Y-50134659D01*
X56355078Y-50241004D01*
X56355076Y-50241005D01*
X56207242Y-50320024D01*
X56046823Y-50368687D01*
X55921804Y-50381000D01*
X55838196Y-50381000D01*
X55713177Y-50368687D01*
X55552758Y-50320024D01*
X55404924Y-50241005D01*
X55404922Y-50241004D01*
X55275341Y-50134659D01*
X55168996Y-50005078D01*
X55160886Y-49989906D01*
X55089976Y-49857242D01*
X55041313Y-49696823D01*
X55024883Y-49530000D01*
X55041313Y-49363177D01*
X55089976Y-49202758D01*
X55168995Y-49054924D01*
X55168996Y-49054922D01*
X55275341Y-48925341D01*
X55404922Y-48818996D01*
X55420094Y-48810886D01*
X55552758Y-48739976D01*
X55713177Y-48691313D01*
X55838196Y-48679000D01*
X55921804Y-48679000D01*
X56046823Y-48691313D01*
X56046823Y-48691313D01*
G37*
G36*
X53506823Y-48691313D02*
G01*
X53667242Y-48739976D01*
X53799906Y-48810886D01*
X53815078Y-48818996D01*
X53944659Y-48925341D01*
X54051004Y-49054922D01*
X54051005Y-49054924D01*
X54130024Y-49202758D01*
X54178687Y-49363177D01*
X54195117Y-49530000D01*
X54178687Y-49696823D01*
X54130024Y-49857242D01*
X54059114Y-49989906D01*
X54051004Y-50005078D01*
X53944659Y-50134659D01*
X53815078Y-50241004D01*
X53815076Y-50241005D01*
X53667242Y-50320024D01*
X53506823Y-50368687D01*
X53381804Y-50381000D01*
X53298196Y-50381000D01*
X53173177Y-50368687D01*
X53012758Y-50320024D01*
X52864924Y-50241005D01*
X52864922Y-50241004D01*
X52735341Y-50134659D01*
X52628996Y-50005078D01*
X52620886Y-49989906D01*
X52549976Y-49857242D01*
X52501313Y-49696823D01*
X52484883Y-49530000D01*
X52501313Y-49363177D01*
X52549976Y-49202758D01*
X52628995Y-49054924D01*
X52628996Y-49054922D01*
X52735341Y-48925341D01*
X52864922Y-48818996D01*
X52880094Y-48810886D01*
X53012758Y-48739976D01*
X53173177Y-48691313D01*
X53298196Y-48679000D01*
X53381804Y-48679000D01*
X53506823Y-48691313D01*
X53506823Y-48691313D01*
G37*
G36*
X61126823Y-48691313D02*
G01*
X61287242Y-48739976D01*
X61419906Y-48810886D01*
X61435078Y-48818996D01*
X61564659Y-48925341D01*
X61671004Y-49054922D01*
X61671005Y-49054924D01*
X61750024Y-49202758D01*
X61798687Y-49363177D01*
X61815117Y-49530000D01*
X61798687Y-49696823D01*
X61750024Y-49857242D01*
X61679114Y-49989906D01*
X61671004Y-50005078D01*
X61564659Y-50134659D01*
X61435078Y-50241004D01*
X61435076Y-50241005D01*
X61287242Y-50320024D01*
X61126823Y-50368687D01*
X61001804Y-50381000D01*
X60918196Y-50381000D01*
X60793177Y-50368687D01*
X60632758Y-50320024D01*
X60484924Y-50241005D01*
X60484922Y-50241004D01*
X60355341Y-50134659D01*
X60248996Y-50005078D01*
X60240886Y-49989906D01*
X60169976Y-49857242D01*
X60121313Y-49696823D01*
X60104883Y-49530000D01*
X60121313Y-49363177D01*
X60169976Y-49202758D01*
X60248995Y-49054924D01*
X60248996Y-49054922D01*
X60355341Y-48925341D01*
X60484922Y-48818996D01*
X60500094Y-48810886D01*
X60632758Y-48739976D01*
X60793177Y-48691313D01*
X60918196Y-48679000D01*
X61001804Y-48679000D01*
X61126823Y-48691313D01*
X61126823Y-48691313D01*
G37*
G36*
X58586823Y-48691313D02*
G01*
X58747242Y-48739976D01*
X58879906Y-48810886D01*
X58895078Y-48818996D01*
X59024659Y-48925341D01*
X59131004Y-49054922D01*
X59131005Y-49054924D01*
X59210024Y-49202758D01*
X59258687Y-49363177D01*
X59275117Y-49530000D01*
X59258687Y-49696823D01*
X59210024Y-49857242D01*
X59139114Y-49989906D01*
X59131004Y-50005078D01*
X59024659Y-50134659D01*
X58895078Y-50241004D01*
X58895076Y-50241005D01*
X58747242Y-50320024D01*
X58586823Y-50368687D01*
X58461804Y-50381000D01*
X58378196Y-50381000D01*
X58253177Y-50368687D01*
X58092758Y-50320024D01*
X57944924Y-50241005D01*
X57944922Y-50241004D01*
X57815341Y-50134659D01*
X57708996Y-50005078D01*
X57700886Y-49989906D01*
X57629976Y-49857242D01*
X57581313Y-49696823D01*
X57564883Y-49530000D01*
X57581313Y-49363177D01*
X57629976Y-49202758D01*
X57708995Y-49054924D01*
X57708996Y-49054922D01*
X57815341Y-48925341D01*
X57944922Y-48818996D01*
X57960094Y-48810886D01*
X58092758Y-48739976D01*
X58253177Y-48691313D01*
X58378196Y-48679000D01*
X58461804Y-48679000D01*
X58586823Y-48691313D01*
X58586823Y-48691313D01*
G37*
G36*
X63666823Y-48691313D02*
G01*
X63827242Y-48739976D01*
X63959906Y-48810886D01*
X63975078Y-48818996D01*
X64104659Y-48925341D01*
X64211004Y-49054922D01*
X64211005Y-49054924D01*
X64290024Y-49202758D01*
X64338687Y-49363177D01*
X64355117Y-49530000D01*
X64338687Y-49696823D01*
X64290024Y-49857242D01*
X64219114Y-49989906D01*
X64211004Y-50005078D01*
X64104659Y-50134659D01*
X63975078Y-50241004D01*
X63975076Y-50241005D01*
X63827242Y-50320024D01*
X63666823Y-50368687D01*
X63541804Y-50381000D01*
X63458196Y-50381000D01*
X63333177Y-50368687D01*
X63172758Y-50320024D01*
X63024924Y-50241005D01*
X63024922Y-50241004D01*
X62895341Y-50134659D01*
X62788996Y-50005078D01*
X62780886Y-49989906D01*
X62709976Y-49857242D01*
X62661313Y-49696823D01*
X62644883Y-49530000D01*
X62661313Y-49363177D01*
X62709976Y-49202758D01*
X62788995Y-49054924D01*
X62788996Y-49054922D01*
X62895341Y-48925341D01*
X63024922Y-48818996D01*
X63040094Y-48810886D01*
X63172758Y-48739976D01*
X63333177Y-48691313D01*
X63458196Y-48679000D01*
X63541804Y-48679000D01*
X63666823Y-48691313D01*
X63666823Y-48691313D01*
G37*
G36*
X71286823Y-48691313D02*
G01*
X71447242Y-48739976D01*
X71579906Y-48810886D01*
X71595078Y-48818996D01*
X71724659Y-48925341D01*
X71831004Y-49054922D01*
X71831005Y-49054924D01*
X71910024Y-49202758D01*
X71958687Y-49363177D01*
X71975117Y-49530000D01*
X71958687Y-49696823D01*
X71910024Y-49857242D01*
X71839114Y-49989906D01*
X71831004Y-50005078D01*
X71724659Y-50134659D01*
X71595078Y-50241004D01*
X71595076Y-50241005D01*
X71447242Y-50320024D01*
X71286823Y-50368687D01*
X71161804Y-50381000D01*
X71078196Y-50381000D01*
X70953177Y-50368687D01*
X70792758Y-50320024D01*
X70644924Y-50241005D01*
X70644922Y-50241004D01*
X70515341Y-50134659D01*
X70408996Y-50005078D01*
X70400886Y-49989906D01*
X70329976Y-49857242D01*
X70281313Y-49696823D01*
X70264883Y-49530000D01*
X70281313Y-49363177D01*
X70329976Y-49202758D01*
X70408995Y-49054924D01*
X70408996Y-49054922D01*
X70515341Y-48925341D01*
X70644922Y-48818996D01*
X70660094Y-48810886D01*
X70792758Y-48739976D01*
X70953177Y-48691313D01*
X71078196Y-48679000D01*
X71161804Y-48679000D01*
X71286823Y-48691313D01*
X71286823Y-48691313D01*
G37*
G36*
X68746823Y-48691313D02*
G01*
X68907242Y-48739976D01*
X69039906Y-48810886D01*
X69055078Y-48818996D01*
X69184659Y-48925341D01*
X69291004Y-49054922D01*
X69291005Y-49054924D01*
X69370024Y-49202758D01*
X69418687Y-49363177D01*
X69435117Y-49530000D01*
X69418687Y-49696823D01*
X69370024Y-49857242D01*
X69299114Y-49989906D01*
X69291004Y-50005078D01*
X69184659Y-50134659D01*
X69055078Y-50241004D01*
X69055076Y-50241005D01*
X68907242Y-50320024D01*
X68746823Y-50368687D01*
X68621804Y-50381000D01*
X68538196Y-50381000D01*
X68413177Y-50368687D01*
X68252758Y-50320024D01*
X68104924Y-50241005D01*
X68104922Y-50241004D01*
X67975341Y-50134659D01*
X67868996Y-50005078D01*
X67860886Y-49989906D01*
X67789976Y-49857242D01*
X67741313Y-49696823D01*
X67724883Y-49530000D01*
X67741313Y-49363177D01*
X67789976Y-49202758D01*
X67868995Y-49054924D01*
X67868996Y-49054922D01*
X67975341Y-48925341D01*
X68104922Y-48818996D01*
X68120094Y-48810886D01*
X68252758Y-48739976D01*
X68413177Y-48691313D01*
X68538196Y-48679000D01*
X68621804Y-48679000D01*
X68746823Y-48691313D01*
X68746823Y-48691313D01*
G37*
G36*
X66206823Y-48691313D02*
G01*
X66367242Y-48739976D01*
X66499906Y-48810886D01*
X66515078Y-48818996D01*
X66644659Y-48925341D01*
X66751004Y-49054922D01*
X66751005Y-49054924D01*
X66830024Y-49202758D01*
X66878687Y-49363177D01*
X66895117Y-49530000D01*
X66878687Y-49696823D01*
X66830024Y-49857242D01*
X66759114Y-49989906D01*
X66751004Y-50005078D01*
X66644659Y-50134659D01*
X66515078Y-50241004D01*
X66515076Y-50241005D01*
X66367242Y-50320024D01*
X66206823Y-50368687D01*
X66081804Y-50381000D01*
X65998196Y-50381000D01*
X65873177Y-50368687D01*
X65712758Y-50320024D01*
X65564924Y-50241005D01*
X65564922Y-50241004D01*
X65435341Y-50134659D01*
X65328996Y-50005078D01*
X65320886Y-49989906D01*
X65249976Y-49857242D01*
X65201313Y-49696823D01*
X65184883Y-49530000D01*
X65201313Y-49363177D01*
X65249976Y-49202758D01*
X65328995Y-49054924D01*
X65328996Y-49054922D01*
X65435341Y-48925341D01*
X65564922Y-48818996D01*
X65580094Y-48810886D01*
X65712758Y-48739976D01*
X65873177Y-48691313D01*
X65998196Y-48679000D01*
X66081804Y-48679000D01*
X66206823Y-48691313D01*
X66206823Y-48691313D01*
G37*
G36*
X51395170Y-40187879D02*
G01*
X51689868Y-40246498D01*
X52245067Y-40476469D01*
X52530867Y-40667435D01*
X52744733Y-40810335D01*
X53169665Y-41235267D01*
X53312565Y-41449133D01*
X53503531Y-41734933D01*
X53733502Y-42290132D01*
X53850740Y-42879528D01*
X53850740Y-43480472D01*
X53733502Y-44069868D01*
X53503531Y-44625067D01*
X53312565Y-44910867D01*
X53169665Y-45124733D01*
X52744733Y-45549665D01*
X52530867Y-45692565D01*
X52245067Y-45883531D01*
X51689868Y-46113502D01*
X51395170Y-46172121D01*
X51100473Y-46230740D01*
X50499527Y-46230740D01*
X50204830Y-46172121D01*
X49910132Y-46113502D01*
X49354933Y-45883531D01*
X49069133Y-45692565D01*
X48855267Y-45549665D01*
X48430335Y-45124733D01*
X48287435Y-44910867D01*
X48096469Y-44625067D01*
X47866498Y-44069868D01*
X47749260Y-43480472D01*
X47749260Y-42879528D01*
X47866498Y-42290132D01*
X48096469Y-41734933D01*
X48287435Y-41449133D01*
X48430335Y-41235267D01*
X48855267Y-40810335D01*
X49069133Y-40667435D01*
X49354933Y-40476469D01*
X49910132Y-40246498D01*
X50204830Y-40187879D01*
X50499527Y-40129260D01*
X51100473Y-40129260D01*
X51395170Y-40187879D01*
X51395170Y-40187879D01*
G37*
G36*
X59015170Y-40187879D02*
G01*
X59309868Y-40246498D01*
X59865067Y-40476469D01*
X60150867Y-40667435D01*
X60364733Y-40810335D01*
X60789665Y-41235267D01*
X60932565Y-41449133D01*
X61123531Y-41734933D01*
X61353502Y-42290132D01*
X61470740Y-42879528D01*
X61470740Y-43480472D01*
X61353502Y-44069868D01*
X61123531Y-44625067D01*
X60932565Y-44910867D01*
X60789665Y-45124733D01*
X60364733Y-45549665D01*
X60150867Y-45692565D01*
X59865067Y-45883531D01*
X59309868Y-46113502D01*
X59015170Y-46172121D01*
X58720473Y-46230740D01*
X58119527Y-46230740D01*
X57824830Y-46172121D01*
X57530132Y-46113502D01*
X56974933Y-45883531D01*
X56689133Y-45692565D01*
X56475267Y-45549665D01*
X56050335Y-45124733D01*
X55907435Y-44910867D01*
X55716469Y-44625067D01*
X55486498Y-44069868D01*
X55369260Y-43480472D01*
X55369260Y-42879528D01*
X55486498Y-42290132D01*
X55716469Y-41734933D01*
X55907435Y-41449133D01*
X56050335Y-41235267D01*
X56475267Y-40810335D01*
X56689133Y-40667435D01*
X56974933Y-40476469D01*
X57530132Y-40246498D01*
X57824830Y-40187879D01*
X58119527Y-40129260D01*
X58720473Y-40129260D01*
X59015170Y-40187879D01*
X59015170Y-40187879D01*
G37*
G36*
X66635170Y-40187879D02*
G01*
X66929868Y-40246498D01*
X67485067Y-40476469D01*
X67770867Y-40667435D01*
X67984733Y-40810335D01*
X68409665Y-41235267D01*
X68552565Y-41449133D01*
X68743531Y-41734933D01*
X68973502Y-42290132D01*
X69090740Y-42879528D01*
X69090740Y-43480472D01*
X68973502Y-44069868D01*
X68743531Y-44625067D01*
X68552565Y-44910867D01*
X68409665Y-45124733D01*
X67984733Y-45549665D01*
X67770867Y-45692565D01*
X67485067Y-45883531D01*
X66929868Y-46113502D01*
X66635170Y-46172121D01*
X66340473Y-46230740D01*
X65739527Y-46230740D01*
X65444830Y-46172121D01*
X65150132Y-46113502D01*
X64594933Y-45883531D01*
X64309133Y-45692565D01*
X64095267Y-45549665D01*
X63670335Y-45124733D01*
X63527435Y-44910867D01*
X63336469Y-44625067D01*
X63106498Y-44069868D01*
X62989260Y-43480472D01*
X62989260Y-42879528D01*
X63106498Y-42290132D01*
X63336469Y-41734933D01*
X63527435Y-41449133D01*
X63670335Y-41235267D01*
X64095267Y-40810335D01*
X64309133Y-40667435D01*
X64594933Y-40476469D01*
X65150132Y-40246498D01*
X65444830Y-40187879D01*
X65739527Y-40129260D01*
X66340473Y-40129260D01*
X66635170Y-40187879D01*
X66635170Y-40187879D01*
G37*
G36*
X74255170Y-40187879D02*
G01*
X74549868Y-40246498D01*
X75105067Y-40476469D01*
X75390867Y-40667435D01*
X75604733Y-40810335D01*
X76029665Y-41235267D01*
X76172565Y-41449133D01*
X76363531Y-41734933D01*
X76593502Y-42290132D01*
X76710740Y-42879528D01*
X76710740Y-43480472D01*
X76593502Y-44069868D01*
X76363531Y-44625067D01*
X76172565Y-44910867D01*
X76029665Y-45124733D01*
X75604733Y-45549665D01*
X75390867Y-45692565D01*
X75105067Y-45883531D01*
X74549868Y-46113502D01*
X74255170Y-46172121D01*
X73960473Y-46230740D01*
X73359527Y-46230740D01*
X73064830Y-46172121D01*
X72770132Y-46113502D01*
X72214933Y-45883531D01*
X71929133Y-45692565D01*
X71715267Y-45549665D01*
X71290335Y-45124733D01*
X71147435Y-44910867D01*
X70956469Y-44625067D01*
X70726498Y-44069868D01*
X70609260Y-43480472D01*
X70609260Y-42879528D01*
X70726498Y-42290132D01*
X70956469Y-41734933D01*
X71147435Y-41449133D01*
X71290335Y-41235267D01*
X71715267Y-40810335D01*
X71929133Y-40667435D01*
X72214933Y-40476469D01*
X72770132Y-40246498D01*
X73064830Y-40187879D01*
X73359527Y-40129260D01*
X73960473Y-40129260D01*
X74255170Y-40187879D01*
X74255170Y-40187879D01*
G37*
G36*
X81875170Y-40187879D02*
G01*
X82169868Y-40246498D01*
X82725067Y-40476469D01*
X83010867Y-40667435D01*
X83224733Y-40810335D01*
X83649665Y-41235267D01*
X83792565Y-41449133D01*
X83983531Y-41734933D01*
X84213502Y-42290132D01*
X84330740Y-42879528D01*
X84330740Y-43480472D01*
X84213502Y-44069868D01*
X83983531Y-44625067D01*
X83792565Y-44910867D01*
X83649665Y-45124733D01*
X83224733Y-45549665D01*
X83010867Y-45692565D01*
X82725067Y-45883531D01*
X82169868Y-46113502D01*
X81875170Y-46172121D01*
X81580473Y-46230740D01*
X80979527Y-46230740D01*
X80684830Y-46172121D01*
X80390132Y-46113502D01*
X79834933Y-45883531D01*
X79549133Y-45692565D01*
X79335267Y-45549665D01*
X78910335Y-45124733D01*
X78767435Y-44910867D01*
X78576469Y-44625067D01*
X78346498Y-44069868D01*
X78229260Y-43480472D01*
X78229260Y-42879528D01*
X78346498Y-42290132D01*
X78576469Y-41734933D01*
X78767435Y-41449133D01*
X78910335Y-41235267D01*
X79335267Y-40810335D01*
X79549133Y-40667435D01*
X79834933Y-40476469D01*
X80390132Y-40246498D01*
X80684830Y-40187879D01*
X80979527Y-40129260D01*
X81580473Y-40129260D01*
X81875170Y-40187879D01*
X81875170Y-40187879D01*
G37*
G36*
X89495170Y-40187879D02*
G01*
X89789868Y-40246498D01*
X90345067Y-40476469D01*
X90630867Y-40667435D01*
X90844733Y-40810335D01*
X91269665Y-41235267D01*
X91412565Y-41449133D01*
X91603531Y-41734933D01*
X91833502Y-42290132D01*
X91950740Y-42879528D01*
X91950740Y-43480472D01*
X91833502Y-44069868D01*
X91603531Y-44625067D01*
X91412565Y-44910867D01*
X91269665Y-45124733D01*
X90844733Y-45549665D01*
X90630867Y-45692565D01*
X90345067Y-45883531D01*
X89789868Y-46113502D01*
X89495170Y-46172121D01*
X89200473Y-46230740D01*
X88599527Y-46230740D01*
X88304830Y-46172121D01*
X88010132Y-46113502D01*
X87454933Y-45883531D01*
X87169133Y-45692565D01*
X86955267Y-45549665D01*
X86530335Y-45124733D01*
X86387435Y-44910867D01*
X86196469Y-44625067D01*
X85966498Y-44069868D01*
X85849260Y-43480472D01*
X85849260Y-42879528D01*
X85966498Y-42290132D01*
X86196469Y-41734933D01*
X86387435Y-41449133D01*
X86530335Y-41235267D01*
X86955267Y-40810335D01*
X87169133Y-40667435D01*
X87454933Y-40476469D01*
X88010132Y-40246498D01*
X88304830Y-40187879D01*
X88599527Y-40129260D01*
X89200473Y-40129260D01*
X89495170Y-40187879D01*
X89495170Y-40187879D01*
G37*
G36*
X99508903Y-32033213D02*
G01*
X99731177Y-32077426D01*
X100149932Y-32250880D01*
X100526802Y-32502696D01*
X100847304Y-32823198D01*
X101099120Y-33200068D01*
X101272574Y-33618823D01*
X101361000Y-34063371D01*
X101361000Y-34516629D01*
X101272574Y-34961177D01*
X101099120Y-35379932D01*
X100847304Y-35756802D01*
X100526802Y-36077304D01*
X100149932Y-36329120D01*
X99731177Y-36502574D01*
X99508903Y-36546787D01*
X99286630Y-36591000D01*
X98833370Y-36591000D01*
X98611097Y-36546787D01*
X98388823Y-36502574D01*
X97970068Y-36329120D01*
X97593198Y-36077304D01*
X97272696Y-35756802D01*
X97020880Y-35379932D01*
X96847426Y-34961177D01*
X96759000Y-34516629D01*
X96759000Y-34063371D01*
X96847426Y-33618823D01*
X97020880Y-33200068D01*
X97272696Y-32823198D01*
X97593198Y-32502696D01*
X97970068Y-32250880D01*
X98388823Y-32077426D01*
X98611097Y-32033213D01*
X98833370Y-31989000D01*
X99286630Y-31989000D01*
X99508903Y-32033213D01*
X99508903Y-32033213D01*
G37*
G36*
X46168903Y-32033213D02*
G01*
X46391177Y-32077426D01*
X46809932Y-32250880D01*
X47186802Y-32502696D01*
X47507304Y-32823198D01*
X47759120Y-33200068D01*
X47932574Y-33618823D01*
X48021000Y-34063371D01*
X48021000Y-34516629D01*
X47932574Y-34961177D01*
X47759120Y-35379932D01*
X47507304Y-35756802D01*
X47186802Y-36077304D01*
X46809932Y-36329120D01*
X46391177Y-36502574D01*
X46168903Y-36546787D01*
X45946630Y-36591000D01*
X45493370Y-36591000D01*
X45271097Y-36546787D01*
X45048823Y-36502574D01*
X44630068Y-36329120D01*
X44253198Y-36077304D01*
X43932696Y-35756802D01*
X43680880Y-35379932D01*
X43507426Y-34961177D01*
X43419000Y-34516629D01*
X43419000Y-34063371D01*
X43507426Y-33618823D01*
X43680880Y-33200068D01*
X43932696Y-32823198D01*
X44253198Y-32502696D01*
X44630068Y-32250880D01*
X45048823Y-32077426D01*
X45271097Y-32033213D01*
X45493370Y-31989000D01*
X45946630Y-31989000D01*
X46168903Y-32033213D01*
X46168903Y-32033213D01*
G37*
M02*
