G04 #@! TF.GenerationSoftware,KiCad,Pcbnew,(5.1.2)-2*
G04 #@! TF.CreationDate,2019-07-16T17:36:30-04:00*
G04 #@! TF.ProjectId,8 bit serial to parallel,38206269-7420-4736-9572-69616c20746f,rev?*
G04 #@! TF.SameCoordinates,Original*
G04 #@! TF.FileFunction,Copper,L2,Bot*
G04 #@! TF.FilePolarity,Positive*
%FSLAX46Y46*%
G04 Gerber Fmt 4.6, Leading zero omitted, Abs format (unit mm)*
G04 Created by KiCad (PCBNEW (5.1.2)-2) date 2019-07-16 17:36:30*
%MOMM*%
%LPD*%
G04 APERTURE LIST*
%ADD10O,1.600000X1.600000*%
%ADD11R,1.600000X1.600000*%
%ADD12C,5.999480*%
%ADD13O,1.400000X1.400000*%
%ADD14C,1.400000*%
%ADD15O,2.000000X1.905000*%
%ADD16R,2.000000X1.905000*%
%ADD17O,2.400000X2.400000*%
%ADD18R,2.400000X2.400000*%
%ADD19C,0.254000*%
G04 APERTURE END LIST*
D10*
X53340000Y-49530000D03*
X71120000Y-57150000D03*
X55880000Y-49530000D03*
X68580000Y-57150000D03*
X58420000Y-49530000D03*
X66040000Y-57150000D03*
X60960000Y-49530000D03*
X63500000Y-57150000D03*
X63500000Y-49530000D03*
X60960000Y-57150000D03*
X66040000Y-49530000D03*
X58420000Y-57150000D03*
X68580000Y-49530000D03*
X55880000Y-57150000D03*
X71120000Y-49530000D03*
D11*
X53340000Y-57150000D03*
D12*
X88900000Y-55880000D03*
D13*
X53340000Y-72390000D03*
D14*
X53340000Y-64770000D03*
D13*
X53340000Y-83820000D03*
D14*
X53340000Y-76200000D03*
D13*
X53340000Y-95250000D03*
D14*
X53340000Y-87630000D03*
D13*
X53340000Y-106680000D03*
D14*
X53340000Y-99060000D03*
D13*
X93980000Y-106680000D03*
D14*
X93980000Y-99060000D03*
D13*
X93980000Y-95250000D03*
D14*
X93980000Y-87630000D03*
D13*
X93980000Y-83820000D03*
D14*
X93980000Y-76200000D03*
D13*
X93980000Y-72390000D03*
D14*
X93980000Y-64770000D03*
D15*
X58420000Y-66040000D03*
X58420000Y-68580000D03*
D16*
X58420000Y-71120000D03*
D15*
X58420000Y-77470000D03*
X58420000Y-80010000D03*
D16*
X58420000Y-82550000D03*
D15*
X58420000Y-88900000D03*
X58420000Y-91440000D03*
D16*
X58420000Y-93980000D03*
D15*
X58420000Y-100330000D03*
X58420000Y-102870000D03*
D16*
X58420000Y-105410000D03*
D15*
X90170000Y-100330000D03*
X90170000Y-102870000D03*
D16*
X90170000Y-105410000D03*
D15*
X90170000Y-88900000D03*
X90170000Y-91440000D03*
D16*
X90170000Y-93980000D03*
D15*
X90170000Y-77470000D03*
X90170000Y-80010000D03*
D16*
X90170000Y-82550000D03*
D15*
X90170000Y-66040000D03*
X90170000Y-68580000D03*
D16*
X90170000Y-71120000D03*
D12*
X69850000Y-68580000D03*
X69850000Y-80010000D03*
X69850000Y-91440000D03*
X69850000Y-102870000D03*
X77470000Y-102870000D03*
X77470000Y-91440000D03*
X77470000Y-80010000D03*
X77470000Y-68580000D03*
X50800000Y-43180000D03*
X58420000Y-43180000D03*
X73660000Y-43180000D03*
X81280000Y-43180000D03*
X66040000Y-43180000D03*
X88900000Y-43180000D03*
D17*
X63500000Y-71120000D03*
D18*
X63500000Y-67310000D03*
D17*
X63500000Y-82550000D03*
D18*
X63500000Y-78740000D03*
D17*
X63500000Y-93980000D03*
D18*
X63500000Y-90170000D03*
D17*
X63500000Y-105410000D03*
D18*
X63500000Y-101600000D03*
D17*
X83820000Y-105410000D03*
D18*
X83820000Y-101600000D03*
D17*
X83820000Y-93980000D03*
D18*
X83820000Y-90170000D03*
D17*
X83820000Y-82550000D03*
D18*
X83820000Y-78740000D03*
D17*
X83820000Y-71120000D03*
D18*
X83820000Y-67310000D03*
D19*
G36*
X104750001Y-118720000D02*
G01*
X40030000Y-118720000D01*
X40030000Y-112745852D01*
X42835000Y-112745852D01*
X42835000Y-113314148D01*
X42945869Y-113871523D01*
X43163346Y-114396560D01*
X43479074Y-114869080D01*
X43880920Y-115270926D01*
X44353440Y-115586654D01*
X44878477Y-115804131D01*
X45435852Y-115915000D01*
X46004148Y-115915000D01*
X46561523Y-115804131D01*
X47086560Y-115586654D01*
X47559080Y-115270926D01*
X47960926Y-114869080D01*
X48276654Y-114396560D01*
X48494131Y-113871523D01*
X48605000Y-113314148D01*
X48605000Y-112745852D01*
X96175000Y-112745852D01*
X96175000Y-113314148D01*
X96285869Y-113871523D01*
X96503346Y-114396560D01*
X96819074Y-114869080D01*
X97220920Y-115270926D01*
X97693440Y-115586654D01*
X98218477Y-115804131D01*
X98775852Y-115915000D01*
X99344148Y-115915000D01*
X99901523Y-115804131D01*
X100426560Y-115586654D01*
X100899080Y-115270926D01*
X101300926Y-114869080D01*
X101616654Y-114396560D01*
X101834131Y-113871523D01*
X101945000Y-113314148D01*
X101945000Y-112745852D01*
X101834131Y-112188477D01*
X101616654Y-111663440D01*
X101300926Y-111190920D01*
X100899080Y-110789074D01*
X100426560Y-110473346D01*
X99901523Y-110255869D01*
X99344148Y-110145000D01*
X98775852Y-110145000D01*
X98218477Y-110255869D01*
X97693440Y-110473346D01*
X97220920Y-110789074D01*
X96819074Y-111190920D01*
X96503346Y-111663440D01*
X96285869Y-112188477D01*
X96175000Y-112745852D01*
X48605000Y-112745852D01*
X48494131Y-112188477D01*
X48276654Y-111663440D01*
X47960926Y-111190920D01*
X47559080Y-110789074D01*
X47086560Y-110473346D01*
X46561523Y-110255869D01*
X46004148Y-110145000D01*
X45435852Y-110145000D01*
X44878477Y-110255869D01*
X44353440Y-110473346D01*
X43880920Y-110789074D01*
X43479074Y-111190920D01*
X43163346Y-111663440D01*
X42945869Y-112188477D01*
X42835000Y-112745852D01*
X40030000Y-112745852D01*
X40030000Y-106680000D01*
X51998541Y-106680000D01*
X52024317Y-106941706D01*
X52100653Y-107193354D01*
X52224618Y-107425275D01*
X52391445Y-107628555D01*
X52594725Y-107795382D01*
X52826646Y-107919347D01*
X53078294Y-107995683D01*
X53274421Y-108015000D01*
X53405579Y-108015000D01*
X53601706Y-107995683D01*
X53853354Y-107919347D01*
X54085275Y-107795382D01*
X54288555Y-107628555D01*
X54455382Y-107425275D01*
X54579347Y-107193354D01*
X54655683Y-106941706D01*
X54681459Y-106680000D01*
X54655683Y-106418294D01*
X54579347Y-106166646D01*
X54455382Y-105934725D01*
X54288555Y-105731445D01*
X54085275Y-105564618D01*
X53853354Y-105440653D01*
X53601706Y-105364317D01*
X53405579Y-105345000D01*
X53274421Y-105345000D01*
X53078294Y-105364317D01*
X52826646Y-105440653D01*
X52594725Y-105564618D01*
X52391445Y-105731445D01*
X52224618Y-105934725D01*
X52100653Y-106166646D01*
X52024317Y-106418294D01*
X51998541Y-106680000D01*
X40030000Y-106680000D01*
X40030000Y-102870000D01*
X56777319Y-102870000D01*
X56807970Y-103181204D01*
X56898745Y-103480449D01*
X57046155Y-103756235D01*
X57149446Y-103882095D01*
X57065506Y-103926963D01*
X56968815Y-104006315D01*
X56889463Y-104103006D01*
X56830498Y-104213320D01*
X56794188Y-104333018D01*
X56781928Y-104457500D01*
X56781928Y-106362500D01*
X56794188Y-106486982D01*
X56830498Y-106606680D01*
X56889463Y-106716994D01*
X56968815Y-106813685D01*
X57065506Y-106893037D01*
X57175820Y-106952002D01*
X57295518Y-106988312D01*
X57420000Y-107000572D01*
X59420000Y-107000572D01*
X59544482Y-106988312D01*
X59664180Y-106952002D01*
X59774494Y-106893037D01*
X59871185Y-106813685D01*
X59950537Y-106716994D01*
X60009502Y-106606680D01*
X60045812Y-106486982D01*
X60058072Y-106362500D01*
X60058072Y-105410000D01*
X61656122Y-105410000D01*
X61691552Y-105769723D01*
X61796479Y-106115622D01*
X61966871Y-106434404D01*
X62196181Y-106713819D01*
X62475596Y-106943129D01*
X62794378Y-107113521D01*
X63140277Y-107218448D01*
X63409861Y-107245000D01*
X63590139Y-107245000D01*
X63859723Y-107218448D01*
X64205622Y-107113521D01*
X64524404Y-106943129D01*
X64803819Y-106713819D01*
X65033129Y-106434404D01*
X65203521Y-106115622D01*
X65308448Y-105769723D01*
X65343878Y-105410000D01*
X65308448Y-105050277D01*
X65203521Y-104704378D01*
X65033129Y-104385596D01*
X64803819Y-104106181D01*
X64524404Y-103876871D01*
X64205622Y-103706479D01*
X63859723Y-103601552D01*
X63590139Y-103575000D01*
X63409861Y-103575000D01*
X63140277Y-103601552D01*
X62794378Y-103706479D01*
X62475596Y-103876871D01*
X62196181Y-104106181D01*
X61966871Y-104385596D01*
X61796479Y-104704378D01*
X61691552Y-105050277D01*
X61656122Y-105410000D01*
X60058072Y-105410000D01*
X60058072Y-104457500D01*
X60045812Y-104333018D01*
X60009502Y-104213320D01*
X59950537Y-104103006D01*
X59871185Y-104006315D01*
X59774494Y-103926963D01*
X59690554Y-103882095D01*
X59793845Y-103756235D01*
X59941255Y-103480449D01*
X60032030Y-103181204D01*
X60062681Y-102870000D01*
X60055787Y-102800000D01*
X61661928Y-102800000D01*
X61674188Y-102924482D01*
X61710498Y-103044180D01*
X61769463Y-103154494D01*
X61848815Y-103251185D01*
X61945506Y-103330537D01*
X62055820Y-103389502D01*
X62175518Y-103425812D01*
X62300000Y-103438072D01*
X63214250Y-103435000D01*
X63373000Y-103276250D01*
X63373000Y-101727000D01*
X63627000Y-101727000D01*
X63627000Y-103276250D01*
X63785750Y-103435000D01*
X64700000Y-103438072D01*
X64824482Y-103425812D01*
X64944180Y-103389502D01*
X65054494Y-103330537D01*
X65151185Y-103251185D01*
X65230537Y-103154494D01*
X65289502Y-103044180D01*
X65325812Y-102924482D01*
X65338072Y-102800000D01*
X65337105Y-102512009D01*
X66215260Y-102512009D01*
X66215260Y-103227991D01*
X66354941Y-103930215D01*
X66628935Y-104591695D01*
X67026713Y-105187012D01*
X67532988Y-105693287D01*
X68128305Y-106091065D01*
X68789785Y-106365059D01*
X69492009Y-106504740D01*
X70207991Y-106504740D01*
X70910215Y-106365059D01*
X71571695Y-106091065D01*
X72167012Y-105693287D01*
X72673287Y-105187012D01*
X73071065Y-104591695D01*
X73345059Y-103930215D01*
X73484740Y-103227991D01*
X73484740Y-102512009D01*
X73835260Y-102512009D01*
X73835260Y-103227991D01*
X73974941Y-103930215D01*
X74248935Y-104591695D01*
X74646713Y-105187012D01*
X75152988Y-105693287D01*
X75748305Y-106091065D01*
X76409785Y-106365059D01*
X77112009Y-106504740D01*
X77827991Y-106504740D01*
X78530215Y-106365059D01*
X79191695Y-106091065D01*
X79787012Y-105693287D01*
X80070299Y-105410000D01*
X81976122Y-105410000D01*
X82011552Y-105769723D01*
X82116479Y-106115622D01*
X82286871Y-106434404D01*
X82516181Y-106713819D01*
X82795596Y-106943129D01*
X83114378Y-107113521D01*
X83460277Y-107218448D01*
X83729861Y-107245000D01*
X83910139Y-107245000D01*
X84179723Y-107218448D01*
X84525622Y-107113521D01*
X84844404Y-106943129D01*
X85123819Y-106713819D01*
X85353129Y-106434404D01*
X85523521Y-106115622D01*
X85628448Y-105769723D01*
X85663878Y-105410000D01*
X85628448Y-105050277D01*
X85523521Y-104704378D01*
X85353129Y-104385596D01*
X85123819Y-104106181D01*
X84844404Y-103876871D01*
X84525622Y-103706479D01*
X84179723Y-103601552D01*
X83910139Y-103575000D01*
X83729861Y-103575000D01*
X83460277Y-103601552D01*
X83114378Y-103706479D01*
X82795596Y-103876871D01*
X82516181Y-104106181D01*
X82286871Y-104385596D01*
X82116479Y-104704378D01*
X82011552Y-105050277D01*
X81976122Y-105410000D01*
X80070299Y-105410000D01*
X80293287Y-105187012D01*
X80691065Y-104591695D01*
X80965059Y-103930215D01*
X81104740Y-103227991D01*
X81104740Y-102800000D01*
X81981928Y-102800000D01*
X81994188Y-102924482D01*
X82030498Y-103044180D01*
X82089463Y-103154494D01*
X82168815Y-103251185D01*
X82265506Y-103330537D01*
X82375820Y-103389502D01*
X82495518Y-103425812D01*
X82620000Y-103438072D01*
X83534250Y-103435000D01*
X83693000Y-103276250D01*
X83693000Y-101727000D01*
X83947000Y-101727000D01*
X83947000Y-103276250D01*
X84105750Y-103435000D01*
X85020000Y-103438072D01*
X85144482Y-103425812D01*
X85264180Y-103389502D01*
X85374494Y-103330537D01*
X85471185Y-103251185D01*
X85550537Y-103154494D01*
X85609502Y-103044180D01*
X85645812Y-102924482D01*
X85651177Y-102870000D01*
X88527319Y-102870000D01*
X88557970Y-103181204D01*
X88648745Y-103480449D01*
X88796155Y-103756235D01*
X88899446Y-103882095D01*
X88815506Y-103926963D01*
X88718815Y-104006315D01*
X88639463Y-104103006D01*
X88580498Y-104213320D01*
X88544188Y-104333018D01*
X88531928Y-104457500D01*
X88531928Y-106362500D01*
X88544188Y-106486982D01*
X88580498Y-106606680D01*
X88639463Y-106716994D01*
X88718815Y-106813685D01*
X88815506Y-106893037D01*
X88925820Y-106952002D01*
X89045518Y-106988312D01*
X89170000Y-107000572D01*
X91170000Y-107000572D01*
X91294482Y-106988312D01*
X91414180Y-106952002D01*
X91524494Y-106893037D01*
X91621185Y-106813685D01*
X91700537Y-106716994D01*
X91720311Y-106680000D01*
X92638541Y-106680000D01*
X92664317Y-106941706D01*
X92740653Y-107193354D01*
X92864618Y-107425275D01*
X93031445Y-107628555D01*
X93234725Y-107795382D01*
X93466646Y-107919347D01*
X93718294Y-107995683D01*
X93914421Y-108015000D01*
X94045579Y-108015000D01*
X94241706Y-107995683D01*
X94493354Y-107919347D01*
X94725275Y-107795382D01*
X94928555Y-107628555D01*
X95095382Y-107425275D01*
X95219347Y-107193354D01*
X95295683Y-106941706D01*
X95321459Y-106680000D01*
X95295683Y-106418294D01*
X95219347Y-106166646D01*
X95095382Y-105934725D01*
X94928555Y-105731445D01*
X94725275Y-105564618D01*
X94493354Y-105440653D01*
X94241706Y-105364317D01*
X94045579Y-105345000D01*
X93914421Y-105345000D01*
X93718294Y-105364317D01*
X93466646Y-105440653D01*
X93234725Y-105564618D01*
X93031445Y-105731445D01*
X92864618Y-105934725D01*
X92740653Y-106166646D01*
X92664317Y-106418294D01*
X92638541Y-106680000D01*
X91720311Y-106680000D01*
X91759502Y-106606680D01*
X91795812Y-106486982D01*
X91808072Y-106362500D01*
X91808072Y-104457500D01*
X91795812Y-104333018D01*
X91759502Y-104213320D01*
X91700537Y-104103006D01*
X91621185Y-104006315D01*
X91524494Y-103926963D01*
X91440554Y-103882095D01*
X91543845Y-103756235D01*
X91691255Y-103480449D01*
X91782030Y-103181204D01*
X91812681Y-102870000D01*
X91782030Y-102558796D01*
X91691255Y-102259551D01*
X91543845Y-101983765D01*
X91345463Y-101742037D01*
X91166101Y-101594837D01*
X91351315Y-101439437D01*
X91545969Y-101196923D01*
X91689571Y-100921094D01*
X91760563Y-100702980D01*
X91640594Y-100457000D01*
X90297000Y-100457000D01*
X90297000Y-100477000D01*
X90043000Y-100477000D01*
X90043000Y-100457000D01*
X88699406Y-100457000D01*
X88579437Y-100702980D01*
X88650429Y-100921094D01*
X88794031Y-101196923D01*
X88988685Y-101439437D01*
X89173899Y-101594837D01*
X88994537Y-101742037D01*
X88796155Y-101983765D01*
X88648745Y-102259551D01*
X88557970Y-102558796D01*
X88527319Y-102870000D01*
X85651177Y-102870000D01*
X85658072Y-102800000D01*
X85655000Y-101885750D01*
X85496250Y-101727000D01*
X83947000Y-101727000D01*
X83693000Y-101727000D01*
X82143750Y-101727000D01*
X81985000Y-101885750D01*
X81981928Y-102800000D01*
X81104740Y-102800000D01*
X81104740Y-102512009D01*
X80965059Y-101809785D01*
X80691065Y-101148305D01*
X80293287Y-100552988D01*
X80140299Y-100400000D01*
X81981928Y-100400000D01*
X81985000Y-101314250D01*
X82143750Y-101473000D01*
X83693000Y-101473000D01*
X83693000Y-99923750D01*
X83947000Y-99923750D01*
X83947000Y-101473000D01*
X85496250Y-101473000D01*
X85655000Y-101314250D01*
X85658072Y-100400000D01*
X85645812Y-100275518D01*
X85609502Y-100155820D01*
X85550537Y-100045506D01*
X85477919Y-99957020D01*
X88579437Y-99957020D01*
X88699406Y-100203000D01*
X90043000Y-100203000D01*
X90043000Y-98904430D01*
X90297000Y-98904430D01*
X90297000Y-100203000D01*
X91640594Y-100203000D01*
X91748736Y-99981269D01*
X93238336Y-99981269D01*
X93297797Y-100215037D01*
X93536242Y-100325934D01*
X93791740Y-100388183D01*
X94054473Y-100399390D01*
X94314344Y-100359125D01*
X94561366Y-100268935D01*
X94662203Y-100215037D01*
X94721664Y-99981269D01*
X93980000Y-99239605D01*
X93238336Y-99981269D01*
X91748736Y-99981269D01*
X91760563Y-99957020D01*
X91689571Y-99738906D01*
X91545969Y-99463077D01*
X91351315Y-99220563D01*
X91248709Y-99134473D01*
X92640610Y-99134473D01*
X92680875Y-99394344D01*
X92771065Y-99641366D01*
X92824963Y-99742203D01*
X93058731Y-99801664D01*
X93800395Y-99060000D01*
X94159605Y-99060000D01*
X94901269Y-99801664D01*
X95135037Y-99742203D01*
X95245934Y-99503758D01*
X95308183Y-99248260D01*
X95319390Y-98985527D01*
X95279125Y-98725656D01*
X95188935Y-98478634D01*
X95135037Y-98377797D01*
X94901269Y-98318336D01*
X94159605Y-99060000D01*
X93800395Y-99060000D01*
X93058731Y-98318336D01*
X92824963Y-98377797D01*
X92714066Y-98616242D01*
X92651817Y-98871740D01*
X92640610Y-99134473D01*
X91248709Y-99134473D01*
X91113089Y-99020684D01*
X90840446Y-98871121D01*
X90543863Y-98777622D01*
X90297000Y-98904430D01*
X90043000Y-98904430D01*
X89796137Y-98777622D01*
X89499554Y-98871121D01*
X89226911Y-99020684D01*
X88988685Y-99220563D01*
X88794031Y-99463077D01*
X88650429Y-99738906D01*
X88579437Y-99957020D01*
X85477919Y-99957020D01*
X85471185Y-99948815D01*
X85374494Y-99869463D01*
X85264180Y-99810498D01*
X85144482Y-99774188D01*
X85020000Y-99761928D01*
X84105750Y-99765000D01*
X83947000Y-99923750D01*
X83693000Y-99923750D01*
X83534250Y-99765000D01*
X82620000Y-99761928D01*
X82495518Y-99774188D01*
X82375820Y-99810498D01*
X82265506Y-99869463D01*
X82168815Y-99948815D01*
X82089463Y-100045506D01*
X82030498Y-100155820D01*
X81994188Y-100275518D01*
X81981928Y-100400000D01*
X80140299Y-100400000D01*
X79787012Y-100046713D01*
X79191695Y-99648935D01*
X78530215Y-99374941D01*
X77827991Y-99235260D01*
X77112009Y-99235260D01*
X76409785Y-99374941D01*
X75748305Y-99648935D01*
X75152988Y-100046713D01*
X74646713Y-100552988D01*
X74248935Y-101148305D01*
X73974941Y-101809785D01*
X73835260Y-102512009D01*
X73484740Y-102512009D01*
X73345059Y-101809785D01*
X73071065Y-101148305D01*
X72673287Y-100552988D01*
X72167012Y-100046713D01*
X71571695Y-99648935D01*
X70910215Y-99374941D01*
X70207991Y-99235260D01*
X69492009Y-99235260D01*
X68789785Y-99374941D01*
X68128305Y-99648935D01*
X67532988Y-100046713D01*
X67026713Y-100552988D01*
X66628935Y-101148305D01*
X66354941Y-101809785D01*
X66215260Y-102512009D01*
X65337105Y-102512009D01*
X65335000Y-101885750D01*
X65176250Y-101727000D01*
X63627000Y-101727000D01*
X63373000Y-101727000D01*
X61823750Y-101727000D01*
X61665000Y-101885750D01*
X61661928Y-102800000D01*
X60055787Y-102800000D01*
X60032030Y-102558796D01*
X59941255Y-102259551D01*
X59793845Y-101983765D01*
X59595463Y-101742037D01*
X59416101Y-101594837D01*
X59601315Y-101439437D01*
X59795969Y-101196923D01*
X59939571Y-100921094D01*
X60010563Y-100702980D01*
X59890594Y-100457000D01*
X58547000Y-100457000D01*
X58547000Y-100477000D01*
X58293000Y-100477000D01*
X58293000Y-100457000D01*
X56949406Y-100457000D01*
X56829437Y-100702980D01*
X56900429Y-100921094D01*
X57044031Y-101196923D01*
X57238685Y-101439437D01*
X57423899Y-101594837D01*
X57244537Y-101742037D01*
X57046155Y-101983765D01*
X56898745Y-102259551D01*
X56807970Y-102558796D01*
X56777319Y-102870000D01*
X40030000Y-102870000D01*
X40030000Y-100400000D01*
X61661928Y-100400000D01*
X61665000Y-101314250D01*
X61823750Y-101473000D01*
X63373000Y-101473000D01*
X63373000Y-99923750D01*
X63627000Y-99923750D01*
X63627000Y-101473000D01*
X65176250Y-101473000D01*
X65335000Y-101314250D01*
X65338072Y-100400000D01*
X65325812Y-100275518D01*
X65289502Y-100155820D01*
X65230537Y-100045506D01*
X65151185Y-99948815D01*
X65054494Y-99869463D01*
X64944180Y-99810498D01*
X64824482Y-99774188D01*
X64700000Y-99761928D01*
X63785750Y-99765000D01*
X63627000Y-99923750D01*
X63373000Y-99923750D01*
X63214250Y-99765000D01*
X62300000Y-99761928D01*
X62175518Y-99774188D01*
X62055820Y-99810498D01*
X61945506Y-99869463D01*
X61848815Y-99948815D01*
X61769463Y-100045506D01*
X61710498Y-100155820D01*
X61674188Y-100275518D01*
X61661928Y-100400000D01*
X40030000Y-100400000D01*
X40030000Y-99981269D01*
X52598336Y-99981269D01*
X52657797Y-100215037D01*
X52896242Y-100325934D01*
X53151740Y-100388183D01*
X53414473Y-100399390D01*
X53674344Y-100359125D01*
X53921366Y-100268935D01*
X54022203Y-100215037D01*
X54081664Y-99981269D01*
X54057415Y-99957020D01*
X56829437Y-99957020D01*
X56949406Y-100203000D01*
X58293000Y-100203000D01*
X58293000Y-98904430D01*
X58547000Y-98904430D01*
X58547000Y-100203000D01*
X59890594Y-100203000D01*
X60010563Y-99957020D01*
X59939571Y-99738906D01*
X59795969Y-99463077D01*
X59601315Y-99220563D01*
X59363089Y-99020684D01*
X59090446Y-98871121D01*
X58793863Y-98777622D01*
X58547000Y-98904430D01*
X58293000Y-98904430D01*
X58046137Y-98777622D01*
X57749554Y-98871121D01*
X57476911Y-99020684D01*
X57238685Y-99220563D01*
X57044031Y-99463077D01*
X56900429Y-99738906D01*
X56829437Y-99957020D01*
X54057415Y-99957020D01*
X53340000Y-99239605D01*
X52598336Y-99981269D01*
X40030000Y-99981269D01*
X40030000Y-99134473D01*
X52000610Y-99134473D01*
X52040875Y-99394344D01*
X52131065Y-99641366D01*
X52184963Y-99742203D01*
X52418731Y-99801664D01*
X53160395Y-99060000D01*
X53519605Y-99060000D01*
X54261269Y-99801664D01*
X54495037Y-99742203D01*
X54605934Y-99503758D01*
X54668183Y-99248260D01*
X54679390Y-98985527D01*
X54639125Y-98725656D01*
X54548935Y-98478634D01*
X54495037Y-98377797D01*
X54261269Y-98318336D01*
X53519605Y-99060000D01*
X53160395Y-99060000D01*
X52418731Y-98318336D01*
X52184963Y-98377797D01*
X52074066Y-98616242D01*
X52011817Y-98871740D01*
X52000610Y-99134473D01*
X40030000Y-99134473D01*
X40030000Y-98138731D01*
X52598336Y-98138731D01*
X53340000Y-98880395D01*
X54081664Y-98138731D01*
X93238336Y-98138731D01*
X93980000Y-98880395D01*
X94721664Y-98138731D01*
X94662203Y-97904963D01*
X94423758Y-97794066D01*
X94168260Y-97731817D01*
X93905527Y-97720610D01*
X93645656Y-97760875D01*
X93398634Y-97851065D01*
X93297797Y-97904963D01*
X93238336Y-98138731D01*
X54081664Y-98138731D01*
X54022203Y-97904963D01*
X53783758Y-97794066D01*
X53528260Y-97731817D01*
X53265527Y-97720610D01*
X53005656Y-97760875D01*
X52758634Y-97851065D01*
X52657797Y-97904963D01*
X52598336Y-98138731D01*
X40030000Y-98138731D01*
X40030000Y-95250000D01*
X51998541Y-95250000D01*
X52024317Y-95511706D01*
X52100653Y-95763354D01*
X52224618Y-95995275D01*
X52391445Y-96198555D01*
X52594725Y-96365382D01*
X52826646Y-96489347D01*
X53078294Y-96565683D01*
X53274421Y-96585000D01*
X53405579Y-96585000D01*
X53601706Y-96565683D01*
X53853354Y-96489347D01*
X54085275Y-96365382D01*
X54288555Y-96198555D01*
X54455382Y-95995275D01*
X54579347Y-95763354D01*
X54655683Y-95511706D01*
X54681459Y-95250000D01*
X54655683Y-94988294D01*
X54579347Y-94736646D01*
X54455382Y-94504725D01*
X54288555Y-94301445D01*
X54085275Y-94134618D01*
X53853354Y-94010653D01*
X53601706Y-93934317D01*
X53405579Y-93915000D01*
X53274421Y-93915000D01*
X53078294Y-93934317D01*
X52826646Y-94010653D01*
X52594725Y-94134618D01*
X52391445Y-94301445D01*
X52224618Y-94504725D01*
X52100653Y-94736646D01*
X52024317Y-94988294D01*
X51998541Y-95250000D01*
X40030000Y-95250000D01*
X40030000Y-91440000D01*
X56777319Y-91440000D01*
X56807970Y-91751204D01*
X56898745Y-92050449D01*
X57046155Y-92326235D01*
X57149446Y-92452095D01*
X57065506Y-92496963D01*
X56968815Y-92576315D01*
X56889463Y-92673006D01*
X56830498Y-92783320D01*
X56794188Y-92903018D01*
X56781928Y-93027500D01*
X56781928Y-94932500D01*
X56794188Y-95056982D01*
X56830498Y-95176680D01*
X56889463Y-95286994D01*
X56968815Y-95383685D01*
X57065506Y-95463037D01*
X57175820Y-95522002D01*
X57295518Y-95558312D01*
X57420000Y-95570572D01*
X59420000Y-95570572D01*
X59544482Y-95558312D01*
X59664180Y-95522002D01*
X59774494Y-95463037D01*
X59871185Y-95383685D01*
X59950537Y-95286994D01*
X60009502Y-95176680D01*
X60045812Y-95056982D01*
X60058072Y-94932500D01*
X60058072Y-93980000D01*
X61656122Y-93980000D01*
X61691552Y-94339723D01*
X61796479Y-94685622D01*
X61966871Y-95004404D01*
X62196181Y-95283819D01*
X62475596Y-95513129D01*
X62794378Y-95683521D01*
X63140277Y-95788448D01*
X63409861Y-95815000D01*
X63590139Y-95815000D01*
X63859723Y-95788448D01*
X64205622Y-95683521D01*
X64524404Y-95513129D01*
X64803819Y-95283819D01*
X65033129Y-95004404D01*
X65203521Y-94685622D01*
X65308448Y-94339723D01*
X65343878Y-93980000D01*
X65308448Y-93620277D01*
X65203521Y-93274378D01*
X65033129Y-92955596D01*
X64803819Y-92676181D01*
X64524404Y-92446871D01*
X64205622Y-92276479D01*
X63859723Y-92171552D01*
X63590139Y-92145000D01*
X63409861Y-92145000D01*
X63140277Y-92171552D01*
X62794378Y-92276479D01*
X62475596Y-92446871D01*
X62196181Y-92676181D01*
X61966871Y-92955596D01*
X61796479Y-93274378D01*
X61691552Y-93620277D01*
X61656122Y-93980000D01*
X60058072Y-93980000D01*
X60058072Y-93027500D01*
X60045812Y-92903018D01*
X60009502Y-92783320D01*
X59950537Y-92673006D01*
X59871185Y-92576315D01*
X59774494Y-92496963D01*
X59690554Y-92452095D01*
X59793845Y-92326235D01*
X59941255Y-92050449D01*
X60032030Y-91751204D01*
X60062681Y-91440000D01*
X60055787Y-91370000D01*
X61661928Y-91370000D01*
X61674188Y-91494482D01*
X61710498Y-91614180D01*
X61769463Y-91724494D01*
X61848815Y-91821185D01*
X61945506Y-91900537D01*
X62055820Y-91959502D01*
X62175518Y-91995812D01*
X62300000Y-92008072D01*
X63214250Y-92005000D01*
X63373000Y-91846250D01*
X63373000Y-90297000D01*
X63627000Y-90297000D01*
X63627000Y-91846250D01*
X63785750Y-92005000D01*
X64700000Y-92008072D01*
X64824482Y-91995812D01*
X64944180Y-91959502D01*
X65054494Y-91900537D01*
X65151185Y-91821185D01*
X65230537Y-91724494D01*
X65289502Y-91614180D01*
X65325812Y-91494482D01*
X65338072Y-91370000D01*
X65337105Y-91082009D01*
X66215260Y-91082009D01*
X66215260Y-91797991D01*
X66354941Y-92500215D01*
X66628935Y-93161695D01*
X67026713Y-93757012D01*
X67532988Y-94263287D01*
X68128305Y-94661065D01*
X68789785Y-94935059D01*
X69492009Y-95074740D01*
X70207991Y-95074740D01*
X70910215Y-94935059D01*
X71571695Y-94661065D01*
X72167012Y-94263287D01*
X72673287Y-93757012D01*
X73071065Y-93161695D01*
X73345059Y-92500215D01*
X73484740Y-91797991D01*
X73484740Y-91082009D01*
X73835260Y-91082009D01*
X73835260Y-91797991D01*
X73974941Y-92500215D01*
X74248935Y-93161695D01*
X74646713Y-93757012D01*
X75152988Y-94263287D01*
X75748305Y-94661065D01*
X76409785Y-94935059D01*
X77112009Y-95074740D01*
X77827991Y-95074740D01*
X78530215Y-94935059D01*
X79191695Y-94661065D01*
X79787012Y-94263287D01*
X80070299Y-93980000D01*
X81976122Y-93980000D01*
X82011552Y-94339723D01*
X82116479Y-94685622D01*
X82286871Y-95004404D01*
X82516181Y-95283819D01*
X82795596Y-95513129D01*
X83114378Y-95683521D01*
X83460277Y-95788448D01*
X83729861Y-95815000D01*
X83910139Y-95815000D01*
X84179723Y-95788448D01*
X84525622Y-95683521D01*
X84844404Y-95513129D01*
X85123819Y-95283819D01*
X85353129Y-95004404D01*
X85523521Y-94685622D01*
X85628448Y-94339723D01*
X85663878Y-93980000D01*
X85628448Y-93620277D01*
X85523521Y-93274378D01*
X85353129Y-92955596D01*
X85123819Y-92676181D01*
X84844404Y-92446871D01*
X84525622Y-92276479D01*
X84179723Y-92171552D01*
X83910139Y-92145000D01*
X83729861Y-92145000D01*
X83460277Y-92171552D01*
X83114378Y-92276479D01*
X82795596Y-92446871D01*
X82516181Y-92676181D01*
X82286871Y-92955596D01*
X82116479Y-93274378D01*
X82011552Y-93620277D01*
X81976122Y-93980000D01*
X80070299Y-93980000D01*
X80293287Y-93757012D01*
X80691065Y-93161695D01*
X80965059Y-92500215D01*
X81104740Y-91797991D01*
X81104740Y-91370000D01*
X81981928Y-91370000D01*
X81994188Y-91494482D01*
X82030498Y-91614180D01*
X82089463Y-91724494D01*
X82168815Y-91821185D01*
X82265506Y-91900537D01*
X82375820Y-91959502D01*
X82495518Y-91995812D01*
X82620000Y-92008072D01*
X83534250Y-92005000D01*
X83693000Y-91846250D01*
X83693000Y-90297000D01*
X83947000Y-90297000D01*
X83947000Y-91846250D01*
X84105750Y-92005000D01*
X85020000Y-92008072D01*
X85144482Y-91995812D01*
X85264180Y-91959502D01*
X85374494Y-91900537D01*
X85471185Y-91821185D01*
X85550537Y-91724494D01*
X85609502Y-91614180D01*
X85645812Y-91494482D01*
X85651177Y-91440000D01*
X88527319Y-91440000D01*
X88557970Y-91751204D01*
X88648745Y-92050449D01*
X88796155Y-92326235D01*
X88899446Y-92452095D01*
X88815506Y-92496963D01*
X88718815Y-92576315D01*
X88639463Y-92673006D01*
X88580498Y-92783320D01*
X88544188Y-92903018D01*
X88531928Y-93027500D01*
X88531928Y-94932500D01*
X88544188Y-95056982D01*
X88580498Y-95176680D01*
X88639463Y-95286994D01*
X88718815Y-95383685D01*
X88815506Y-95463037D01*
X88925820Y-95522002D01*
X89045518Y-95558312D01*
X89170000Y-95570572D01*
X91170000Y-95570572D01*
X91294482Y-95558312D01*
X91414180Y-95522002D01*
X91524494Y-95463037D01*
X91621185Y-95383685D01*
X91700537Y-95286994D01*
X91720311Y-95250000D01*
X92638541Y-95250000D01*
X92664317Y-95511706D01*
X92740653Y-95763354D01*
X92864618Y-95995275D01*
X93031445Y-96198555D01*
X93234725Y-96365382D01*
X93466646Y-96489347D01*
X93718294Y-96565683D01*
X93914421Y-96585000D01*
X94045579Y-96585000D01*
X94241706Y-96565683D01*
X94493354Y-96489347D01*
X94725275Y-96365382D01*
X94928555Y-96198555D01*
X95095382Y-95995275D01*
X95219347Y-95763354D01*
X95295683Y-95511706D01*
X95321459Y-95250000D01*
X95295683Y-94988294D01*
X95219347Y-94736646D01*
X95095382Y-94504725D01*
X94928555Y-94301445D01*
X94725275Y-94134618D01*
X94493354Y-94010653D01*
X94241706Y-93934317D01*
X94045579Y-93915000D01*
X93914421Y-93915000D01*
X93718294Y-93934317D01*
X93466646Y-94010653D01*
X93234725Y-94134618D01*
X93031445Y-94301445D01*
X92864618Y-94504725D01*
X92740653Y-94736646D01*
X92664317Y-94988294D01*
X92638541Y-95250000D01*
X91720311Y-95250000D01*
X91759502Y-95176680D01*
X91795812Y-95056982D01*
X91808072Y-94932500D01*
X91808072Y-93027500D01*
X91795812Y-92903018D01*
X91759502Y-92783320D01*
X91700537Y-92673006D01*
X91621185Y-92576315D01*
X91524494Y-92496963D01*
X91440554Y-92452095D01*
X91543845Y-92326235D01*
X91691255Y-92050449D01*
X91782030Y-91751204D01*
X91812681Y-91440000D01*
X91782030Y-91128796D01*
X91691255Y-90829551D01*
X91543845Y-90553765D01*
X91345463Y-90312037D01*
X91166101Y-90164837D01*
X91351315Y-90009437D01*
X91545969Y-89766923D01*
X91689571Y-89491094D01*
X91760563Y-89272980D01*
X91640594Y-89027000D01*
X90297000Y-89027000D01*
X90297000Y-89047000D01*
X90043000Y-89047000D01*
X90043000Y-89027000D01*
X88699406Y-89027000D01*
X88579437Y-89272980D01*
X88650429Y-89491094D01*
X88794031Y-89766923D01*
X88988685Y-90009437D01*
X89173899Y-90164837D01*
X88994537Y-90312037D01*
X88796155Y-90553765D01*
X88648745Y-90829551D01*
X88557970Y-91128796D01*
X88527319Y-91440000D01*
X85651177Y-91440000D01*
X85658072Y-91370000D01*
X85655000Y-90455750D01*
X85496250Y-90297000D01*
X83947000Y-90297000D01*
X83693000Y-90297000D01*
X82143750Y-90297000D01*
X81985000Y-90455750D01*
X81981928Y-91370000D01*
X81104740Y-91370000D01*
X81104740Y-91082009D01*
X80965059Y-90379785D01*
X80691065Y-89718305D01*
X80293287Y-89122988D01*
X80140299Y-88970000D01*
X81981928Y-88970000D01*
X81985000Y-89884250D01*
X82143750Y-90043000D01*
X83693000Y-90043000D01*
X83693000Y-88493750D01*
X83947000Y-88493750D01*
X83947000Y-90043000D01*
X85496250Y-90043000D01*
X85655000Y-89884250D01*
X85658072Y-88970000D01*
X85645812Y-88845518D01*
X85609502Y-88725820D01*
X85550537Y-88615506D01*
X85477919Y-88527020D01*
X88579437Y-88527020D01*
X88699406Y-88773000D01*
X90043000Y-88773000D01*
X90043000Y-87474430D01*
X90297000Y-87474430D01*
X90297000Y-88773000D01*
X91640594Y-88773000D01*
X91748736Y-88551269D01*
X93238336Y-88551269D01*
X93297797Y-88785037D01*
X93536242Y-88895934D01*
X93791740Y-88958183D01*
X94054473Y-88969390D01*
X94314344Y-88929125D01*
X94561366Y-88838935D01*
X94662203Y-88785037D01*
X94721664Y-88551269D01*
X93980000Y-87809605D01*
X93238336Y-88551269D01*
X91748736Y-88551269D01*
X91760563Y-88527020D01*
X91689571Y-88308906D01*
X91545969Y-88033077D01*
X91351315Y-87790563D01*
X91248709Y-87704473D01*
X92640610Y-87704473D01*
X92680875Y-87964344D01*
X92771065Y-88211366D01*
X92824963Y-88312203D01*
X93058731Y-88371664D01*
X93800395Y-87630000D01*
X94159605Y-87630000D01*
X94901269Y-88371664D01*
X95135037Y-88312203D01*
X95245934Y-88073758D01*
X95308183Y-87818260D01*
X95319390Y-87555527D01*
X95279125Y-87295656D01*
X95188935Y-87048634D01*
X95135037Y-86947797D01*
X94901269Y-86888336D01*
X94159605Y-87630000D01*
X93800395Y-87630000D01*
X93058731Y-86888336D01*
X92824963Y-86947797D01*
X92714066Y-87186242D01*
X92651817Y-87441740D01*
X92640610Y-87704473D01*
X91248709Y-87704473D01*
X91113089Y-87590684D01*
X90840446Y-87441121D01*
X90543863Y-87347622D01*
X90297000Y-87474430D01*
X90043000Y-87474430D01*
X89796137Y-87347622D01*
X89499554Y-87441121D01*
X89226911Y-87590684D01*
X88988685Y-87790563D01*
X88794031Y-88033077D01*
X88650429Y-88308906D01*
X88579437Y-88527020D01*
X85477919Y-88527020D01*
X85471185Y-88518815D01*
X85374494Y-88439463D01*
X85264180Y-88380498D01*
X85144482Y-88344188D01*
X85020000Y-88331928D01*
X84105750Y-88335000D01*
X83947000Y-88493750D01*
X83693000Y-88493750D01*
X83534250Y-88335000D01*
X82620000Y-88331928D01*
X82495518Y-88344188D01*
X82375820Y-88380498D01*
X82265506Y-88439463D01*
X82168815Y-88518815D01*
X82089463Y-88615506D01*
X82030498Y-88725820D01*
X81994188Y-88845518D01*
X81981928Y-88970000D01*
X80140299Y-88970000D01*
X79787012Y-88616713D01*
X79191695Y-88218935D01*
X78530215Y-87944941D01*
X77827991Y-87805260D01*
X77112009Y-87805260D01*
X76409785Y-87944941D01*
X75748305Y-88218935D01*
X75152988Y-88616713D01*
X74646713Y-89122988D01*
X74248935Y-89718305D01*
X73974941Y-90379785D01*
X73835260Y-91082009D01*
X73484740Y-91082009D01*
X73345059Y-90379785D01*
X73071065Y-89718305D01*
X72673287Y-89122988D01*
X72167012Y-88616713D01*
X71571695Y-88218935D01*
X70910215Y-87944941D01*
X70207991Y-87805260D01*
X69492009Y-87805260D01*
X68789785Y-87944941D01*
X68128305Y-88218935D01*
X67532988Y-88616713D01*
X67026713Y-89122988D01*
X66628935Y-89718305D01*
X66354941Y-90379785D01*
X66215260Y-91082009D01*
X65337105Y-91082009D01*
X65335000Y-90455750D01*
X65176250Y-90297000D01*
X63627000Y-90297000D01*
X63373000Y-90297000D01*
X61823750Y-90297000D01*
X61665000Y-90455750D01*
X61661928Y-91370000D01*
X60055787Y-91370000D01*
X60032030Y-91128796D01*
X59941255Y-90829551D01*
X59793845Y-90553765D01*
X59595463Y-90312037D01*
X59416101Y-90164837D01*
X59601315Y-90009437D01*
X59795969Y-89766923D01*
X59939571Y-89491094D01*
X60010563Y-89272980D01*
X59890594Y-89027000D01*
X58547000Y-89027000D01*
X58547000Y-89047000D01*
X58293000Y-89047000D01*
X58293000Y-89027000D01*
X56949406Y-89027000D01*
X56829437Y-89272980D01*
X56900429Y-89491094D01*
X57044031Y-89766923D01*
X57238685Y-90009437D01*
X57423899Y-90164837D01*
X57244537Y-90312037D01*
X57046155Y-90553765D01*
X56898745Y-90829551D01*
X56807970Y-91128796D01*
X56777319Y-91440000D01*
X40030000Y-91440000D01*
X40030000Y-88970000D01*
X61661928Y-88970000D01*
X61665000Y-89884250D01*
X61823750Y-90043000D01*
X63373000Y-90043000D01*
X63373000Y-88493750D01*
X63627000Y-88493750D01*
X63627000Y-90043000D01*
X65176250Y-90043000D01*
X65335000Y-89884250D01*
X65338072Y-88970000D01*
X65325812Y-88845518D01*
X65289502Y-88725820D01*
X65230537Y-88615506D01*
X65151185Y-88518815D01*
X65054494Y-88439463D01*
X64944180Y-88380498D01*
X64824482Y-88344188D01*
X64700000Y-88331928D01*
X63785750Y-88335000D01*
X63627000Y-88493750D01*
X63373000Y-88493750D01*
X63214250Y-88335000D01*
X62300000Y-88331928D01*
X62175518Y-88344188D01*
X62055820Y-88380498D01*
X61945506Y-88439463D01*
X61848815Y-88518815D01*
X61769463Y-88615506D01*
X61710498Y-88725820D01*
X61674188Y-88845518D01*
X61661928Y-88970000D01*
X40030000Y-88970000D01*
X40030000Y-88551269D01*
X52598336Y-88551269D01*
X52657797Y-88785037D01*
X52896242Y-88895934D01*
X53151740Y-88958183D01*
X53414473Y-88969390D01*
X53674344Y-88929125D01*
X53921366Y-88838935D01*
X54022203Y-88785037D01*
X54081664Y-88551269D01*
X54057415Y-88527020D01*
X56829437Y-88527020D01*
X56949406Y-88773000D01*
X58293000Y-88773000D01*
X58293000Y-87474430D01*
X58547000Y-87474430D01*
X58547000Y-88773000D01*
X59890594Y-88773000D01*
X60010563Y-88527020D01*
X59939571Y-88308906D01*
X59795969Y-88033077D01*
X59601315Y-87790563D01*
X59363089Y-87590684D01*
X59090446Y-87441121D01*
X58793863Y-87347622D01*
X58547000Y-87474430D01*
X58293000Y-87474430D01*
X58046137Y-87347622D01*
X57749554Y-87441121D01*
X57476911Y-87590684D01*
X57238685Y-87790563D01*
X57044031Y-88033077D01*
X56900429Y-88308906D01*
X56829437Y-88527020D01*
X54057415Y-88527020D01*
X53340000Y-87809605D01*
X52598336Y-88551269D01*
X40030000Y-88551269D01*
X40030000Y-87704473D01*
X52000610Y-87704473D01*
X52040875Y-87964344D01*
X52131065Y-88211366D01*
X52184963Y-88312203D01*
X52418731Y-88371664D01*
X53160395Y-87630000D01*
X53519605Y-87630000D01*
X54261269Y-88371664D01*
X54495037Y-88312203D01*
X54605934Y-88073758D01*
X54668183Y-87818260D01*
X54679390Y-87555527D01*
X54639125Y-87295656D01*
X54548935Y-87048634D01*
X54495037Y-86947797D01*
X54261269Y-86888336D01*
X53519605Y-87630000D01*
X53160395Y-87630000D01*
X52418731Y-86888336D01*
X52184963Y-86947797D01*
X52074066Y-87186242D01*
X52011817Y-87441740D01*
X52000610Y-87704473D01*
X40030000Y-87704473D01*
X40030000Y-86708731D01*
X52598336Y-86708731D01*
X53340000Y-87450395D01*
X54081664Y-86708731D01*
X93238336Y-86708731D01*
X93980000Y-87450395D01*
X94721664Y-86708731D01*
X94662203Y-86474963D01*
X94423758Y-86364066D01*
X94168260Y-86301817D01*
X93905527Y-86290610D01*
X93645656Y-86330875D01*
X93398634Y-86421065D01*
X93297797Y-86474963D01*
X93238336Y-86708731D01*
X54081664Y-86708731D01*
X54022203Y-86474963D01*
X53783758Y-86364066D01*
X53528260Y-86301817D01*
X53265527Y-86290610D01*
X53005656Y-86330875D01*
X52758634Y-86421065D01*
X52657797Y-86474963D01*
X52598336Y-86708731D01*
X40030000Y-86708731D01*
X40030000Y-83820000D01*
X51998541Y-83820000D01*
X52024317Y-84081706D01*
X52100653Y-84333354D01*
X52224618Y-84565275D01*
X52391445Y-84768555D01*
X52594725Y-84935382D01*
X52826646Y-85059347D01*
X53078294Y-85135683D01*
X53274421Y-85155000D01*
X53405579Y-85155000D01*
X53601706Y-85135683D01*
X53853354Y-85059347D01*
X54085275Y-84935382D01*
X54288555Y-84768555D01*
X54455382Y-84565275D01*
X54579347Y-84333354D01*
X54655683Y-84081706D01*
X54681459Y-83820000D01*
X54655683Y-83558294D01*
X54579347Y-83306646D01*
X54455382Y-83074725D01*
X54288555Y-82871445D01*
X54085275Y-82704618D01*
X53853354Y-82580653D01*
X53601706Y-82504317D01*
X53405579Y-82485000D01*
X53274421Y-82485000D01*
X53078294Y-82504317D01*
X52826646Y-82580653D01*
X52594725Y-82704618D01*
X52391445Y-82871445D01*
X52224618Y-83074725D01*
X52100653Y-83306646D01*
X52024317Y-83558294D01*
X51998541Y-83820000D01*
X40030000Y-83820000D01*
X40030000Y-80010000D01*
X56777319Y-80010000D01*
X56807970Y-80321204D01*
X56898745Y-80620449D01*
X57046155Y-80896235D01*
X57149446Y-81022095D01*
X57065506Y-81066963D01*
X56968815Y-81146315D01*
X56889463Y-81243006D01*
X56830498Y-81353320D01*
X56794188Y-81473018D01*
X56781928Y-81597500D01*
X56781928Y-83502500D01*
X56794188Y-83626982D01*
X56830498Y-83746680D01*
X56889463Y-83856994D01*
X56968815Y-83953685D01*
X57065506Y-84033037D01*
X57175820Y-84092002D01*
X57295518Y-84128312D01*
X57420000Y-84140572D01*
X59420000Y-84140572D01*
X59544482Y-84128312D01*
X59664180Y-84092002D01*
X59774494Y-84033037D01*
X59871185Y-83953685D01*
X59950537Y-83856994D01*
X60009502Y-83746680D01*
X60045812Y-83626982D01*
X60058072Y-83502500D01*
X60058072Y-82550000D01*
X61656122Y-82550000D01*
X61691552Y-82909723D01*
X61796479Y-83255622D01*
X61966871Y-83574404D01*
X62196181Y-83853819D01*
X62475596Y-84083129D01*
X62794378Y-84253521D01*
X63140277Y-84358448D01*
X63409861Y-84385000D01*
X63590139Y-84385000D01*
X63859723Y-84358448D01*
X64205622Y-84253521D01*
X64524404Y-84083129D01*
X64803819Y-83853819D01*
X65033129Y-83574404D01*
X65203521Y-83255622D01*
X65308448Y-82909723D01*
X65343878Y-82550000D01*
X65308448Y-82190277D01*
X65203521Y-81844378D01*
X65033129Y-81525596D01*
X64803819Y-81246181D01*
X64524404Y-81016871D01*
X64205622Y-80846479D01*
X63859723Y-80741552D01*
X63590139Y-80715000D01*
X63409861Y-80715000D01*
X63140277Y-80741552D01*
X62794378Y-80846479D01*
X62475596Y-81016871D01*
X62196181Y-81246181D01*
X61966871Y-81525596D01*
X61796479Y-81844378D01*
X61691552Y-82190277D01*
X61656122Y-82550000D01*
X60058072Y-82550000D01*
X60058072Y-81597500D01*
X60045812Y-81473018D01*
X60009502Y-81353320D01*
X59950537Y-81243006D01*
X59871185Y-81146315D01*
X59774494Y-81066963D01*
X59690554Y-81022095D01*
X59793845Y-80896235D01*
X59941255Y-80620449D01*
X60032030Y-80321204D01*
X60062681Y-80010000D01*
X60055787Y-79940000D01*
X61661928Y-79940000D01*
X61674188Y-80064482D01*
X61710498Y-80184180D01*
X61769463Y-80294494D01*
X61848815Y-80391185D01*
X61945506Y-80470537D01*
X62055820Y-80529502D01*
X62175518Y-80565812D01*
X62300000Y-80578072D01*
X63214250Y-80575000D01*
X63373000Y-80416250D01*
X63373000Y-78867000D01*
X63627000Y-78867000D01*
X63627000Y-80416250D01*
X63785750Y-80575000D01*
X64700000Y-80578072D01*
X64824482Y-80565812D01*
X64944180Y-80529502D01*
X65054494Y-80470537D01*
X65151185Y-80391185D01*
X65230537Y-80294494D01*
X65289502Y-80184180D01*
X65325812Y-80064482D01*
X65338072Y-79940000D01*
X65337105Y-79652009D01*
X66215260Y-79652009D01*
X66215260Y-80367991D01*
X66354941Y-81070215D01*
X66628935Y-81731695D01*
X67026713Y-82327012D01*
X67532988Y-82833287D01*
X68128305Y-83231065D01*
X68789785Y-83505059D01*
X69492009Y-83644740D01*
X70207991Y-83644740D01*
X70910215Y-83505059D01*
X71571695Y-83231065D01*
X72167012Y-82833287D01*
X72673287Y-82327012D01*
X73071065Y-81731695D01*
X73345059Y-81070215D01*
X73484740Y-80367991D01*
X73484740Y-79652009D01*
X73835260Y-79652009D01*
X73835260Y-80367991D01*
X73974941Y-81070215D01*
X74248935Y-81731695D01*
X74646713Y-82327012D01*
X75152988Y-82833287D01*
X75748305Y-83231065D01*
X76409785Y-83505059D01*
X77112009Y-83644740D01*
X77827991Y-83644740D01*
X78530215Y-83505059D01*
X79191695Y-83231065D01*
X79787012Y-82833287D01*
X80070299Y-82550000D01*
X81976122Y-82550000D01*
X82011552Y-82909723D01*
X82116479Y-83255622D01*
X82286871Y-83574404D01*
X82516181Y-83853819D01*
X82795596Y-84083129D01*
X83114378Y-84253521D01*
X83460277Y-84358448D01*
X83729861Y-84385000D01*
X83910139Y-84385000D01*
X84179723Y-84358448D01*
X84525622Y-84253521D01*
X84844404Y-84083129D01*
X85123819Y-83853819D01*
X85353129Y-83574404D01*
X85523521Y-83255622D01*
X85628448Y-82909723D01*
X85663878Y-82550000D01*
X85628448Y-82190277D01*
X85523521Y-81844378D01*
X85353129Y-81525596D01*
X85123819Y-81246181D01*
X84844404Y-81016871D01*
X84525622Y-80846479D01*
X84179723Y-80741552D01*
X83910139Y-80715000D01*
X83729861Y-80715000D01*
X83460277Y-80741552D01*
X83114378Y-80846479D01*
X82795596Y-81016871D01*
X82516181Y-81246181D01*
X82286871Y-81525596D01*
X82116479Y-81844378D01*
X82011552Y-82190277D01*
X81976122Y-82550000D01*
X80070299Y-82550000D01*
X80293287Y-82327012D01*
X80691065Y-81731695D01*
X80965059Y-81070215D01*
X81104740Y-80367991D01*
X81104740Y-79940000D01*
X81981928Y-79940000D01*
X81994188Y-80064482D01*
X82030498Y-80184180D01*
X82089463Y-80294494D01*
X82168815Y-80391185D01*
X82265506Y-80470537D01*
X82375820Y-80529502D01*
X82495518Y-80565812D01*
X82620000Y-80578072D01*
X83534250Y-80575000D01*
X83693000Y-80416250D01*
X83693000Y-78867000D01*
X83947000Y-78867000D01*
X83947000Y-80416250D01*
X84105750Y-80575000D01*
X85020000Y-80578072D01*
X85144482Y-80565812D01*
X85264180Y-80529502D01*
X85374494Y-80470537D01*
X85471185Y-80391185D01*
X85550537Y-80294494D01*
X85609502Y-80184180D01*
X85645812Y-80064482D01*
X85651177Y-80010000D01*
X88527319Y-80010000D01*
X88557970Y-80321204D01*
X88648745Y-80620449D01*
X88796155Y-80896235D01*
X88899446Y-81022095D01*
X88815506Y-81066963D01*
X88718815Y-81146315D01*
X88639463Y-81243006D01*
X88580498Y-81353320D01*
X88544188Y-81473018D01*
X88531928Y-81597500D01*
X88531928Y-83502500D01*
X88544188Y-83626982D01*
X88580498Y-83746680D01*
X88639463Y-83856994D01*
X88718815Y-83953685D01*
X88815506Y-84033037D01*
X88925820Y-84092002D01*
X89045518Y-84128312D01*
X89170000Y-84140572D01*
X91170000Y-84140572D01*
X91294482Y-84128312D01*
X91414180Y-84092002D01*
X91524494Y-84033037D01*
X91621185Y-83953685D01*
X91700537Y-83856994D01*
X91720311Y-83820000D01*
X92638541Y-83820000D01*
X92664317Y-84081706D01*
X92740653Y-84333354D01*
X92864618Y-84565275D01*
X93031445Y-84768555D01*
X93234725Y-84935382D01*
X93466646Y-85059347D01*
X93718294Y-85135683D01*
X93914421Y-85155000D01*
X94045579Y-85155000D01*
X94241706Y-85135683D01*
X94493354Y-85059347D01*
X94725275Y-84935382D01*
X94928555Y-84768555D01*
X95095382Y-84565275D01*
X95219347Y-84333354D01*
X95295683Y-84081706D01*
X95321459Y-83820000D01*
X95295683Y-83558294D01*
X95219347Y-83306646D01*
X95095382Y-83074725D01*
X94928555Y-82871445D01*
X94725275Y-82704618D01*
X94493354Y-82580653D01*
X94241706Y-82504317D01*
X94045579Y-82485000D01*
X93914421Y-82485000D01*
X93718294Y-82504317D01*
X93466646Y-82580653D01*
X93234725Y-82704618D01*
X93031445Y-82871445D01*
X92864618Y-83074725D01*
X92740653Y-83306646D01*
X92664317Y-83558294D01*
X92638541Y-83820000D01*
X91720311Y-83820000D01*
X91759502Y-83746680D01*
X91795812Y-83626982D01*
X91808072Y-83502500D01*
X91808072Y-81597500D01*
X91795812Y-81473018D01*
X91759502Y-81353320D01*
X91700537Y-81243006D01*
X91621185Y-81146315D01*
X91524494Y-81066963D01*
X91440554Y-81022095D01*
X91543845Y-80896235D01*
X91691255Y-80620449D01*
X91782030Y-80321204D01*
X91812681Y-80010000D01*
X91782030Y-79698796D01*
X91691255Y-79399551D01*
X91543845Y-79123765D01*
X91345463Y-78882037D01*
X91166101Y-78734837D01*
X91351315Y-78579437D01*
X91545969Y-78336923D01*
X91689571Y-78061094D01*
X91760563Y-77842980D01*
X91640594Y-77597000D01*
X90297000Y-77597000D01*
X90297000Y-77617000D01*
X90043000Y-77617000D01*
X90043000Y-77597000D01*
X88699406Y-77597000D01*
X88579437Y-77842980D01*
X88650429Y-78061094D01*
X88794031Y-78336923D01*
X88988685Y-78579437D01*
X89173899Y-78734837D01*
X88994537Y-78882037D01*
X88796155Y-79123765D01*
X88648745Y-79399551D01*
X88557970Y-79698796D01*
X88527319Y-80010000D01*
X85651177Y-80010000D01*
X85658072Y-79940000D01*
X85655000Y-79025750D01*
X85496250Y-78867000D01*
X83947000Y-78867000D01*
X83693000Y-78867000D01*
X82143750Y-78867000D01*
X81985000Y-79025750D01*
X81981928Y-79940000D01*
X81104740Y-79940000D01*
X81104740Y-79652009D01*
X80965059Y-78949785D01*
X80691065Y-78288305D01*
X80293287Y-77692988D01*
X80140299Y-77540000D01*
X81981928Y-77540000D01*
X81985000Y-78454250D01*
X82143750Y-78613000D01*
X83693000Y-78613000D01*
X83693000Y-77063750D01*
X83947000Y-77063750D01*
X83947000Y-78613000D01*
X85496250Y-78613000D01*
X85655000Y-78454250D01*
X85658072Y-77540000D01*
X85645812Y-77415518D01*
X85609502Y-77295820D01*
X85550537Y-77185506D01*
X85477919Y-77097020D01*
X88579437Y-77097020D01*
X88699406Y-77343000D01*
X90043000Y-77343000D01*
X90043000Y-76044430D01*
X90297000Y-76044430D01*
X90297000Y-77343000D01*
X91640594Y-77343000D01*
X91748736Y-77121269D01*
X93238336Y-77121269D01*
X93297797Y-77355037D01*
X93536242Y-77465934D01*
X93791740Y-77528183D01*
X94054473Y-77539390D01*
X94314344Y-77499125D01*
X94561366Y-77408935D01*
X94662203Y-77355037D01*
X94721664Y-77121269D01*
X93980000Y-76379605D01*
X93238336Y-77121269D01*
X91748736Y-77121269D01*
X91760563Y-77097020D01*
X91689571Y-76878906D01*
X91545969Y-76603077D01*
X91351315Y-76360563D01*
X91248709Y-76274473D01*
X92640610Y-76274473D01*
X92680875Y-76534344D01*
X92771065Y-76781366D01*
X92824963Y-76882203D01*
X93058731Y-76941664D01*
X93800395Y-76200000D01*
X94159605Y-76200000D01*
X94901269Y-76941664D01*
X95135037Y-76882203D01*
X95245934Y-76643758D01*
X95308183Y-76388260D01*
X95319390Y-76125527D01*
X95279125Y-75865656D01*
X95188935Y-75618634D01*
X95135037Y-75517797D01*
X94901269Y-75458336D01*
X94159605Y-76200000D01*
X93800395Y-76200000D01*
X93058731Y-75458336D01*
X92824963Y-75517797D01*
X92714066Y-75756242D01*
X92651817Y-76011740D01*
X92640610Y-76274473D01*
X91248709Y-76274473D01*
X91113089Y-76160684D01*
X90840446Y-76011121D01*
X90543863Y-75917622D01*
X90297000Y-76044430D01*
X90043000Y-76044430D01*
X89796137Y-75917622D01*
X89499554Y-76011121D01*
X89226911Y-76160684D01*
X88988685Y-76360563D01*
X88794031Y-76603077D01*
X88650429Y-76878906D01*
X88579437Y-77097020D01*
X85477919Y-77097020D01*
X85471185Y-77088815D01*
X85374494Y-77009463D01*
X85264180Y-76950498D01*
X85144482Y-76914188D01*
X85020000Y-76901928D01*
X84105750Y-76905000D01*
X83947000Y-77063750D01*
X83693000Y-77063750D01*
X83534250Y-76905000D01*
X82620000Y-76901928D01*
X82495518Y-76914188D01*
X82375820Y-76950498D01*
X82265506Y-77009463D01*
X82168815Y-77088815D01*
X82089463Y-77185506D01*
X82030498Y-77295820D01*
X81994188Y-77415518D01*
X81981928Y-77540000D01*
X80140299Y-77540000D01*
X79787012Y-77186713D01*
X79191695Y-76788935D01*
X78530215Y-76514941D01*
X77827991Y-76375260D01*
X77112009Y-76375260D01*
X76409785Y-76514941D01*
X75748305Y-76788935D01*
X75152988Y-77186713D01*
X74646713Y-77692988D01*
X74248935Y-78288305D01*
X73974941Y-78949785D01*
X73835260Y-79652009D01*
X73484740Y-79652009D01*
X73345059Y-78949785D01*
X73071065Y-78288305D01*
X72673287Y-77692988D01*
X72167012Y-77186713D01*
X71571695Y-76788935D01*
X70910215Y-76514941D01*
X70207991Y-76375260D01*
X69492009Y-76375260D01*
X68789785Y-76514941D01*
X68128305Y-76788935D01*
X67532988Y-77186713D01*
X67026713Y-77692988D01*
X66628935Y-78288305D01*
X66354941Y-78949785D01*
X66215260Y-79652009D01*
X65337105Y-79652009D01*
X65335000Y-79025750D01*
X65176250Y-78867000D01*
X63627000Y-78867000D01*
X63373000Y-78867000D01*
X61823750Y-78867000D01*
X61665000Y-79025750D01*
X61661928Y-79940000D01*
X60055787Y-79940000D01*
X60032030Y-79698796D01*
X59941255Y-79399551D01*
X59793845Y-79123765D01*
X59595463Y-78882037D01*
X59416101Y-78734837D01*
X59601315Y-78579437D01*
X59795969Y-78336923D01*
X59939571Y-78061094D01*
X60010563Y-77842980D01*
X59890594Y-77597000D01*
X58547000Y-77597000D01*
X58547000Y-77617000D01*
X58293000Y-77617000D01*
X58293000Y-77597000D01*
X56949406Y-77597000D01*
X56829437Y-77842980D01*
X56900429Y-78061094D01*
X57044031Y-78336923D01*
X57238685Y-78579437D01*
X57423899Y-78734837D01*
X57244537Y-78882037D01*
X57046155Y-79123765D01*
X56898745Y-79399551D01*
X56807970Y-79698796D01*
X56777319Y-80010000D01*
X40030000Y-80010000D01*
X40030000Y-77540000D01*
X61661928Y-77540000D01*
X61665000Y-78454250D01*
X61823750Y-78613000D01*
X63373000Y-78613000D01*
X63373000Y-77063750D01*
X63627000Y-77063750D01*
X63627000Y-78613000D01*
X65176250Y-78613000D01*
X65335000Y-78454250D01*
X65338072Y-77540000D01*
X65325812Y-77415518D01*
X65289502Y-77295820D01*
X65230537Y-77185506D01*
X65151185Y-77088815D01*
X65054494Y-77009463D01*
X64944180Y-76950498D01*
X64824482Y-76914188D01*
X64700000Y-76901928D01*
X63785750Y-76905000D01*
X63627000Y-77063750D01*
X63373000Y-77063750D01*
X63214250Y-76905000D01*
X62300000Y-76901928D01*
X62175518Y-76914188D01*
X62055820Y-76950498D01*
X61945506Y-77009463D01*
X61848815Y-77088815D01*
X61769463Y-77185506D01*
X61710498Y-77295820D01*
X61674188Y-77415518D01*
X61661928Y-77540000D01*
X40030000Y-77540000D01*
X40030000Y-77121269D01*
X52598336Y-77121269D01*
X52657797Y-77355037D01*
X52896242Y-77465934D01*
X53151740Y-77528183D01*
X53414473Y-77539390D01*
X53674344Y-77499125D01*
X53921366Y-77408935D01*
X54022203Y-77355037D01*
X54081664Y-77121269D01*
X54057415Y-77097020D01*
X56829437Y-77097020D01*
X56949406Y-77343000D01*
X58293000Y-77343000D01*
X58293000Y-76044430D01*
X58547000Y-76044430D01*
X58547000Y-77343000D01*
X59890594Y-77343000D01*
X60010563Y-77097020D01*
X59939571Y-76878906D01*
X59795969Y-76603077D01*
X59601315Y-76360563D01*
X59363089Y-76160684D01*
X59090446Y-76011121D01*
X58793863Y-75917622D01*
X58547000Y-76044430D01*
X58293000Y-76044430D01*
X58046137Y-75917622D01*
X57749554Y-76011121D01*
X57476911Y-76160684D01*
X57238685Y-76360563D01*
X57044031Y-76603077D01*
X56900429Y-76878906D01*
X56829437Y-77097020D01*
X54057415Y-77097020D01*
X53340000Y-76379605D01*
X52598336Y-77121269D01*
X40030000Y-77121269D01*
X40030000Y-76274473D01*
X52000610Y-76274473D01*
X52040875Y-76534344D01*
X52131065Y-76781366D01*
X52184963Y-76882203D01*
X52418731Y-76941664D01*
X53160395Y-76200000D01*
X53519605Y-76200000D01*
X54261269Y-76941664D01*
X54495037Y-76882203D01*
X54605934Y-76643758D01*
X54668183Y-76388260D01*
X54679390Y-76125527D01*
X54639125Y-75865656D01*
X54548935Y-75618634D01*
X54495037Y-75517797D01*
X54261269Y-75458336D01*
X53519605Y-76200000D01*
X53160395Y-76200000D01*
X52418731Y-75458336D01*
X52184963Y-75517797D01*
X52074066Y-75756242D01*
X52011817Y-76011740D01*
X52000610Y-76274473D01*
X40030000Y-76274473D01*
X40030000Y-75278731D01*
X52598336Y-75278731D01*
X53340000Y-76020395D01*
X54081664Y-75278731D01*
X93238336Y-75278731D01*
X93980000Y-76020395D01*
X94721664Y-75278731D01*
X94662203Y-75044963D01*
X94423758Y-74934066D01*
X94168260Y-74871817D01*
X93905527Y-74860610D01*
X93645656Y-74900875D01*
X93398634Y-74991065D01*
X93297797Y-75044963D01*
X93238336Y-75278731D01*
X54081664Y-75278731D01*
X54022203Y-75044963D01*
X53783758Y-74934066D01*
X53528260Y-74871817D01*
X53265527Y-74860610D01*
X53005656Y-74900875D01*
X52758634Y-74991065D01*
X52657797Y-75044963D01*
X52598336Y-75278731D01*
X40030000Y-75278731D01*
X40030000Y-72390000D01*
X51998541Y-72390000D01*
X52024317Y-72651706D01*
X52100653Y-72903354D01*
X52224618Y-73135275D01*
X52391445Y-73338555D01*
X52594725Y-73505382D01*
X52826646Y-73629347D01*
X53078294Y-73705683D01*
X53274421Y-73725000D01*
X53405579Y-73725000D01*
X53601706Y-73705683D01*
X53853354Y-73629347D01*
X54085275Y-73505382D01*
X54288555Y-73338555D01*
X54455382Y-73135275D01*
X54579347Y-72903354D01*
X54655683Y-72651706D01*
X54681459Y-72390000D01*
X54655683Y-72128294D01*
X54579347Y-71876646D01*
X54455382Y-71644725D01*
X54288555Y-71441445D01*
X54085275Y-71274618D01*
X53853354Y-71150653D01*
X53601706Y-71074317D01*
X53405579Y-71055000D01*
X53274421Y-71055000D01*
X53078294Y-71074317D01*
X52826646Y-71150653D01*
X52594725Y-71274618D01*
X52391445Y-71441445D01*
X52224618Y-71644725D01*
X52100653Y-71876646D01*
X52024317Y-72128294D01*
X51998541Y-72390000D01*
X40030000Y-72390000D01*
X40030000Y-68580000D01*
X56777319Y-68580000D01*
X56807970Y-68891204D01*
X56898745Y-69190449D01*
X57046155Y-69466235D01*
X57149446Y-69592095D01*
X57065506Y-69636963D01*
X56968815Y-69716315D01*
X56889463Y-69813006D01*
X56830498Y-69923320D01*
X56794188Y-70043018D01*
X56781928Y-70167500D01*
X56781928Y-72072500D01*
X56794188Y-72196982D01*
X56830498Y-72316680D01*
X56889463Y-72426994D01*
X56968815Y-72523685D01*
X57065506Y-72603037D01*
X57175820Y-72662002D01*
X57295518Y-72698312D01*
X57420000Y-72710572D01*
X59420000Y-72710572D01*
X59544482Y-72698312D01*
X59664180Y-72662002D01*
X59774494Y-72603037D01*
X59871185Y-72523685D01*
X59950537Y-72426994D01*
X60009502Y-72316680D01*
X60045812Y-72196982D01*
X60058072Y-72072500D01*
X60058072Y-71120000D01*
X61656122Y-71120000D01*
X61691552Y-71479723D01*
X61796479Y-71825622D01*
X61966871Y-72144404D01*
X62196181Y-72423819D01*
X62475596Y-72653129D01*
X62794378Y-72823521D01*
X63140277Y-72928448D01*
X63409861Y-72955000D01*
X63590139Y-72955000D01*
X63859723Y-72928448D01*
X64205622Y-72823521D01*
X64524404Y-72653129D01*
X64803819Y-72423819D01*
X65033129Y-72144404D01*
X65203521Y-71825622D01*
X65308448Y-71479723D01*
X65343878Y-71120000D01*
X65308448Y-70760277D01*
X65203521Y-70414378D01*
X65033129Y-70095596D01*
X64803819Y-69816181D01*
X64524404Y-69586871D01*
X64205622Y-69416479D01*
X63859723Y-69311552D01*
X63590139Y-69285000D01*
X63409861Y-69285000D01*
X63140277Y-69311552D01*
X62794378Y-69416479D01*
X62475596Y-69586871D01*
X62196181Y-69816181D01*
X61966871Y-70095596D01*
X61796479Y-70414378D01*
X61691552Y-70760277D01*
X61656122Y-71120000D01*
X60058072Y-71120000D01*
X60058072Y-70167500D01*
X60045812Y-70043018D01*
X60009502Y-69923320D01*
X59950537Y-69813006D01*
X59871185Y-69716315D01*
X59774494Y-69636963D01*
X59690554Y-69592095D01*
X59793845Y-69466235D01*
X59941255Y-69190449D01*
X60032030Y-68891204D01*
X60062681Y-68580000D01*
X60055787Y-68510000D01*
X61661928Y-68510000D01*
X61674188Y-68634482D01*
X61710498Y-68754180D01*
X61769463Y-68864494D01*
X61848815Y-68961185D01*
X61945506Y-69040537D01*
X62055820Y-69099502D01*
X62175518Y-69135812D01*
X62300000Y-69148072D01*
X63214250Y-69145000D01*
X63373000Y-68986250D01*
X63373000Y-67437000D01*
X63627000Y-67437000D01*
X63627000Y-68986250D01*
X63785750Y-69145000D01*
X64700000Y-69148072D01*
X64824482Y-69135812D01*
X64944180Y-69099502D01*
X65054494Y-69040537D01*
X65151185Y-68961185D01*
X65230537Y-68864494D01*
X65289502Y-68754180D01*
X65325812Y-68634482D01*
X65338072Y-68510000D01*
X65337105Y-68222009D01*
X66215260Y-68222009D01*
X66215260Y-68937991D01*
X66354941Y-69640215D01*
X66628935Y-70301695D01*
X67026713Y-70897012D01*
X67532988Y-71403287D01*
X68128305Y-71801065D01*
X68789785Y-72075059D01*
X69492009Y-72214740D01*
X70207991Y-72214740D01*
X70910215Y-72075059D01*
X71571695Y-71801065D01*
X72167012Y-71403287D01*
X72673287Y-70897012D01*
X73071065Y-70301695D01*
X73345059Y-69640215D01*
X73484740Y-68937991D01*
X73484740Y-68222009D01*
X73835260Y-68222009D01*
X73835260Y-68937991D01*
X73974941Y-69640215D01*
X74248935Y-70301695D01*
X74646713Y-70897012D01*
X75152988Y-71403287D01*
X75748305Y-71801065D01*
X76409785Y-72075059D01*
X77112009Y-72214740D01*
X77827991Y-72214740D01*
X78530215Y-72075059D01*
X79191695Y-71801065D01*
X79787012Y-71403287D01*
X80070299Y-71120000D01*
X81976122Y-71120000D01*
X82011552Y-71479723D01*
X82116479Y-71825622D01*
X82286871Y-72144404D01*
X82516181Y-72423819D01*
X82795596Y-72653129D01*
X83114378Y-72823521D01*
X83460277Y-72928448D01*
X83729861Y-72955000D01*
X83910139Y-72955000D01*
X84179723Y-72928448D01*
X84525622Y-72823521D01*
X84844404Y-72653129D01*
X85123819Y-72423819D01*
X85353129Y-72144404D01*
X85523521Y-71825622D01*
X85628448Y-71479723D01*
X85663878Y-71120000D01*
X85628448Y-70760277D01*
X85523521Y-70414378D01*
X85353129Y-70095596D01*
X85123819Y-69816181D01*
X84844404Y-69586871D01*
X84525622Y-69416479D01*
X84179723Y-69311552D01*
X83910139Y-69285000D01*
X83729861Y-69285000D01*
X83460277Y-69311552D01*
X83114378Y-69416479D01*
X82795596Y-69586871D01*
X82516181Y-69816181D01*
X82286871Y-70095596D01*
X82116479Y-70414378D01*
X82011552Y-70760277D01*
X81976122Y-71120000D01*
X80070299Y-71120000D01*
X80293287Y-70897012D01*
X80691065Y-70301695D01*
X80965059Y-69640215D01*
X81104740Y-68937991D01*
X81104740Y-68510000D01*
X81981928Y-68510000D01*
X81994188Y-68634482D01*
X82030498Y-68754180D01*
X82089463Y-68864494D01*
X82168815Y-68961185D01*
X82265506Y-69040537D01*
X82375820Y-69099502D01*
X82495518Y-69135812D01*
X82620000Y-69148072D01*
X83534250Y-69145000D01*
X83693000Y-68986250D01*
X83693000Y-67437000D01*
X83947000Y-67437000D01*
X83947000Y-68986250D01*
X84105750Y-69145000D01*
X85020000Y-69148072D01*
X85144482Y-69135812D01*
X85264180Y-69099502D01*
X85374494Y-69040537D01*
X85471185Y-68961185D01*
X85550537Y-68864494D01*
X85609502Y-68754180D01*
X85645812Y-68634482D01*
X85651177Y-68580000D01*
X88527319Y-68580000D01*
X88557970Y-68891204D01*
X88648745Y-69190449D01*
X88796155Y-69466235D01*
X88899446Y-69592095D01*
X88815506Y-69636963D01*
X88718815Y-69716315D01*
X88639463Y-69813006D01*
X88580498Y-69923320D01*
X88544188Y-70043018D01*
X88531928Y-70167500D01*
X88531928Y-72072500D01*
X88544188Y-72196982D01*
X88580498Y-72316680D01*
X88639463Y-72426994D01*
X88718815Y-72523685D01*
X88815506Y-72603037D01*
X88925820Y-72662002D01*
X89045518Y-72698312D01*
X89170000Y-72710572D01*
X91170000Y-72710572D01*
X91294482Y-72698312D01*
X91414180Y-72662002D01*
X91524494Y-72603037D01*
X91621185Y-72523685D01*
X91700537Y-72426994D01*
X91720311Y-72390000D01*
X92638541Y-72390000D01*
X92664317Y-72651706D01*
X92740653Y-72903354D01*
X92864618Y-73135275D01*
X93031445Y-73338555D01*
X93234725Y-73505382D01*
X93466646Y-73629347D01*
X93718294Y-73705683D01*
X93914421Y-73725000D01*
X94045579Y-73725000D01*
X94241706Y-73705683D01*
X94493354Y-73629347D01*
X94725275Y-73505382D01*
X94928555Y-73338555D01*
X95095382Y-73135275D01*
X95219347Y-72903354D01*
X95295683Y-72651706D01*
X95321459Y-72390000D01*
X95295683Y-72128294D01*
X95219347Y-71876646D01*
X95095382Y-71644725D01*
X94928555Y-71441445D01*
X94725275Y-71274618D01*
X94493354Y-71150653D01*
X94241706Y-71074317D01*
X94045579Y-71055000D01*
X93914421Y-71055000D01*
X93718294Y-71074317D01*
X93466646Y-71150653D01*
X93234725Y-71274618D01*
X93031445Y-71441445D01*
X92864618Y-71644725D01*
X92740653Y-71876646D01*
X92664317Y-72128294D01*
X92638541Y-72390000D01*
X91720311Y-72390000D01*
X91759502Y-72316680D01*
X91795812Y-72196982D01*
X91808072Y-72072500D01*
X91808072Y-70167500D01*
X91795812Y-70043018D01*
X91759502Y-69923320D01*
X91700537Y-69813006D01*
X91621185Y-69716315D01*
X91524494Y-69636963D01*
X91440554Y-69592095D01*
X91543845Y-69466235D01*
X91691255Y-69190449D01*
X91782030Y-68891204D01*
X91812681Y-68580000D01*
X91782030Y-68268796D01*
X91691255Y-67969551D01*
X91543845Y-67693765D01*
X91345463Y-67452037D01*
X91166101Y-67304837D01*
X91351315Y-67149437D01*
X91545969Y-66906923D01*
X91689571Y-66631094D01*
X91760563Y-66412980D01*
X91640594Y-66167000D01*
X90297000Y-66167000D01*
X90297000Y-66187000D01*
X90043000Y-66187000D01*
X90043000Y-66167000D01*
X88699406Y-66167000D01*
X88579437Y-66412980D01*
X88650429Y-66631094D01*
X88794031Y-66906923D01*
X88988685Y-67149437D01*
X89173899Y-67304837D01*
X88994537Y-67452037D01*
X88796155Y-67693765D01*
X88648745Y-67969551D01*
X88557970Y-68268796D01*
X88527319Y-68580000D01*
X85651177Y-68580000D01*
X85658072Y-68510000D01*
X85655000Y-67595750D01*
X85496250Y-67437000D01*
X83947000Y-67437000D01*
X83693000Y-67437000D01*
X82143750Y-67437000D01*
X81985000Y-67595750D01*
X81981928Y-68510000D01*
X81104740Y-68510000D01*
X81104740Y-68222009D01*
X80965059Y-67519785D01*
X80691065Y-66858305D01*
X80293287Y-66262988D01*
X80140299Y-66110000D01*
X81981928Y-66110000D01*
X81985000Y-67024250D01*
X82143750Y-67183000D01*
X83693000Y-67183000D01*
X83693000Y-65633750D01*
X83947000Y-65633750D01*
X83947000Y-67183000D01*
X85496250Y-67183000D01*
X85655000Y-67024250D01*
X85658072Y-66110000D01*
X85645812Y-65985518D01*
X85609502Y-65865820D01*
X85550537Y-65755506D01*
X85477919Y-65667020D01*
X88579437Y-65667020D01*
X88699406Y-65913000D01*
X90043000Y-65913000D01*
X90043000Y-64614430D01*
X90297000Y-64614430D01*
X90297000Y-65913000D01*
X91640594Y-65913000D01*
X91748736Y-65691269D01*
X93238336Y-65691269D01*
X93297797Y-65925037D01*
X93536242Y-66035934D01*
X93791740Y-66098183D01*
X94054473Y-66109390D01*
X94314344Y-66069125D01*
X94561366Y-65978935D01*
X94662203Y-65925037D01*
X94721664Y-65691269D01*
X93980000Y-64949605D01*
X93238336Y-65691269D01*
X91748736Y-65691269D01*
X91760563Y-65667020D01*
X91689571Y-65448906D01*
X91545969Y-65173077D01*
X91351315Y-64930563D01*
X91248709Y-64844473D01*
X92640610Y-64844473D01*
X92680875Y-65104344D01*
X92771065Y-65351366D01*
X92824963Y-65452203D01*
X93058731Y-65511664D01*
X93800395Y-64770000D01*
X94159605Y-64770000D01*
X94901269Y-65511664D01*
X95135037Y-65452203D01*
X95245934Y-65213758D01*
X95308183Y-64958260D01*
X95319390Y-64695527D01*
X95279125Y-64435656D01*
X95188935Y-64188634D01*
X95135037Y-64087797D01*
X94901269Y-64028336D01*
X94159605Y-64770000D01*
X93800395Y-64770000D01*
X93058731Y-64028336D01*
X92824963Y-64087797D01*
X92714066Y-64326242D01*
X92651817Y-64581740D01*
X92640610Y-64844473D01*
X91248709Y-64844473D01*
X91113089Y-64730684D01*
X90840446Y-64581121D01*
X90543863Y-64487622D01*
X90297000Y-64614430D01*
X90043000Y-64614430D01*
X89796137Y-64487622D01*
X89499554Y-64581121D01*
X89226911Y-64730684D01*
X88988685Y-64930563D01*
X88794031Y-65173077D01*
X88650429Y-65448906D01*
X88579437Y-65667020D01*
X85477919Y-65667020D01*
X85471185Y-65658815D01*
X85374494Y-65579463D01*
X85264180Y-65520498D01*
X85144482Y-65484188D01*
X85020000Y-65471928D01*
X84105750Y-65475000D01*
X83947000Y-65633750D01*
X83693000Y-65633750D01*
X83534250Y-65475000D01*
X82620000Y-65471928D01*
X82495518Y-65484188D01*
X82375820Y-65520498D01*
X82265506Y-65579463D01*
X82168815Y-65658815D01*
X82089463Y-65755506D01*
X82030498Y-65865820D01*
X81994188Y-65985518D01*
X81981928Y-66110000D01*
X80140299Y-66110000D01*
X79787012Y-65756713D01*
X79191695Y-65358935D01*
X78530215Y-65084941D01*
X77827991Y-64945260D01*
X77112009Y-64945260D01*
X76409785Y-65084941D01*
X75748305Y-65358935D01*
X75152988Y-65756713D01*
X74646713Y-66262988D01*
X74248935Y-66858305D01*
X73974941Y-67519785D01*
X73835260Y-68222009D01*
X73484740Y-68222009D01*
X73345059Y-67519785D01*
X73071065Y-66858305D01*
X72673287Y-66262988D01*
X72167012Y-65756713D01*
X71571695Y-65358935D01*
X70910215Y-65084941D01*
X70207991Y-64945260D01*
X69492009Y-64945260D01*
X68789785Y-65084941D01*
X68128305Y-65358935D01*
X67532988Y-65756713D01*
X67026713Y-66262988D01*
X66628935Y-66858305D01*
X66354941Y-67519785D01*
X66215260Y-68222009D01*
X65337105Y-68222009D01*
X65335000Y-67595750D01*
X65176250Y-67437000D01*
X63627000Y-67437000D01*
X63373000Y-67437000D01*
X61823750Y-67437000D01*
X61665000Y-67595750D01*
X61661928Y-68510000D01*
X60055787Y-68510000D01*
X60032030Y-68268796D01*
X59941255Y-67969551D01*
X59793845Y-67693765D01*
X59595463Y-67452037D01*
X59416101Y-67304837D01*
X59601315Y-67149437D01*
X59795969Y-66906923D01*
X59939571Y-66631094D01*
X60010563Y-66412980D01*
X59890594Y-66167000D01*
X58547000Y-66167000D01*
X58547000Y-66187000D01*
X58293000Y-66187000D01*
X58293000Y-66167000D01*
X56949406Y-66167000D01*
X56829437Y-66412980D01*
X56900429Y-66631094D01*
X57044031Y-66906923D01*
X57238685Y-67149437D01*
X57423899Y-67304837D01*
X57244537Y-67452037D01*
X57046155Y-67693765D01*
X56898745Y-67969551D01*
X56807970Y-68268796D01*
X56777319Y-68580000D01*
X40030000Y-68580000D01*
X40030000Y-66110000D01*
X61661928Y-66110000D01*
X61665000Y-67024250D01*
X61823750Y-67183000D01*
X63373000Y-67183000D01*
X63373000Y-65633750D01*
X63627000Y-65633750D01*
X63627000Y-67183000D01*
X65176250Y-67183000D01*
X65335000Y-67024250D01*
X65338072Y-66110000D01*
X65325812Y-65985518D01*
X65289502Y-65865820D01*
X65230537Y-65755506D01*
X65151185Y-65658815D01*
X65054494Y-65579463D01*
X64944180Y-65520498D01*
X64824482Y-65484188D01*
X64700000Y-65471928D01*
X63785750Y-65475000D01*
X63627000Y-65633750D01*
X63373000Y-65633750D01*
X63214250Y-65475000D01*
X62300000Y-65471928D01*
X62175518Y-65484188D01*
X62055820Y-65520498D01*
X61945506Y-65579463D01*
X61848815Y-65658815D01*
X61769463Y-65755506D01*
X61710498Y-65865820D01*
X61674188Y-65985518D01*
X61661928Y-66110000D01*
X40030000Y-66110000D01*
X40030000Y-65691269D01*
X52598336Y-65691269D01*
X52657797Y-65925037D01*
X52896242Y-66035934D01*
X53151740Y-66098183D01*
X53414473Y-66109390D01*
X53674344Y-66069125D01*
X53921366Y-65978935D01*
X54022203Y-65925037D01*
X54081664Y-65691269D01*
X54057415Y-65667020D01*
X56829437Y-65667020D01*
X56949406Y-65913000D01*
X58293000Y-65913000D01*
X58293000Y-64614430D01*
X58547000Y-64614430D01*
X58547000Y-65913000D01*
X59890594Y-65913000D01*
X60010563Y-65667020D01*
X59939571Y-65448906D01*
X59795969Y-65173077D01*
X59601315Y-64930563D01*
X59363089Y-64730684D01*
X59090446Y-64581121D01*
X58793863Y-64487622D01*
X58547000Y-64614430D01*
X58293000Y-64614430D01*
X58046137Y-64487622D01*
X57749554Y-64581121D01*
X57476911Y-64730684D01*
X57238685Y-64930563D01*
X57044031Y-65173077D01*
X56900429Y-65448906D01*
X56829437Y-65667020D01*
X54057415Y-65667020D01*
X53340000Y-64949605D01*
X52598336Y-65691269D01*
X40030000Y-65691269D01*
X40030000Y-64844473D01*
X52000610Y-64844473D01*
X52040875Y-65104344D01*
X52131065Y-65351366D01*
X52184963Y-65452203D01*
X52418731Y-65511664D01*
X53160395Y-64770000D01*
X53519605Y-64770000D01*
X54261269Y-65511664D01*
X54495037Y-65452203D01*
X54605934Y-65213758D01*
X54668183Y-64958260D01*
X54679390Y-64695527D01*
X54639125Y-64435656D01*
X54548935Y-64188634D01*
X54495037Y-64087797D01*
X54261269Y-64028336D01*
X53519605Y-64770000D01*
X53160395Y-64770000D01*
X52418731Y-64028336D01*
X52184963Y-64087797D01*
X52074066Y-64326242D01*
X52011817Y-64581740D01*
X52000610Y-64844473D01*
X40030000Y-64844473D01*
X40030000Y-63848731D01*
X52598336Y-63848731D01*
X53340000Y-64590395D01*
X54081664Y-63848731D01*
X93238336Y-63848731D01*
X93980000Y-64590395D01*
X94721664Y-63848731D01*
X94662203Y-63614963D01*
X94423758Y-63504066D01*
X94168260Y-63441817D01*
X93905527Y-63430610D01*
X93645656Y-63470875D01*
X93398634Y-63561065D01*
X93297797Y-63614963D01*
X93238336Y-63848731D01*
X54081664Y-63848731D01*
X54022203Y-63614963D01*
X53783758Y-63504066D01*
X53528260Y-63441817D01*
X53265527Y-63430610D01*
X53005656Y-63470875D01*
X52758634Y-63561065D01*
X52657797Y-63614963D01*
X52598336Y-63848731D01*
X40030000Y-63848731D01*
X40030000Y-56350000D01*
X51901928Y-56350000D01*
X51901928Y-57950000D01*
X51914188Y-58074482D01*
X51950498Y-58194180D01*
X52009463Y-58304494D01*
X52088815Y-58401185D01*
X52185506Y-58480537D01*
X52295820Y-58539502D01*
X52415518Y-58575812D01*
X52540000Y-58588072D01*
X54140000Y-58588072D01*
X54264482Y-58575812D01*
X54384180Y-58539502D01*
X54494494Y-58480537D01*
X54591185Y-58401185D01*
X54670537Y-58304494D01*
X54729502Y-58194180D01*
X54765812Y-58074482D01*
X54767581Y-58056518D01*
X54860392Y-58169608D01*
X55078899Y-58348932D01*
X55328192Y-58482182D01*
X55598691Y-58564236D01*
X55809508Y-58585000D01*
X55950492Y-58585000D01*
X56161309Y-58564236D01*
X56431808Y-58482182D01*
X56681101Y-58348932D01*
X56899608Y-58169608D01*
X57078932Y-57951101D01*
X57150000Y-57818142D01*
X57221068Y-57951101D01*
X57400392Y-58169608D01*
X57618899Y-58348932D01*
X57868192Y-58482182D01*
X58138691Y-58564236D01*
X58349508Y-58585000D01*
X58490492Y-58585000D01*
X58701309Y-58564236D01*
X58971808Y-58482182D01*
X59221101Y-58348932D01*
X59439608Y-58169608D01*
X59618932Y-57951101D01*
X59690000Y-57818142D01*
X59761068Y-57951101D01*
X59940392Y-58169608D01*
X60158899Y-58348932D01*
X60408192Y-58482182D01*
X60678691Y-58564236D01*
X60889508Y-58585000D01*
X61030492Y-58585000D01*
X61241309Y-58564236D01*
X61511808Y-58482182D01*
X61761101Y-58348932D01*
X61979608Y-58169608D01*
X62158932Y-57951101D01*
X62230000Y-57818142D01*
X62301068Y-57951101D01*
X62480392Y-58169608D01*
X62698899Y-58348932D01*
X62948192Y-58482182D01*
X63218691Y-58564236D01*
X63429508Y-58585000D01*
X63570492Y-58585000D01*
X63781309Y-58564236D01*
X64051808Y-58482182D01*
X64301101Y-58348932D01*
X64519608Y-58169608D01*
X64698932Y-57951101D01*
X64770000Y-57818142D01*
X64841068Y-57951101D01*
X65020392Y-58169608D01*
X65238899Y-58348932D01*
X65488192Y-58482182D01*
X65758691Y-58564236D01*
X65969508Y-58585000D01*
X66110492Y-58585000D01*
X66321309Y-58564236D01*
X66591808Y-58482182D01*
X66841101Y-58348932D01*
X67059608Y-58169608D01*
X67238932Y-57951101D01*
X67310000Y-57818142D01*
X67381068Y-57951101D01*
X67560392Y-58169608D01*
X67778899Y-58348932D01*
X68028192Y-58482182D01*
X68298691Y-58564236D01*
X68509508Y-58585000D01*
X68650492Y-58585000D01*
X68861309Y-58564236D01*
X69131808Y-58482182D01*
X69381101Y-58348932D01*
X69599608Y-58169608D01*
X69778932Y-57951101D01*
X69852579Y-57813318D01*
X69967615Y-58005131D01*
X70156586Y-58213519D01*
X70382580Y-58381037D01*
X70636913Y-58501246D01*
X70770961Y-58541904D01*
X70993000Y-58419915D01*
X70993000Y-57277000D01*
X71247000Y-57277000D01*
X71247000Y-58419915D01*
X71469039Y-58541904D01*
X71603087Y-58501246D01*
X71735838Y-58438502D01*
X86521103Y-58438502D01*
X86857260Y-58907657D01*
X87487177Y-59248000D01*
X88171388Y-59458913D01*
X88883599Y-59532290D01*
X89596441Y-59465311D01*
X90282518Y-59260552D01*
X90915466Y-58925879D01*
X90942740Y-58907657D01*
X91278897Y-58438502D01*
X88900000Y-56059605D01*
X86521103Y-58438502D01*
X71735838Y-58438502D01*
X71857420Y-58381037D01*
X72083414Y-58213519D01*
X72272385Y-58005131D01*
X72417070Y-57763881D01*
X72511909Y-57499040D01*
X72390624Y-57277000D01*
X71247000Y-57277000D01*
X70993000Y-57277000D01*
X70973000Y-57277000D01*
X70973000Y-57023000D01*
X70993000Y-57023000D01*
X70993000Y-55880085D01*
X71247000Y-55880085D01*
X71247000Y-57023000D01*
X72390624Y-57023000D01*
X72511909Y-56800960D01*
X72417070Y-56536119D01*
X72272385Y-56294869D01*
X72083414Y-56086481D01*
X71857420Y-55918963D01*
X71740284Y-55863599D01*
X85247710Y-55863599D01*
X85314689Y-56576441D01*
X85519448Y-57262518D01*
X85854121Y-57895466D01*
X85872343Y-57922740D01*
X86341498Y-58258897D01*
X88720395Y-55880000D01*
X89079605Y-55880000D01*
X91458502Y-58258897D01*
X91927657Y-57922740D01*
X92268000Y-57292823D01*
X92478913Y-56608612D01*
X92552290Y-55896401D01*
X92485311Y-55183559D01*
X92280552Y-54497482D01*
X91945879Y-53864534D01*
X91927657Y-53837260D01*
X91458502Y-53501103D01*
X89079605Y-55880000D01*
X88720395Y-55880000D01*
X86341498Y-53501103D01*
X85872343Y-53837260D01*
X85532000Y-54467177D01*
X85321087Y-55151388D01*
X85247710Y-55863599D01*
X71740284Y-55863599D01*
X71603087Y-55798754D01*
X71469039Y-55758096D01*
X71247000Y-55880085D01*
X70993000Y-55880085D01*
X70770961Y-55758096D01*
X70636913Y-55798754D01*
X70382580Y-55918963D01*
X70156586Y-56086481D01*
X69967615Y-56294869D01*
X69852579Y-56486682D01*
X69778932Y-56348899D01*
X69599608Y-56130392D01*
X69381101Y-55951068D01*
X69131808Y-55817818D01*
X68861309Y-55735764D01*
X68650492Y-55715000D01*
X68509508Y-55715000D01*
X68298691Y-55735764D01*
X68028192Y-55817818D01*
X67778899Y-55951068D01*
X67560392Y-56130392D01*
X67381068Y-56348899D01*
X67310000Y-56481858D01*
X67238932Y-56348899D01*
X67059608Y-56130392D01*
X66841101Y-55951068D01*
X66591808Y-55817818D01*
X66321309Y-55735764D01*
X66110492Y-55715000D01*
X65969508Y-55715000D01*
X65758691Y-55735764D01*
X65488192Y-55817818D01*
X65238899Y-55951068D01*
X65020392Y-56130392D01*
X64841068Y-56348899D01*
X64770000Y-56481858D01*
X64698932Y-56348899D01*
X64519608Y-56130392D01*
X64301101Y-55951068D01*
X64051808Y-55817818D01*
X63781309Y-55735764D01*
X63570492Y-55715000D01*
X63429508Y-55715000D01*
X63218691Y-55735764D01*
X62948192Y-55817818D01*
X62698899Y-55951068D01*
X62480392Y-56130392D01*
X62301068Y-56348899D01*
X62230000Y-56481858D01*
X62158932Y-56348899D01*
X61979608Y-56130392D01*
X61761101Y-55951068D01*
X61511808Y-55817818D01*
X61241309Y-55735764D01*
X61030492Y-55715000D01*
X60889508Y-55715000D01*
X60678691Y-55735764D01*
X60408192Y-55817818D01*
X60158899Y-55951068D01*
X59940392Y-56130392D01*
X59761068Y-56348899D01*
X59690000Y-56481858D01*
X59618932Y-56348899D01*
X59439608Y-56130392D01*
X59221101Y-55951068D01*
X58971808Y-55817818D01*
X58701309Y-55735764D01*
X58490492Y-55715000D01*
X58349508Y-55715000D01*
X58138691Y-55735764D01*
X57868192Y-55817818D01*
X57618899Y-55951068D01*
X57400392Y-56130392D01*
X57221068Y-56348899D01*
X57150000Y-56481858D01*
X57078932Y-56348899D01*
X56899608Y-56130392D01*
X56681101Y-55951068D01*
X56431808Y-55817818D01*
X56161309Y-55735764D01*
X55950492Y-55715000D01*
X55809508Y-55715000D01*
X55598691Y-55735764D01*
X55328192Y-55817818D01*
X55078899Y-55951068D01*
X54860392Y-56130392D01*
X54767581Y-56243482D01*
X54765812Y-56225518D01*
X54729502Y-56105820D01*
X54670537Y-55995506D01*
X54591185Y-55898815D01*
X54494494Y-55819463D01*
X54384180Y-55760498D01*
X54264482Y-55724188D01*
X54140000Y-55711928D01*
X52540000Y-55711928D01*
X52415518Y-55724188D01*
X52295820Y-55760498D01*
X52185506Y-55819463D01*
X52088815Y-55898815D01*
X52009463Y-55995506D01*
X51950498Y-56105820D01*
X51914188Y-56225518D01*
X51901928Y-56350000D01*
X40030000Y-56350000D01*
X40030000Y-53321498D01*
X86521103Y-53321498D01*
X88900000Y-55700395D01*
X91278897Y-53321498D01*
X90942740Y-52852343D01*
X90312823Y-52512000D01*
X89628612Y-52301087D01*
X88916401Y-52227710D01*
X88203559Y-52294689D01*
X87517482Y-52499448D01*
X86884534Y-52834121D01*
X86857260Y-52852343D01*
X86521103Y-53321498D01*
X40030000Y-53321498D01*
X40030000Y-49530000D01*
X51898057Y-49530000D01*
X51925764Y-49811309D01*
X52007818Y-50081808D01*
X52141068Y-50331101D01*
X52320392Y-50549608D01*
X52538899Y-50728932D01*
X52788192Y-50862182D01*
X53058691Y-50944236D01*
X53269508Y-50965000D01*
X53410492Y-50965000D01*
X53621309Y-50944236D01*
X53891808Y-50862182D01*
X54141101Y-50728932D01*
X54359608Y-50549608D01*
X54538932Y-50331101D01*
X54610000Y-50198142D01*
X54681068Y-50331101D01*
X54860392Y-50549608D01*
X55078899Y-50728932D01*
X55328192Y-50862182D01*
X55598691Y-50944236D01*
X55809508Y-50965000D01*
X55950492Y-50965000D01*
X56161309Y-50944236D01*
X56431808Y-50862182D01*
X56681101Y-50728932D01*
X56899608Y-50549608D01*
X57078932Y-50331101D01*
X57150000Y-50198142D01*
X57221068Y-50331101D01*
X57400392Y-50549608D01*
X57618899Y-50728932D01*
X57868192Y-50862182D01*
X58138691Y-50944236D01*
X58349508Y-50965000D01*
X58490492Y-50965000D01*
X58701309Y-50944236D01*
X58971808Y-50862182D01*
X59221101Y-50728932D01*
X59439608Y-50549608D01*
X59618932Y-50331101D01*
X59692579Y-50193318D01*
X59807615Y-50385131D01*
X59996586Y-50593519D01*
X60222580Y-50761037D01*
X60476913Y-50881246D01*
X60610961Y-50921904D01*
X60833000Y-50799915D01*
X60833000Y-49657000D01*
X60813000Y-49657000D01*
X60813000Y-49403000D01*
X60833000Y-49403000D01*
X60833000Y-48260085D01*
X61087000Y-48260085D01*
X61087000Y-49403000D01*
X61107000Y-49403000D01*
X61107000Y-49657000D01*
X61087000Y-49657000D01*
X61087000Y-50799915D01*
X61309039Y-50921904D01*
X61443087Y-50881246D01*
X61697420Y-50761037D01*
X61923414Y-50593519D01*
X62112385Y-50385131D01*
X62227421Y-50193318D01*
X62301068Y-50331101D01*
X62480392Y-50549608D01*
X62698899Y-50728932D01*
X62948192Y-50862182D01*
X63218691Y-50944236D01*
X63429508Y-50965000D01*
X63570492Y-50965000D01*
X63781309Y-50944236D01*
X64051808Y-50862182D01*
X64301101Y-50728932D01*
X64519608Y-50549608D01*
X64698932Y-50331101D01*
X64770000Y-50198142D01*
X64841068Y-50331101D01*
X65020392Y-50549608D01*
X65238899Y-50728932D01*
X65488192Y-50862182D01*
X65758691Y-50944236D01*
X65969508Y-50965000D01*
X66110492Y-50965000D01*
X66321309Y-50944236D01*
X66591808Y-50862182D01*
X66841101Y-50728932D01*
X67059608Y-50549608D01*
X67238932Y-50331101D01*
X67310000Y-50198142D01*
X67381068Y-50331101D01*
X67560392Y-50549608D01*
X67778899Y-50728932D01*
X68028192Y-50862182D01*
X68298691Y-50944236D01*
X68509508Y-50965000D01*
X68650492Y-50965000D01*
X68861309Y-50944236D01*
X69131808Y-50862182D01*
X69381101Y-50728932D01*
X69599608Y-50549608D01*
X69778932Y-50331101D01*
X69850000Y-50198142D01*
X69921068Y-50331101D01*
X70100392Y-50549608D01*
X70318899Y-50728932D01*
X70568192Y-50862182D01*
X70838691Y-50944236D01*
X71049508Y-50965000D01*
X71190492Y-50965000D01*
X71401309Y-50944236D01*
X71671808Y-50862182D01*
X71921101Y-50728932D01*
X72139608Y-50549608D01*
X72318932Y-50331101D01*
X72452182Y-50081808D01*
X72534236Y-49811309D01*
X72561943Y-49530000D01*
X72534236Y-49248691D01*
X72452182Y-48978192D01*
X72318932Y-48728899D01*
X72139608Y-48510392D01*
X71921101Y-48331068D01*
X71671808Y-48197818D01*
X71401309Y-48115764D01*
X71190492Y-48095000D01*
X71049508Y-48095000D01*
X70838691Y-48115764D01*
X70568192Y-48197818D01*
X70318899Y-48331068D01*
X70100392Y-48510392D01*
X69921068Y-48728899D01*
X69850000Y-48861858D01*
X69778932Y-48728899D01*
X69599608Y-48510392D01*
X69381101Y-48331068D01*
X69131808Y-48197818D01*
X68861309Y-48115764D01*
X68650492Y-48095000D01*
X68509508Y-48095000D01*
X68298691Y-48115764D01*
X68028192Y-48197818D01*
X67778899Y-48331068D01*
X67560392Y-48510392D01*
X67381068Y-48728899D01*
X67310000Y-48861858D01*
X67238932Y-48728899D01*
X67059608Y-48510392D01*
X66841101Y-48331068D01*
X66591808Y-48197818D01*
X66321309Y-48115764D01*
X66110492Y-48095000D01*
X65969508Y-48095000D01*
X65758691Y-48115764D01*
X65488192Y-48197818D01*
X65238899Y-48331068D01*
X65020392Y-48510392D01*
X64841068Y-48728899D01*
X64770000Y-48861858D01*
X64698932Y-48728899D01*
X64519608Y-48510392D01*
X64301101Y-48331068D01*
X64051808Y-48197818D01*
X63781309Y-48115764D01*
X63570492Y-48095000D01*
X63429508Y-48095000D01*
X63218691Y-48115764D01*
X62948192Y-48197818D01*
X62698899Y-48331068D01*
X62480392Y-48510392D01*
X62301068Y-48728899D01*
X62227421Y-48866682D01*
X62112385Y-48674869D01*
X61923414Y-48466481D01*
X61697420Y-48298963D01*
X61443087Y-48178754D01*
X61309039Y-48138096D01*
X61087000Y-48260085D01*
X60833000Y-48260085D01*
X60610961Y-48138096D01*
X60476913Y-48178754D01*
X60222580Y-48298963D01*
X59996586Y-48466481D01*
X59807615Y-48674869D01*
X59692579Y-48866682D01*
X59618932Y-48728899D01*
X59439608Y-48510392D01*
X59221101Y-48331068D01*
X58971808Y-48197818D01*
X58701309Y-48115764D01*
X58490492Y-48095000D01*
X58349508Y-48095000D01*
X58138691Y-48115764D01*
X57868192Y-48197818D01*
X57618899Y-48331068D01*
X57400392Y-48510392D01*
X57221068Y-48728899D01*
X57150000Y-48861858D01*
X57078932Y-48728899D01*
X56899608Y-48510392D01*
X56681101Y-48331068D01*
X56431808Y-48197818D01*
X56161309Y-48115764D01*
X55950492Y-48095000D01*
X55809508Y-48095000D01*
X55598691Y-48115764D01*
X55328192Y-48197818D01*
X55078899Y-48331068D01*
X54860392Y-48510392D01*
X54681068Y-48728899D01*
X54610000Y-48861858D01*
X54538932Y-48728899D01*
X54359608Y-48510392D01*
X54141101Y-48331068D01*
X53891808Y-48197818D01*
X53621309Y-48115764D01*
X53410492Y-48095000D01*
X53269508Y-48095000D01*
X53058691Y-48115764D01*
X52788192Y-48197818D01*
X52538899Y-48331068D01*
X52320392Y-48510392D01*
X52141068Y-48728899D01*
X52007818Y-48978192D01*
X51925764Y-49248691D01*
X51898057Y-49530000D01*
X40030000Y-49530000D01*
X40030000Y-42822009D01*
X47165260Y-42822009D01*
X47165260Y-43537991D01*
X47304941Y-44240215D01*
X47578935Y-44901695D01*
X47976713Y-45497012D01*
X48482988Y-46003287D01*
X49078305Y-46401065D01*
X49739785Y-46675059D01*
X50442009Y-46814740D01*
X51157991Y-46814740D01*
X51860215Y-46675059D01*
X52521695Y-46401065D01*
X53117012Y-46003287D01*
X53623287Y-45497012D01*
X54021065Y-44901695D01*
X54295059Y-44240215D01*
X54434740Y-43537991D01*
X54434740Y-42822009D01*
X54785260Y-42822009D01*
X54785260Y-43537991D01*
X54924941Y-44240215D01*
X55198935Y-44901695D01*
X55596713Y-45497012D01*
X56102988Y-46003287D01*
X56698305Y-46401065D01*
X57359785Y-46675059D01*
X58062009Y-46814740D01*
X58777991Y-46814740D01*
X59480215Y-46675059D01*
X60141695Y-46401065D01*
X60737012Y-46003287D01*
X61243287Y-45497012D01*
X61641065Y-44901695D01*
X61915059Y-44240215D01*
X62054740Y-43537991D01*
X62054740Y-42822009D01*
X62405260Y-42822009D01*
X62405260Y-43537991D01*
X62544941Y-44240215D01*
X62818935Y-44901695D01*
X63216713Y-45497012D01*
X63722988Y-46003287D01*
X64318305Y-46401065D01*
X64979785Y-46675059D01*
X65682009Y-46814740D01*
X66397991Y-46814740D01*
X67100215Y-46675059D01*
X67761695Y-46401065D01*
X68357012Y-46003287D01*
X68863287Y-45497012D01*
X69261065Y-44901695D01*
X69535059Y-44240215D01*
X69674740Y-43537991D01*
X69674740Y-42822009D01*
X70025260Y-42822009D01*
X70025260Y-43537991D01*
X70164941Y-44240215D01*
X70438935Y-44901695D01*
X70836713Y-45497012D01*
X71342988Y-46003287D01*
X71938305Y-46401065D01*
X72599785Y-46675059D01*
X73302009Y-46814740D01*
X74017991Y-46814740D01*
X74720215Y-46675059D01*
X75381695Y-46401065D01*
X75977012Y-46003287D01*
X76483287Y-45497012D01*
X76881065Y-44901695D01*
X77155059Y-44240215D01*
X77294740Y-43537991D01*
X77294740Y-42822009D01*
X77645260Y-42822009D01*
X77645260Y-43537991D01*
X77784941Y-44240215D01*
X78058935Y-44901695D01*
X78456713Y-45497012D01*
X78962988Y-46003287D01*
X79558305Y-46401065D01*
X80219785Y-46675059D01*
X80922009Y-46814740D01*
X81637991Y-46814740D01*
X82340215Y-46675059D01*
X83001695Y-46401065D01*
X83597012Y-46003287D01*
X84103287Y-45497012D01*
X84501065Y-44901695D01*
X84775059Y-44240215D01*
X84914740Y-43537991D01*
X84914740Y-42822009D01*
X85265260Y-42822009D01*
X85265260Y-43537991D01*
X85404941Y-44240215D01*
X85678935Y-44901695D01*
X86076713Y-45497012D01*
X86582988Y-46003287D01*
X87178305Y-46401065D01*
X87839785Y-46675059D01*
X88542009Y-46814740D01*
X89257991Y-46814740D01*
X89960215Y-46675059D01*
X90621695Y-46401065D01*
X91217012Y-46003287D01*
X91723287Y-45497012D01*
X92121065Y-44901695D01*
X92395059Y-44240215D01*
X92534740Y-43537991D01*
X92534740Y-42822009D01*
X92395059Y-42119785D01*
X92121065Y-41458305D01*
X91723287Y-40862988D01*
X91217012Y-40356713D01*
X90621695Y-39958935D01*
X89960215Y-39684941D01*
X89257991Y-39545260D01*
X88542009Y-39545260D01*
X87839785Y-39684941D01*
X87178305Y-39958935D01*
X86582988Y-40356713D01*
X86076713Y-40862988D01*
X85678935Y-41458305D01*
X85404941Y-42119785D01*
X85265260Y-42822009D01*
X84914740Y-42822009D01*
X84775059Y-42119785D01*
X84501065Y-41458305D01*
X84103287Y-40862988D01*
X83597012Y-40356713D01*
X83001695Y-39958935D01*
X82340215Y-39684941D01*
X81637991Y-39545260D01*
X80922009Y-39545260D01*
X80219785Y-39684941D01*
X79558305Y-39958935D01*
X78962988Y-40356713D01*
X78456713Y-40862988D01*
X78058935Y-41458305D01*
X77784941Y-42119785D01*
X77645260Y-42822009D01*
X77294740Y-42822009D01*
X77155059Y-42119785D01*
X76881065Y-41458305D01*
X76483287Y-40862988D01*
X75977012Y-40356713D01*
X75381695Y-39958935D01*
X74720215Y-39684941D01*
X74017991Y-39545260D01*
X73302009Y-39545260D01*
X72599785Y-39684941D01*
X71938305Y-39958935D01*
X71342988Y-40356713D01*
X70836713Y-40862988D01*
X70438935Y-41458305D01*
X70164941Y-42119785D01*
X70025260Y-42822009D01*
X69674740Y-42822009D01*
X69535059Y-42119785D01*
X69261065Y-41458305D01*
X68863287Y-40862988D01*
X68357012Y-40356713D01*
X67761695Y-39958935D01*
X67100215Y-39684941D01*
X66397991Y-39545260D01*
X65682009Y-39545260D01*
X64979785Y-39684941D01*
X64318305Y-39958935D01*
X63722988Y-40356713D01*
X63216713Y-40862988D01*
X62818935Y-41458305D01*
X62544941Y-42119785D01*
X62405260Y-42822009D01*
X62054740Y-42822009D01*
X61915059Y-42119785D01*
X61641065Y-41458305D01*
X61243287Y-40862988D01*
X60737012Y-40356713D01*
X60141695Y-39958935D01*
X59480215Y-39684941D01*
X58777991Y-39545260D01*
X58062009Y-39545260D01*
X57359785Y-39684941D01*
X56698305Y-39958935D01*
X56102988Y-40356713D01*
X55596713Y-40862988D01*
X55198935Y-41458305D01*
X54924941Y-42119785D01*
X54785260Y-42822009D01*
X54434740Y-42822009D01*
X54295059Y-42119785D01*
X54021065Y-41458305D01*
X53623287Y-40862988D01*
X53117012Y-40356713D01*
X52521695Y-39958935D01*
X51860215Y-39684941D01*
X51157991Y-39545260D01*
X50442009Y-39545260D01*
X49739785Y-39684941D01*
X49078305Y-39958935D01*
X48482988Y-40356713D01*
X47976713Y-40862988D01*
X47578935Y-41458305D01*
X47304941Y-42119785D01*
X47165260Y-42822009D01*
X40030000Y-42822009D01*
X40030000Y-34005852D01*
X42835000Y-34005852D01*
X42835000Y-34574148D01*
X42945869Y-35131523D01*
X43163346Y-35656560D01*
X43479074Y-36129080D01*
X43880920Y-36530926D01*
X44353440Y-36846654D01*
X44878477Y-37064131D01*
X45435852Y-37175000D01*
X46004148Y-37175000D01*
X46561523Y-37064131D01*
X47086560Y-36846654D01*
X47559080Y-36530926D01*
X47960926Y-36129080D01*
X48276654Y-35656560D01*
X48494131Y-35131523D01*
X48605000Y-34574148D01*
X48605000Y-34005852D01*
X96175000Y-34005852D01*
X96175000Y-34574148D01*
X96285869Y-35131523D01*
X96503346Y-35656560D01*
X96819074Y-36129080D01*
X97220920Y-36530926D01*
X97693440Y-36846654D01*
X98218477Y-37064131D01*
X98775852Y-37175000D01*
X99344148Y-37175000D01*
X99901523Y-37064131D01*
X100426560Y-36846654D01*
X100899080Y-36530926D01*
X101300926Y-36129080D01*
X101616654Y-35656560D01*
X101834131Y-35131523D01*
X101945000Y-34574148D01*
X101945000Y-34005852D01*
X101834131Y-33448477D01*
X101616654Y-32923440D01*
X101300926Y-32450920D01*
X100899080Y-32049074D01*
X100426560Y-31733346D01*
X99901523Y-31515869D01*
X99344148Y-31405000D01*
X98775852Y-31405000D01*
X98218477Y-31515869D01*
X97693440Y-31733346D01*
X97220920Y-32049074D01*
X96819074Y-32450920D01*
X96503346Y-32923440D01*
X96285869Y-33448477D01*
X96175000Y-34005852D01*
X48605000Y-34005852D01*
X48494131Y-33448477D01*
X48276654Y-32923440D01*
X47960926Y-32450920D01*
X47559080Y-32049074D01*
X47086560Y-31733346D01*
X46561523Y-31515869D01*
X46004148Y-31405000D01*
X45435852Y-31405000D01*
X44878477Y-31515869D01*
X44353440Y-31733346D01*
X43880920Y-32049074D01*
X43479074Y-32450920D01*
X43163346Y-32923440D01*
X42945869Y-33448477D01*
X42835000Y-34005852D01*
X40030000Y-34005852D01*
X40030000Y-28600000D01*
X104750000Y-28600000D01*
X104750001Y-118720000D01*
X104750001Y-118720000D01*
G37*
X104750001Y-118720000D02*
X40030000Y-118720000D01*
X40030000Y-112745852D01*
X42835000Y-112745852D01*
X42835000Y-113314148D01*
X42945869Y-113871523D01*
X43163346Y-114396560D01*
X43479074Y-114869080D01*
X43880920Y-115270926D01*
X44353440Y-115586654D01*
X44878477Y-115804131D01*
X45435852Y-115915000D01*
X46004148Y-115915000D01*
X46561523Y-115804131D01*
X47086560Y-115586654D01*
X47559080Y-115270926D01*
X47960926Y-114869080D01*
X48276654Y-114396560D01*
X48494131Y-113871523D01*
X48605000Y-113314148D01*
X48605000Y-112745852D01*
X96175000Y-112745852D01*
X96175000Y-113314148D01*
X96285869Y-113871523D01*
X96503346Y-114396560D01*
X96819074Y-114869080D01*
X97220920Y-115270926D01*
X97693440Y-115586654D01*
X98218477Y-115804131D01*
X98775852Y-115915000D01*
X99344148Y-115915000D01*
X99901523Y-115804131D01*
X100426560Y-115586654D01*
X100899080Y-115270926D01*
X101300926Y-114869080D01*
X101616654Y-114396560D01*
X101834131Y-113871523D01*
X101945000Y-113314148D01*
X101945000Y-112745852D01*
X101834131Y-112188477D01*
X101616654Y-111663440D01*
X101300926Y-111190920D01*
X100899080Y-110789074D01*
X100426560Y-110473346D01*
X99901523Y-110255869D01*
X99344148Y-110145000D01*
X98775852Y-110145000D01*
X98218477Y-110255869D01*
X97693440Y-110473346D01*
X97220920Y-110789074D01*
X96819074Y-111190920D01*
X96503346Y-111663440D01*
X96285869Y-112188477D01*
X96175000Y-112745852D01*
X48605000Y-112745852D01*
X48494131Y-112188477D01*
X48276654Y-111663440D01*
X47960926Y-111190920D01*
X47559080Y-110789074D01*
X47086560Y-110473346D01*
X46561523Y-110255869D01*
X46004148Y-110145000D01*
X45435852Y-110145000D01*
X44878477Y-110255869D01*
X44353440Y-110473346D01*
X43880920Y-110789074D01*
X43479074Y-111190920D01*
X43163346Y-111663440D01*
X42945869Y-112188477D01*
X42835000Y-112745852D01*
X40030000Y-112745852D01*
X40030000Y-106680000D01*
X51998541Y-106680000D01*
X52024317Y-106941706D01*
X52100653Y-107193354D01*
X52224618Y-107425275D01*
X52391445Y-107628555D01*
X52594725Y-107795382D01*
X52826646Y-107919347D01*
X53078294Y-107995683D01*
X53274421Y-108015000D01*
X53405579Y-108015000D01*
X53601706Y-107995683D01*
X53853354Y-107919347D01*
X54085275Y-107795382D01*
X54288555Y-107628555D01*
X54455382Y-107425275D01*
X54579347Y-107193354D01*
X54655683Y-106941706D01*
X54681459Y-106680000D01*
X54655683Y-106418294D01*
X54579347Y-106166646D01*
X54455382Y-105934725D01*
X54288555Y-105731445D01*
X54085275Y-105564618D01*
X53853354Y-105440653D01*
X53601706Y-105364317D01*
X53405579Y-105345000D01*
X53274421Y-105345000D01*
X53078294Y-105364317D01*
X52826646Y-105440653D01*
X52594725Y-105564618D01*
X52391445Y-105731445D01*
X52224618Y-105934725D01*
X52100653Y-106166646D01*
X52024317Y-106418294D01*
X51998541Y-106680000D01*
X40030000Y-106680000D01*
X40030000Y-102870000D01*
X56777319Y-102870000D01*
X56807970Y-103181204D01*
X56898745Y-103480449D01*
X57046155Y-103756235D01*
X57149446Y-103882095D01*
X57065506Y-103926963D01*
X56968815Y-104006315D01*
X56889463Y-104103006D01*
X56830498Y-104213320D01*
X56794188Y-104333018D01*
X56781928Y-104457500D01*
X56781928Y-106362500D01*
X56794188Y-106486982D01*
X56830498Y-106606680D01*
X56889463Y-106716994D01*
X56968815Y-106813685D01*
X57065506Y-106893037D01*
X57175820Y-106952002D01*
X57295518Y-106988312D01*
X57420000Y-107000572D01*
X59420000Y-107000572D01*
X59544482Y-106988312D01*
X59664180Y-106952002D01*
X59774494Y-106893037D01*
X59871185Y-106813685D01*
X59950537Y-106716994D01*
X60009502Y-106606680D01*
X60045812Y-106486982D01*
X60058072Y-106362500D01*
X60058072Y-105410000D01*
X61656122Y-105410000D01*
X61691552Y-105769723D01*
X61796479Y-106115622D01*
X61966871Y-106434404D01*
X62196181Y-106713819D01*
X62475596Y-106943129D01*
X62794378Y-107113521D01*
X63140277Y-107218448D01*
X63409861Y-107245000D01*
X63590139Y-107245000D01*
X63859723Y-107218448D01*
X64205622Y-107113521D01*
X64524404Y-106943129D01*
X64803819Y-106713819D01*
X65033129Y-106434404D01*
X65203521Y-106115622D01*
X65308448Y-105769723D01*
X65343878Y-105410000D01*
X65308448Y-105050277D01*
X65203521Y-104704378D01*
X65033129Y-104385596D01*
X64803819Y-104106181D01*
X64524404Y-103876871D01*
X64205622Y-103706479D01*
X63859723Y-103601552D01*
X63590139Y-103575000D01*
X63409861Y-103575000D01*
X63140277Y-103601552D01*
X62794378Y-103706479D01*
X62475596Y-103876871D01*
X62196181Y-104106181D01*
X61966871Y-104385596D01*
X61796479Y-104704378D01*
X61691552Y-105050277D01*
X61656122Y-105410000D01*
X60058072Y-105410000D01*
X60058072Y-104457500D01*
X60045812Y-104333018D01*
X60009502Y-104213320D01*
X59950537Y-104103006D01*
X59871185Y-104006315D01*
X59774494Y-103926963D01*
X59690554Y-103882095D01*
X59793845Y-103756235D01*
X59941255Y-103480449D01*
X60032030Y-103181204D01*
X60062681Y-102870000D01*
X60055787Y-102800000D01*
X61661928Y-102800000D01*
X61674188Y-102924482D01*
X61710498Y-103044180D01*
X61769463Y-103154494D01*
X61848815Y-103251185D01*
X61945506Y-103330537D01*
X62055820Y-103389502D01*
X62175518Y-103425812D01*
X62300000Y-103438072D01*
X63214250Y-103435000D01*
X63373000Y-103276250D01*
X63373000Y-101727000D01*
X63627000Y-101727000D01*
X63627000Y-103276250D01*
X63785750Y-103435000D01*
X64700000Y-103438072D01*
X64824482Y-103425812D01*
X64944180Y-103389502D01*
X65054494Y-103330537D01*
X65151185Y-103251185D01*
X65230537Y-103154494D01*
X65289502Y-103044180D01*
X65325812Y-102924482D01*
X65338072Y-102800000D01*
X65337105Y-102512009D01*
X66215260Y-102512009D01*
X66215260Y-103227991D01*
X66354941Y-103930215D01*
X66628935Y-104591695D01*
X67026713Y-105187012D01*
X67532988Y-105693287D01*
X68128305Y-106091065D01*
X68789785Y-106365059D01*
X69492009Y-106504740D01*
X70207991Y-106504740D01*
X70910215Y-106365059D01*
X71571695Y-106091065D01*
X72167012Y-105693287D01*
X72673287Y-105187012D01*
X73071065Y-104591695D01*
X73345059Y-103930215D01*
X73484740Y-103227991D01*
X73484740Y-102512009D01*
X73835260Y-102512009D01*
X73835260Y-103227991D01*
X73974941Y-103930215D01*
X74248935Y-104591695D01*
X74646713Y-105187012D01*
X75152988Y-105693287D01*
X75748305Y-106091065D01*
X76409785Y-106365059D01*
X77112009Y-106504740D01*
X77827991Y-106504740D01*
X78530215Y-106365059D01*
X79191695Y-106091065D01*
X79787012Y-105693287D01*
X80070299Y-105410000D01*
X81976122Y-105410000D01*
X82011552Y-105769723D01*
X82116479Y-106115622D01*
X82286871Y-106434404D01*
X82516181Y-106713819D01*
X82795596Y-106943129D01*
X83114378Y-107113521D01*
X83460277Y-107218448D01*
X83729861Y-107245000D01*
X83910139Y-107245000D01*
X84179723Y-107218448D01*
X84525622Y-107113521D01*
X84844404Y-106943129D01*
X85123819Y-106713819D01*
X85353129Y-106434404D01*
X85523521Y-106115622D01*
X85628448Y-105769723D01*
X85663878Y-105410000D01*
X85628448Y-105050277D01*
X85523521Y-104704378D01*
X85353129Y-104385596D01*
X85123819Y-104106181D01*
X84844404Y-103876871D01*
X84525622Y-103706479D01*
X84179723Y-103601552D01*
X83910139Y-103575000D01*
X83729861Y-103575000D01*
X83460277Y-103601552D01*
X83114378Y-103706479D01*
X82795596Y-103876871D01*
X82516181Y-104106181D01*
X82286871Y-104385596D01*
X82116479Y-104704378D01*
X82011552Y-105050277D01*
X81976122Y-105410000D01*
X80070299Y-105410000D01*
X80293287Y-105187012D01*
X80691065Y-104591695D01*
X80965059Y-103930215D01*
X81104740Y-103227991D01*
X81104740Y-102800000D01*
X81981928Y-102800000D01*
X81994188Y-102924482D01*
X82030498Y-103044180D01*
X82089463Y-103154494D01*
X82168815Y-103251185D01*
X82265506Y-103330537D01*
X82375820Y-103389502D01*
X82495518Y-103425812D01*
X82620000Y-103438072D01*
X83534250Y-103435000D01*
X83693000Y-103276250D01*
X83693000Y-101727000D01*
X83947000Y-101727000D01*
X83947000Y-103276250D01*
X84105750Y-103435000D01*
X85020000Y-103438072D01*
X85144482Y-103425812D01*
X85264180Y-103389502D01*
X85374494Y-103330537D01*
X85471185Y-103251185D01*
X85550537Y-103154494D01*
X85609502Y-103044180D01*
X85645812Y-102924482D01*
X85651177Y-102870000D01*
X88527319Y-102870000D01*
X88557970Y-103181204D01*
X88648745Y-103480449D01*
X88796155Y-103756235D01*
X88899446Y-103882095D01*
X88815506Y-103926963D01*
X88718815Y-104006315D01*
X88639463Y-104103006D01*
X88580498Y-104213320D01*
X88544188Y-104333018D01*
X88531928Y-104457500D01*
X88531928Y-106362500D01*
X88544188Y-106486982D01*
X88580498Y-106606680D01*
X88639463Y-106716994D01*
X88718815Y-106813685D01*
X88815506Y-106893037D01*
X88925820Y-106952002D01*
X89045518Y-106988312D01*
X89170000Y-107000572D01*
X91170000Y-107000572D01*
X91294482Y-106988312D01*
X91414180Y-106952002D01*
X91524494Y-106893037D01*
X91621185Y-106813685D01*
X91700537Y-106716994D01*
X91720311Y-106680000D01*
X92638541Y-106680000D01*
X92664317Y-106941706D01*
X92740653Y-107193354D01*
X92864618Y-107425275D01*
X93031445Y-107628555D01*
X93234725Y-107795382D01*
X93466646Y-107919347D01*
X93718294Y-107995683D01*
X93914421Y-108015000D01*
X94045579Y-108015000D01*
X94241706Y-107995683D01*
X94493354Y-107919347D01*
X94725275Y-107795382D01*
X94928555Y-107628555D01*
X95095382Y-107425275D01*
X95219347Y-107193354D01*
X95295683Y-106941706D01*
X95321459Y-106680000D01*
X95295683Y-106418294D01*
X95219347Y-106166646D01*
X95095382Y-105934725D01*
X94928555Y-105731445D01*
X94725275Y-105564618D01*
X94493354Y-105440653D01*
X94241706Y-105364317D01*
X94045579Y-105345000D01*
X93914421Y-105345000D01*
X93718294Y-105364317D01*
X93466646Y-105440653D01*
X93234725Y-105564618D01*
X93031445Y-105731445D01*
X92864618Y-105934725D01*
X92740653Y-106166646D01*
X92664317Y-106418294D01*
X92638541Y-106680000D01*
X91720311Y-106680000D01*
X91759502Y-106606680D01*
X91795812Y-106486982D01*
X91808072Y-106362500D01*
X91808072Y-104457500D01*
X91795812Y-104333018D01*
X91759502Y-104213320D01*
X91700537Y-104103006D01*
X91621185Y-104006315D01*
X91524494Y-103926963D01*
X91440554Y-103882095D01*
X91543845Y-103756235D01*
X91691255Y-103480449D01*
X91782030Y-103181204D01*
X91812681Y-102870000D01*
X91782030Y-102558796D01*
X91691255Y-102259551D01*
X91543845Y-101983765D01*
X91345463Y-101742037D01*
X91166101Y-101594837D01*
X91351315Y-101439437D01*
X91545969Y-101196923D01*
X91689571Y-100921094D01*
X91760563Y-100702980D01*
X91640594Y-100457000D01*
X90297000Y-100457000D01*
X90297000Y-100477000D01*
X90043000Y-100477000D01*
X90043000Y-100457000D01*
X88699406Y-100457000D01*
X88579437Y-100702980D01*
X88650429Y-100921094D01*
X88794031Y-101196923D01*
X88988685Y-101439437D01*
X89173899Y-101594837D01*
X88994537Y-101742037D01*
X88796155Y-101983765D01*
X88648745Y-102259551D01*
X88557970Y-102558796D01*
X88527319Y-102870000D01*
X85651177Y-102870000D01*
X85658072Y-102800000D01*
X85655000Y-101885750D01*
X85496250Y-101727000D01*
X83947000Y-101727000D01*
X83693000Y-101727000D01*
X82143750Y-101727000D01*
X81985000Y-101885750D01*
X81981928Y-102800000D01*
X81104740Y-102800000D01*
X81104740Y-102512009D01*
X80965059Y-101809785D01*
X80691065Y-101148305D01*
X80293287Y-100552988D01*
X80140299Y-100400000D01*
X81981928Y-100400000D01*
X81985000Y-101314250D01*
X82143750Y-101473000D01*
X83693000Y-101473000D01*
X83693000Y-99923750D01*
X83947000Y-99923750D01*
X83947000Y-101473000D01*
X85496250Y-101473000D01*
X85655000Y-101314250D01*
X85658072Y-100400000D01*
X85645812Y-100275518D01*
X85609502Y-100155820D01*
X85550537Y-100045506D01*
X85477919Y-99957020D01*
X88579437Y-99957020D01*
X88699406Y-100203000D01*
X90043000Y-100203000D01*
X90043000Y-98904430D01*
X90297000Y-98904430D01*
X90297000Y-100203000D01*
X91640594Y-100203000D01*
X91748736Y-99981269D01*
X93238336Y-99981269D01*
X93297797Y-100215037D01*
X93536242Y-100325934D01*
X93791740Y-100388183D01*
X94054473Y-100399390D01*
X94314344Y-100359125D01*
X94561366Y-100268935D01*
X94662203Y-100215037D01*
X94721664Y-99981269D01*
X93980000Y-99239605D01*
X93238336Y-99981269D01*
X91748736Y-99981269D01*
X91760563Y-99957020D01*
X91689571Y-99738906D01*
X91545969Y-99463077D01*
X91351315Y-99220563D01*
X91248709Y-99134473D01*
X92640610Y-99134473D01*
X92680875Y-99394344D01*
X92771065Y-99641366D01*
X92824963Y-99742203D01*
X93058731Y-99801664D01*
X93800395Y-99060000D01*
X94159605Y-99060000D01*
X94901269Y-99801664D01*
X95135037Y-99742203D01*
X95245934Y-99503758D01*
X95308183Y-99248260D01*
X95319390Y-98985527D01*
X95279125Y-98725656D01*
X95188935Y-98478634D01*
X95135037Y-98377797D01*
X94901269Y-98318336D01*
X94159605Y-99060000D01*
X93800395Y-99060000D01*
X93058731Y-98318336D01*
X92824963Y-98377797D01*
X92714066Y-98616242D01*
X92651817Y-98871740D01*
X92640610Y-99134473D01*
X91248709Y-99134473D01*
X91113089Y-99020684D01*
X90840446Y-98871121D01*
X90543863Y-98777622D01*
X90297000Y-98904430D01*
X90043000Y-98904430D01*
X89796137Y-98777622D01*
X89499554Y-98871121D01*
X89226911Y-99020684D01*
X88988685Y-99220563D01*
X88794031Y-99463077D01*
X88650429Y-99738906D01*
X88579437Y-99957020D01*
X85477919Y-99957020D01*
X85471185Y-99948815D01*
X85374494Y-99869463D01*
X85264180Y-99810498D01*
X85144482Y-99774188D01*
X85020000Y-99761928D01*
X84105750Y-99765000D01*
X83947000Y-99923750D01*
X83693000Y-99923750D01*
X83534250Y-99765000D01*
X82620000Y-99761928D01*
X82495518Y-99774188D01*
X82375820Y-99810498D01*
X82265506Y-99869463D01*
X82168815Y-99948815D01*
X82089463Y-100045506D01*
X82030498Y-100155820D01*
X81994188Y-100275518D01*
X81981928Y-100400000D01*
X80140299Y-100400000D01*
X79787012Y-100046713D01*
X79191695Y-99648935D01*
X78530215Y-99374941D01*
X77827991Y-99235260D01*
X77112009Y-99235260D01*
X76409785Y-99374941D01*
X75748305Y-99648935D01*
X75152988Y-100046713D01*
X74646713Y-100552988D01*
X74248935Y-101148305D01*
X73974941Y-101809785D01*
X73835260Y-102512009D01*
X73484740Y-102512009D01*
X73345059Y-101809785D01*
X73071065Y-101148305D01*
X72673287Y-100552988D01*
X72167012Y-100046713D01*
X71571695Y-99648935D01*
X70910215Y-99374941D01*
X70207991Y-99235260D01*
X69492009Y-99235260D01*
X68789785Y-99374941D01*
X68128305Y-99648935D01*
X67532988Y-100046713D01*
X67026713Y-100552988D01*
X66628935Y-101148305D01*
X66354941Y-101809785D01*
X66215260Y-102512009D01*
X65337105Y-102512009D01*
X65335000Y-101885750D01*
X65176250Y-101727000D01*
X63627000Y-101727000D01*
X63373000Y-101727000D01*
X61823750Y-101727000D01*
X61665000Y-101885750D01*
X61661928Y-102800000D01*
X60055787Y-102800000D01*
X60032030Y-102558796D01*
X59941255Y-102259551D01*
X59793845Y-101983765D01*
X59595463Y-101742037D01*
X59416101Y-101594837D01*
X59601315Y-101439437D01*
X59795969Y-101196923D01*
X59939571Y-100921094D01*
X60010563Y-100702980D01*
X59890594Y-100457000D01*
X58547000Y-100457000D01*
X58547000Y-100477000D01*
X58293000Y-100477000D01*
X58293000Y-100457000D01*
X56949406Y-100457000D01*
X56829437Y-100702980D01*
X56900429Y-100921094D01*
X57044031Y-101196923D01*
X57238685Y-101439437D01*
X57423899Y-101594837D01*
X57244537Y-101742037D01*
X57046155Y-101983765D01*
X56898745Y-102259551D01*
X56807970Y-102558796D01*
X56777319Y-102870000D01*
X40030000Y-102870000D01*
X40030000Y-100400000D01*
X61661928Y-100400000D01*
X61665000Y-101314250D01*
X61823750Y-101473000D01*
X63373000Y-101473000D01*
X63373000Y-99923750D01*
X63627000Y-99923750D01*
X63627000Y-101473000D01*
X65176250Y-101473000D01*
X65335000Y-101314250D01*
X65338072Y-100400000D01*
X65325812Y-100275518D01*
X65289502Y-100155820D01*
X65230537Y-100045506D01*
X65151185Y-99948815D01*
X65054494Y-99869463D01*
X64944180Y-99810498D01*
X64824482Y-99774188D01*
X64700000Y-99761928D01*
X63785750Y-99765000D01*
X63627000Y-99923750D01*
X63373000Y-99923750D01*
X63214250Y-99765000D01*
X62300000Y-99761928D01*
X62175518Y-99774188D01*
X62055820Y-99810498D01*
X61945506Y-99869463D01*
X61848815Y-99948815D01*
X61769463Y-100045506D01*
X61710498Y-100155820D01*
X61674188Y-100275518D01*
X61661928Y-100400000D01*
X40030000Y-100400000D01*
X40030000Y-99981269D01*
X52598336Y-99981269D01*
X52657797Y-100215037D01*
X52896242Y-100325934D01*
X53151740Y-100388183D01*
X53414473Y-100399390D01*
X53674344Y-100359125D01*
X53921366Y-100268935D01*
X54022203Y-100215037D01*
X54081664Y-99981269D01*
X54057415Y-99957020D01*
X56829437Y-99957020D01*
X56949406Y-100203000D01*
X58293000Y-100203000D01*
X58293000Y-98904430D01*
X58547000Y-98904430D01*
X58547000Y-100203000D01*
X59890594Y-100203000D01*
X60010563Y-99957020D01*
X59939571Y-99738906D01*
X59795969Y-99463077D01*
X59601315Y-99220563D01*
X59363089Y-99020684D01*
X59090446Y-98871121D01*
X58793863Y-98777622D01*
X58547000Y-98904430D01*
X58293000Y-98904430D01*
X58046137Y-98777622D01*
X57749554Y-98871121D01*
X57476911Y-99020684D01*
X57238685Y-99220563D01*
X57044031Y-99463077D01*
X56900429Y-99738906D01*
X56829437Y-99957020D01*
X54057415Y-99957020D01*
X53340000Y-99239605D01*
X52598336Y-99981269D01*
X40030000Y-99981269D01*
X40030000Y-99134473D01*
X52000610Y-99134473D01*
X52040875Y-99394344D01*
X52131065Y-99641366D01*
X52184963Y-99742203D01*
X52418731Y-99801664D01*
X53160395Y-99060000D01*
X53519605Y-99060000D01*
X54261269Y-99801664D01*
X54495037Y-99742203D01*
X54605934Y-99503758D01*
X54668183Y-99248260D01*
X54679390Y-98985527D01*
X54639125Y-98725656D01*
X54548935Y-98478634D01*
X54495037Y-98377797D01*
X54261269Y-98318336D01*
X53519605Y-99060000D01*
X53160395Y-99060000D01*
X52418731Y-98318336D01*
X52184963Y-98377797D01*
X52074066Y-98616242D01*
X52011817Y-98871740D01*
X52000610Y-99134473D01*
X40030000Y-99134473D01*
X40030000Y-98138731D01*
X52598336Y-98138731D01*
X53340000Y-98880395D01*
X54081664Y-98138731D01*
X93238336Y-98138731D01*
X93980000Y-98880395D01*
X94721664Y-98138731D01*
X94662203Y-97904963D01*
X94423758Y-97794066D01*
X94168260Y-97731817D01*
X93905527Y-97720610D01*
X93645656Y-97760875D01*
X93398634Y-97851065D01*
X93297797Y-97904963D01*
X93238336Y-98138731D01*
X54081664Y-98138731D01*
X54022203Y-97904963D01*
X53783758Y-97794066D01*
X53528260Y-97731817D01*
X53265527Y-97720610D01*
X53005656Y-97760875D01*
X52758634Y-97851065D01*
X52657797Y-97904963D01*
X52598336Y-98138731D01*
X40030000Y-98138731D01*
X40030000Y-95250000D01*
X51998541Y-95250000D01*
X52024317Y-95511706D01*
X52100653Y-95763354D01*
X52224618Y-95995275D01*
X52391445Y-96198555D01*
X52594725Y-96365382D01*
X52826646Y-96489347D01*
X53078294Y-96565683D01*
X53274421Y-96585000D01*
X53405579Y-96585000D01*
X53601706Y-96565683D01*
X53853354Y-96489347D01*
X54085275Y-96365382D01*
X54288555Y-96198555D01*
X54455382Y-95995275D01*
X54579347Y-95763354D01*
X54655683Y-95511706D01*
X54681459Y-95250000D01*
X54655683Y-94988294D01*
X54579347Y-94736646D01*
X54455382Y-94504725D01*
X54288555Y-94301445D01*
X54085275Y-94134618D01*
X53853354Y-94010653D01*
X53601706Y-93934317D01*
X53405579Y-93915000D01*
X53274421Y-93915000D01*
X53078294Y-93934317D01*
X52826646Y-94010653D01*
X52594725Y-94134618D01*
X52391445Y-94301445D01*
X52224618Y-94504725D01*
X52100653Y-94736646D01*
X52024317Y-94988294D01*
X51998541Y-95250000D01*
X40030000Y-95250000D01*
X40030000Y-91440000D01*
X56777319Y-91440000D01*
X56807970Y-91751204D01*
X56898745Y-92050449D01*
X57046155Y-92326235D01*
X57149446Y-92452095D01*
X57065506Y-92496963D01*
X56968815Y-92576315D01*
X56889463Y-92673006D01*
X56830498Y-92783320D01*
X56794188Y-92903018D01*
X56781928Y-93027500D01*
X56781928Y-94932500D01*
X56794188Y-95056982D01*
X56830498Y-95176680D01*
X56889463Y-95286994D01*
X56968815Y-95383685D01*
X57065506Y-95463037D01*
X57175820Y-95522002D01*
X57295518Y-95558312D01*
X57420000Y-95570572D01*
X59420000Y-95570572D01*
X59544482Y-95558312D01*
X59664180Y-95522002D01*
X59774494Y-95463037D01*
X59871185Y-95383685D01*
X59950537Y-95286994D01*
X60009502Y-95176680D01*
X60045812Y-95056982D01*
X60058072Y-94932500D01*
X60058072Y-93980000D01*
X61656122Y-93980000D01*
X61691552Y-94339723D01*
X61796479Y-94685622D01*
X61966871Y-95004404D01*
X62196181Y-95283819D01*
X62475596Y-95513129D01*
X62794378Y-95683521D01*
X63140277Y-95788448D01*
X63409861Y-95815000D01*
X63590139Y-95815000D01*
X63859723Y-95788448D01*
X64205622Y-95683521D01*
X64524404Y-95513129D01*
X64803819Y-95283819D01*
X65033129Y-95004404D01*
X65203521Y-94685622D01*
X65308448Y-94339723D01*
X65343878Y-93980000D01*
X65308448Y-93620277D01*
X65203521Y-93274378D01*
X65033129Y-92955596D01*
X64803819Y-92676181D01*
X64524404Y-92446871D01*
X64205622Y-92276479D01*
X63859723Y-92171552D01*
X63590139Y-92145000D01*
X63409861Y-92145000D01*
X63140277Y-92171552D01*
X62794378Y-92276479D01*
X62475596Y-92446871D01*
X62196181Y-92676181D01*
X61966871Y-92955596D01*
X61796479Y-93274378D01*
X61691552Y-93620277D01*
X61656122Y-93980000D01*
X60058072Y-93980000D01*
X60058072Y-93027500D01*
X60045812Y-92903018D01*
X60009502Y-92783320D01*
X59950537Y-92673006D01*
X59871185Y-92576315D01*
X59774494Y-92496963D01*
X59690554Y-92452095D01*
X59793845Y-92326235D01*
X59941255Y-92050449D01*
X60032030Y-91751204D01*
X60062681Y-91440000D01*
X60055787Y-91370000D01*
X61661928Y-91370000D01*
X61674188Y-91494482D01*
X61710498Y-91614180D01*
X61769463Y-91724494D01*
X61848815Y-91821185D01*
X61945506Y-91900537D01*
X62055820Y-91959502D01*
X62175518Y-91995812D01*
X62300000Y-92008072D01*
X63214250Y-92005000D01*
X63373000Y-91846250D01*
X63373000Y-90297000D01*
X63627000Y-90297000D01*
X63627000Y-91846250D01*
X63785750Y-92005000D01*
X64700000Y-92008072D01*
X64824482Y-91995812D01*
X64944180Y-91959502D01*
X65054494Y-91900537D01*
X65151185Y-91821185D01*
X65230537Y-91724494D01*
X65289502Y-91614180D01*
X65325812Y-91494482D01*
X65338072Y-91370000D01*
X65337105Y-91082009D01*
X66215260Y-91082009D01*
X66215260Y-91797991D01*
X66354941Y-92500215D01*
X66628935Y-93161695D01*
X67026713Y-93757012D01*
X67532988Y-94263287D01*
X68128305Y-94661065D01*
X68789785Y-94935059D01*
X69492009Y-95074740D01*
X70207991Y-95074740D01*
X70910215Y-94935059D01*
X71571695Y-94661065D01*
X72167012Y-94263287D01*
X72673287Y-93757012D01*
X73071065Y-93161695D01*
X73345059Y-92500215D01*
X73484740Y-91797991D01*
X73484740Y-91082009D01*
X73835260Y-91082009D01*
X73835260Y-91797991D01*
X73974941Y-92500215D01*
X74248935Y-93161695D01*
X74646713Y-93757012D01*
X75152988Y-94263287D01*
X75748305Y-94661065D01*
X76409785Y-94935059D01*
X77112009Y-95074740D01*
X77827991Y-95074740D01*
X78530215Y-94935059D01*
X79191695Y-94661065D01*
X79787012Y-94263287D01*
X80070299Y-93980000D01*
X81976122Y-93980000D01*
X82011552Y-94339723D01*
X82116479Y-94685622D01*
X82286871Y-95004404D01*
X82516181Y-95283819D01*
X82795596Y-95513129D01*
X83114378Y-95683521D01*
X83460277Y-95788448D01*
X83729861Y-95815000D01*
X83910139Y-95815000D01*
X84179723Y-95788448D01*
X84525622Y-95683521D01*
X84844404Y-95513129D01*
X85123819Y-95283819D01*
X85353129Y-95004404D01*
X85523521Y-94685622D01*
X85628448Y-94339723D01*
X85663878Y-93980000D01*
X85628448Y-93620277D01*
X85523521Y-93274378D01*
X85353129Y-92955596D01*
X85123819Y-92676181D01*
X84844404Y-92446871D01*
X84525622Y-92276479D01*
X84179723Y-92171552D01*
X83910139Y-92145000D01*
X83729861Y-92145000D01*
X83460277Y-92171552D01*
X83114378Y-92276479D01*
X82795596Y-92446871D01*
X82516181Y-92676181D01*
X82286871Y-92955596D01*
X82116479Y-93274378D01*
X82011552Y-93620277D01*
X81976122Y-93980000D01*
X80070299Y-93980000D01*
X80293287Y-93757012D01*
X80691065Y-93161695D01*
X80965059Y-92500215D01*
X81104740Y-91797991D01*
X81104740Y-91370000D01*
X81981928Y-91370000D01*
X81994188Y-91494482D01*
X82030498Y-91614180D01*
X82089463Y-91724494D01*
X82168815Y-91821185D01*
X82265506Y-91900537D01*
X82375820Y-91959502D01*
X82495518Y-91995812D01*
X82620000Y-92008072D01*
X83534250Y-92005000D01*
X83693000Y-91846250D01*
X83693000Y-90297000D01*
X83947000Y-90297000D01*
X83947000Y-91846250D01*
X84105750Y-92005000D01*
X85020000Y-92008072D01*
X85144482Y-91995812D01*
X85264180Y-91959502D01*
X85374494Y-91900537D01*
X85471185Y-91821185D01*
X85550537Y-91724494D01*
X85609502Y-91614180D01*
X85645812Y-91494482D01*
X85651177Y-91440000D01*
X88527319Y-91440000D01*
X88557970Y-91751204D01*
X88648745Y-92050449D01*
X88796155Y-92326235D01*
X88899446Y-92452095D01*
X88815506Y-92496963D01*
X88718815Y-92576315D01*
X88639463Y-92673006D01*
X88580498Y-92783320D01*
X88544188Y-92903018D01*
X88531928Y-93027500D01*
X88531928Y-94932500D01*
X88544188Y-95056982D01*
X88580498Y-95176680D01*
X88639463Y-95286994D01*
X88718815Y-95383685D01*
X88815506Y-95463037D01*
X88925820Y-95522002D01*
X89045518Y-95558312D01*
X89170000Y-95570572D01*
X91170000Y-95570572D01*
X91294482Y-95558312D01*
X91414180Y-95522002D01*
X91524494Y-95463037D01*
X91621185Y-95383685D01*
X91700537Y-95286994D01*
X91720311Y-95250000D01*
X92638541Y-95250000D01*
X92664317Y-95511706D01*
X92740653Y-95763354D01*
X92864618Y-95995275D01*
X93031445Y-96198555D01*
X93234725Y-96365382D01*
X93466646Y-96489347D01*
X93718294Y-96565683D01*
X93914421Y-96585000D01*
X94045579Y-96585000D01*
X94241706Y-96565683D01*
X94493354Y-96489347D01*
X94725275Y-96365382D01*
X94928555Y-96198555D01*
X95095382Y-95995275D01*
X95219347Y-95763354D01*
X95295683Y-95511706D01*
X95321459Y-95250000D01*
X95295683Y-94988294D01*
X95219347Y-94736646D01*
X95095382Y-94504725D01*
X94928555Y-94301445D01*
X94725275Y-94134618D01*
X94493354Y-94010653D01*
X94241706Y-93934317D01*
X94045579Y-93915000D01*
X93914421Y-93915000D01*
X93718294Y-93934317D01*
X93466646Y-94010653D01*
X93234725Y-94134618D01*
X93031445Y-94301445D01*
X92864618Y-94504725D01*
X92740653Y-94736646D01*
X92664317Y-94988294D01*
X92638541Y-95250000D01*
X91720311Y-95250000D01*
X91759502Y-95176680D01*
X91795812Y-95056982D01*
X91808072Y-94932500D01*
X91808072Y-93027500D01*
X91795812Y-92903018D01*
X91759502Y-92783320D01*
X91700537Y-92673006D01*
X91621185Y-92576315D01*
X91524494Y-92496963D01*
X91440554Y-92452095D01*
X91543845Y-92326235D01*
X91691255Y-92050449D01*
X91782030Y-91751204D01*
X91812681Y-91440000D01*
X91782030Y-91128796D01*
X91691255Y-90829551D01*
X91543845Y-90553765D01*
X91345463Y-90312037D01*
X91166101Y-90164837D01*
X91351315Y-90009437D01*
X91545969Y-89766923D01*
X91689571Y-89491094D01*
X91760563Y-89272980D01*
X91640594Y-89027000D01*
X90297000Y-89027000D01*
X90297000Y-89047000D01*
X90043000Y-89047000D01*
X90043000Y-89027000D01*
X88699406Y-89027000D01*
X88579437Y-89272980D01*
X88650429Y-89491094D01*
X88794031Y-89766923D01*
X88988685Y-90009437D01*
X89173899Y-90164837D01*
X88994537Y-90312037D01*
X88796155Y-90553765D01*
X88648745Y-90829551D01*
X88557970Y-91128796D01*
X88527319Y-91440000D01*
X85651177Y-91440000D01*
X85658072Y-91370000D01*
X85655000Y-90455750D01*
X85496250Y-90297000D01*
X83947000Y-90297000D01*
X83693000Y-90297000D01*
X82143750Y-90297000D01*
X81985000Y-90455750D01*
X81981928Y-91370000D01*
X81104740Y-91370000D01*
X81104740Y-91082009D01*
X80965059Y-90379785D01*
X80691065Y-89718305D01*
X80293287Y-89122988D01*
X80140299Y-88970000D01*
X81981928Y-88970000D01*
X81985000Y-89884250D01*
X82143750Y-90043000D01*
X83693000Y-90043000D01*
X83693000Y-88493750D01*
X83947000Y-88493750D01*
X83947000Y-90043000D01*
X85496250Y-90043000D01*
X85655000Y-89884250D01*
X85658072Y-88970000D01*
X85645812Y-88845518D01*
X85609502Y-88725820D01*
X85550537Y-88615506D01*
X85477919Y-88527020D01*
X88579437Y-88527020D01*
X88699406Y-88773000D01*
X90043000Y-88773000D01*
X90043000Y-87474430D01*
X90297000Y-87474430D01*
X90297000Y-88773000D01*
X91640594Y-88773000D01*
X91748736Y-88551269D01*
X93238336Y-88551269D01*
X93297797Y-88785037D01*
X93536242Y-88895934D01*
X93791740Y-88958183D01*
X94054473Y-88969390D01*
X94314344Y-88929125D01*
X94561366Y-88838935D01*
X94662203Y-88785037D01*
X94721664Y-88551269D01*
X93980000Y-87809605D01*
X93238336Y-88551269D01*
X91748736Y-88551269D01*
X91760563Y-88527020D01*
X91689571Y-88308906D01*
X91545969Y-88033077D01*
X91351315Y-87790563D01*
X91248709Y-87704473D01*
X92640610Y-87704473D01*
X92680875Y-87964344D01*
X92771065Y-88211366D01*
X92824963Y-88312203D01*
X93058731Y-88371664D01*
X93800395Y-87630000D01*
X94159605Y-87630000D01*
X94901269Y-88371664D01*
X95135037Y-88312203D01*
X95245934Y-88073758D01*
X95308183Y-87818260D01*
X95319390Y-87555527D01*
X95279125Y-87295656D01*
X95188935Y-87048634D01*
X95135037Y-86947797D01*
X94901269Y-86888336D01*
X94159605Y-87630000D01*
X93800395Y-87630000D01*
X93058731Y-86888336D01*
X92824963Y-86947797D01*
X92714066Y-87186242D01*
X92651817Y-87441740D01*
X92640610Y-87704473D01*
X91248709Y-87704473D01*
X91113089Y-87590684D01*
X90840446Y-87441121D01*
X90543863Y-87347622D01*
X90297000Y-87474430D01*
X90043000Y-87474430D01*
X89796137Y-87347622D01*
X89499554Y-87441121D01*
X89226911Y-87590684D01*
X88988685Y-87790563D01*
X88794031Y-88033077D01*
X88650429Y-88308906D01*
X88579437Y-88527020D01*
X85477919Y-88527020D01*
X85471185Y-88518815D01*
X85374494Y-88439463D01*
X85264180Y-88380498D01*
X85144482Y-88344188D01*
X85020000Y-88331928D01*
X84105750Y-88335000D01*
X83947000Y-88493750D01*
X83693000Y-88493750D01*
X83534250Y-88335000D01*
X82620000Y-88331928D01*
X82495518Y-88344188D01*
X82375820Y-88380498D01*
X82265506Y-88439463D01*
X82168815Y-88518815D01*
X82089463Y-88615506D01*
X82030498Y-88725820D01*
X81994188Y-88845518D01*
X81981928Y-88970000D01*
X80140299Y-88970000D01*
X79787012Y-88616713D01*
X79191695Y-88218935D01*
X78530215Y-87944941D01*
X77827991Y-87805260D01*
X77112009Y-87805260D01*
X76409785Y-87944941D01*
X75748305Y-88218935D01*
X75152988Y-88616713D01*
X74646713Y-89122988D01*
X74248935Y-89718305D01*
X73974941Y-90379785D01*
X73835260Y-91082009D01*
X73484740Y-91082009D01*
X73345059Y-90379785D01*
X73071065Y-89718305D01*
X72673287Y-89122988D01*
X72167012Y-88616713D01*
X71571695Y-88218935D01*
X70910215Y-87944941D01*
X70207991Y-87805260D01*
X69492009Y-87805260D01*
X68789785Y-87944941D01*
X68128305Y-88218935D01*
X67532988Y-88616713D01*
X67026713Y-89122988D01*
X66628935Y-89718305D01*
X66354941Y-90379785D01*
X66215260Y-91082009D01*
X65337105Y-91082009D01*
X65335000Y-90455750D01*
X65176250Y-90297000D01*
X63627000Y-90297000D01*
X63373000Y-90297000D01*
X61823750Y-90297000D01*
X61665000Y-90455750D01*
X61661928Y-91370000D01*
X60055787Y-91370000D01*
X60032030Y-91128796D01*
X59941255Y-90829551D01*
X59793845Y-90553765D01*
X59595463Y-90312037D01*
X59416101Y-90164837D01*
X59601315Y-90009437D01*
X59795969Y-89766923D01*
X59939571Y-89491094D01*
X60010563Y-89272980D01*
X59890594Y-89027000D01*
X58547000Y-89027000D01*
X58547000Y-89047000D01*
X58293000Y-89047000D01*
X58293000Y-89027000D01*
X56949406Y-89027000D01*
X56829437Y-89272980D01*
X56900429Y-89491094D01*
X57044031Y-89766923D01*
X57238685Y-90009437D01*
X57423899Y-90164837D01*
X57244537Y-90312037D01*
X57046155Y-90553765D01*
X56898745Y-90829551D01*
X56807970Y-91128796D01*
X56777319Y-91440000D01*
X40030000Y-91440000D01*
X40030000Y-88970000D01*
X61661928Y-88970000D01*
X61665000Y-89884250D01*
X61823750Y-90043000D01*
X63373000Y-90043000D01*
X63373000Y-88493750D01*
X63627000Y-88493750D01*
X63627000Y-90043000D01*
X65176250Y-90043000D01*
X65335000Y-89884250D01*
X65338072Y-88970000D01*
X65325812Y-88845518D01*
X65289502Y-88725820D01*
X65230537Y-88615506D01*
X65151185Y-88518815D01*
X65054494Y-88439463D01*
X64944180Y-88380498D01*
X64824482Y-88344188D01*
X64700000Y-88331928D01*
X63785750Y-88335000D01*
X63627000Y-88493750D01*
X63373000Y-88493750D01*
X63214250Y-88335000D01*
X62300000Y-88331928D01*
X62175518Y-88344188D01*
X62055820Y-88380498D01*
X61945506Y-88439463D01*
X61848815Y-88518815D01*
X61769463Y-88615506D01*
X61710498Y-88725820D01*
X61674188Y-88845518D01*
X61661928Y-88970000D01*
X40030000Y-88970000D01*
X40030000Y-88551269D01*
X52598336Y-88551269D01*
X52657797Y-88785037D01*
X52896242Y-88895934D01*
X53151740Y-88958183D01*
X53414473Y-88969390D01*
X53674344Y-88929125D01*
X53921366Y-88838935D01*
X54022203Y-88785037D01*
X54081664Y-88551269D01*
X54057415Y-88527020D01*
X56829437Y-88527020D01*
X56949406Y-88773000D01*
X58293000Y-88773000D01*
X58293000Y-87474430D01*
X58547000Y-87474430D01*
X58547000Y-88773000D01*
X59890594Y-88773000D01*
X60010563Y-88527020D01*
X59939571Y-88308906D01*
X59795969Y-88033077D01*
X59601315Y-87790563D01*
X59363089Y-87590684D01*
X59090446Y-87441121D01*
X58793863Y-87347622D01*
X58547000Y-87474430D01*
X58293000Y-87474430D01*
X58046137Y-87347622D01*
X57749554Y-87441121D01*
X57476911Y-87590684D01*
X57238685Y-87790563D01*
X57044031Y-88033077D01*
X56900429Y-88308906D01*
X56829437Y-88527020D01*
X54057415Y-88527020D01*
X53340000Y-87809605D01*
X52598336Y-88551269D01*
X40030000Y-88551269D01*
X40030000Y-87704473D01*
X52000610Y-87704473D01*
X52040875Y-87964344D01*
X52131065Y-88211366D01*
X52184963Y-88312203D01*
X52418731Y-88371664D01*
X53160395Y-87630000D01*
X53519605Y-87630000D01*
X54261269Y-88371664D01*
X54495037Y-88312203D01*
X54605934Y-88073758D01*
X54668183Y-87818260D01*
X54679390Y-87555527D01*
X54639125Y-87295656D01*
X54548935Y-87048634D01*
X54495037Y-86947797D01*
X54261269Y-86888336D01*
X53519605Y-87630000D01*
X53160395Y-87630000D01*
X52418731Y-86888336D01*
X52184963Y-86947797D01*
X52074066Y-87186242D01*
X52011817Y-87441740D01*
X52000610Y-87704473D01*
X40030000Y-87704473D01*
X40030000Y-86708731D01*
X52598336Y-86708731D01*
X53340000Y-87450395D01*
X54081664Y-86708731D01*
X93238336Y-86708731D01*
X93980000Y-87450395D01*
X94721664Y-86708731D01*
X94662203Y-86474963D01*
X94423758Y-86364066D01*
X94168260Y-86301817D01*
X93905527Y-86290610D01*
X93645656Y-86330875D01*
X93398634Y-86421065D01*
X93297797Y-86474963D01*
X93238336Y-86708731D01*
X54081664Y-86708731D01*
X54022203Y-86474963D01*
X53783758Y-86364066D01*
X53528260Y-86301817D01*
X53265527Y-86290610D01*
X53005656Y-86330875D01*
X52758634Y-86421065D01*
X52657797Y-86474963D01*
X52598336Y-86708731D01*
X40030000Y-86708731D01*
X40030000Y-83820000D01*
X51998541Y-83820000D01*
X52024317Y-84081706D01*
X52100653Y-84333354D01*
X52224618Y-84565275D01*
X52391445Y-84768555D01*
X52594725Y-84935382D01*
X52826646Y-85059347D01*
X53078294Y-85135683D01*
X53274421Y-85155000D01*
X53405579Y-85155000D01*
X53601706Y-85135683D01*
X53853354Y-85059347D01*
X54085275Y-84935382D01*
X54288555Y-84768555D01*
X54455382Y-84565275D01*
X54579347Y-84333354D01*
X54655683Y-84081706D01*
X54681459Y-83820000D01*
X54655683Y-83558294D01*
X54579347Y-83306646D01*
X54455382Y-83074725D01*
X54288555Y-82871445D01*
X54085275Y-82704618D01*
X53853354Y-82580653D01*
X53601706Y-82504317D01*
X53405579Y-82485000D01*
X53274421Y-82485000D01*
X53078294Y-82504317D01*
X52826646Y-82580653D01*
X52594725Y-82704618D01*
X52391445Y-82871445D01*
X52224618Y-83074725D01*
X52100653Y-83306646D01*
X52024317Y-83558294D01*
X51998541Y-83820000D01*
X40030000Y-83820000D01*
X40030000Y-80010000D01*
X56777319Y-80010000D01*
X56807970Y-80321204D01*
X56898745Y-80620449D01*
X57046155Y-80896235D01*
X57149446Y-81022095D01*
X57065506Y-81066963D01*
X56968815Y-81146315D01*
X56889463Y-81243006D01*
X56830498Y-81353320D01*
X56794188Y-81473018D01*
X56781928Y-81597500D01*
X56781928Y-83502500D01*
X56794188Y-83626982D01*
X56830498Y-83746680D01*
X56889463Y-83856994D01*
X56968815Y-83953685D01*
X57065506Y-84033037D01*
X57175820Y-84092002D01*
X57295518Y-84128312D01*
X57420000Y-84140572D01*
X59420000Y-84140572D01*
X59544482Y-84128312D01*
X59664180Y-84092002D01*
X59774494Y-84033037D01*
X59871185Y-83953685D01*
X59950537Y-83856994D01*
X60009502Y-83746680D01*
X60045812Y-83626982D01*
X60058072Y-83502500D01*
X60058072Y-82550000D01*
X61656122Y-82550000D01*
X61691552Y-82909723D01*
X61796479Y-83255622D01*
X61966871Y-83574404D01*
X62196181Y-83853819D01*
X62475596Y-84083129D01*
X62794378Y-84253521D01*
X63140277Y-84358448D01*
X63409861Y-84385000D01*
X63590139Y-84385000D01*
X63859723Y-84358448D01*
X64205622Y-84253521D01*
X64524404Y-84083129D01*
X64803819Y-83853819D01*
X65033129Y-83574404D01*
X65203521Y-83255622D01*
X65308448Y-82909723D01*
X65343878Y-82550000D01*
X65308448Y-82190277D01*
X65203521Y-81844378D01*
X65033129Y-81525596D01*
X64803819Y-81246181D01*
X64524404Y-81016871D01*
X64205622Y-80846479D01*
X63859723Y-80741552D01*
X63590139Y-80715000D01*
X63409861Y-80715000D01*
X63140277Y-80741552D01*
X62794378Y-80846479D01*
X62475596Y-81016871D01*
X62196181Y-81246181D01*
X61966871Y-81525596D01*
X61796479Y-81844378D01*
X61691552Y-82190277D01*
X61656122Y-82550000D01*
X60058072Y-82550000D01*
X60058072Y-81597500D01*
X60045812Y-81473018D01*
X60009502Y-81353320D01*
X59950537Y-81243006D01*
X59871185Y-81146315D01*
X59774494Y-81066963D01*
X59690554Y-81022095D01*
X59793845Y-80896235D01*
X59941255Y-80620449D01*
X60032030Y-80321204D01*
X60062681Y-80010000D01*
X60055787Y-79940000D01*
X61661928Y-79940000D01*
X61674188Y-80064482D01*
X61710498Y-80184180D01*
X61769463Y-80294494D01*
X61848815Y-80391185D01*
X61945506Y-80470537D01*
X62055820Y-80529502D01*
X62175518Y-80565812D01*
X62300000Y-80578072D01*
X63214250Y-80575000D01*
X63373000Y-80416250D01*
X63373000Y-78867000D01*
X63627000Y-78867000D01*
X63627000Y-80416250D01*
X63785750Y-80575000D01*
X64700000Y-80578072D01*
X64824482Y-80565812D01*
X64944180Y-80529502D01*
X65054494Y-80470537D01*
X65151185Y-80391185D01*
X65230537Y-80294494D01*
X65289502Y-80184180D01*
X65325812Y-80064482D01*
X65338072Y-79940000D01*
X65337105Y-79652009D01*
X66215260Y-79652009D01*
X66215260Y-80367991D01*
X66354941Y-81070215D01*
X66628935Y-81731695D01*
X67026713Y-82327012D01*
X67532988Y-82833287D01*
X68128305Y-83231065D01*
X68789785Y-83505059D01*
X69492009Y-83644740D01*
X70207991Y-83644740D01*
X70910215Y-83505059D01*
X71571695Y-83231065D01*
X72167012Y-82833287D01*
X72673287Y-82327012D01*
X73071065Y-81731695D01*
X73345059Y-81070215D01*
X73484740Y-80367991D01*
X73484740Y-79652009D01*
X73835260Y-79652009D01*
X73835260Y-80367991D01*
X73974941Y-81070215D01*
X74248935Y-81731695D01*
X74646713Y-82327012D01*
X75152988Y-82833287D01*
X75748305Y-83231065D01*
X76409785Y-83505059D01*
X77112009Y-83644740D01*
X77827991Y-83644740D01*
X78530215Y-83505059D01*
X79191695Y-83231065D01*
X79787012Y-82833287D01*
X80070299Y-82550000D01*
X81976122Y-82550000D01*
X82011552Y-82909723D01*
X82116479Y-83255622D01*
X82286871Y-83574404D01*
X82516181Y-83853819D01*
X82795596Y-84083129D01*
X83114378Y-84253521D01*
X83460277Y-84358448D01*
X83729861Y-84385000D01*
X83910139Y-84385000D01*
X84179723Y-84358448D01*
X84525622Y-84253521D01*
X84844404Y-84083129D01*
X85123819Y-83853819D01*
X85353129Y-83574404D01*
X85523521Y-83255622D01*
X85628448Y-82909723D01*
X85663878Y-82550000D01*
X85628448Y-82190277D01*
X85523521Y-81844378D01*
X85353129Y-81525596D01*
X85123819Y-81246181D01*
X84844404Y-81016871D01*
X84525622Y-80846479D01*
X84179723Y-80741552D01*
X83910139Y-80715000D01*
X83729861Y-80715000D01*
X83460277Y-80741552D01*
X83114378Y-80846479D01*
X82795596Y-81016871D01*
X82516181Y-81246181D01*
X82286871Y-81525596D01*
X82116479Y-81844378D01*
X82011552Y-82190277D01*
X81976122Y-82550000D01*
X80070299Y-82550000D01*
X80293287Y-82327012D01*
X80691065Y-81731695D01*
X80965059Y-81070215D01*
X81104740Y-80367991D01*
X81104740Y-79940000D01*
X81981928Y-79940000D01*
X81994188Y-80064482D01*
X82030498Y-80184180D01*
X82089463Y-80294494D01*
X82168815Y-80391185D01*
X82265506Y-80470537D01*
X82375820Y-80529502D01*
X82495518Y-80565812D01*
X82620000Y-80578072D01*
X83534250Y-80575000D01*
X83693000Y-80416250D01*
X83693000Y-78867000D01*
X83947000Y-78867000D01*
X83947000Y-80416250D01*
X84105750Y-80575000D01*
X85020000Y-80578072D01*
X85144482Y-80565812D01*
X85264180Y-80529502D01*
X85374494Y-80470537D01*
X85471185Y-80391185D01*
X85550537Y-80294494D01*
X85609502Y-80184180D01*
X85645812Y-80064482D01*
X85651177Y-80010000D01*
X88527319Y-80010000D01*
X88557970Y-80321204D01*
X88648745Y-80620449D01*
X88796155Y-80896235D01*
X88899446Y-81022095D01*
X88815506Y-81066963D01*
X88718815Y-81146315D01*
X88639463Y-81243006D01*
X88580498Y-81353320D01*
X88544188Y-81473018D01*
X88531928Y-81597500D01*
X88531928Y-83502500D01*
X88544188Y-83626982D01*
X88580498Y-83746680D01*
X88639463Y-83856994D01*
X88718815Y-83953685D01*
X88815506Y-84033037D01*
X88925820Y-84092002D01*
X89045518Y-84128312D01*
X89170000Y-84140572D01*
X91170000Y-84140572D01*
X91294482Y-84128312D01*
X91414180Y-84092002D01*
X91524494Y-84033037D01*
X91621185Y-83953685D01*
X91700537Y-83856994D01*
X91720311Y-83820000D01*
X92638541Y-83820000D01*
X92664317Y-84081706D01*
X92740653Y-84333354D01*
X92864618Y-84565275D01*
X93031445Y-84768555D01*
X93234725Y-84935382D01*
X93466646Y-85059347D01*
X93718294Y-85135683D01*
X93914421Y-85155000D01*
X94045579Y-85155000D01*
X94241706Y-85135683D01*
X94493354Y-85059347D01*
X94725275Y-84935382D01*
X94928555Y-84768555D01*
X95095382Y-84565275D01*
X95219347Y-84333354D01*
X95295683Y-84081706D01*
X95321459Y-83820000D01*
X95295683Y-83558294D01*
X95219347Y-83306646D01*
X95095382Y-83074725D01*
X94928555Y-82871445D01*
X94725275Y-82704618D01*
X94493354Y-82580653D01*
X94241706Y-82504317D01*
X94045579Y-82485000D01*
X93914421Y-82485000D01*
X93718294Y-82504317D01*
X93466646Y-82580653D01*
X93234725Y-82704618D01*
X93031445Y-82871445D01*
X92864618Y-83074725D01*
X92740653Y-83306646D01*
X92664317Y-83558294D01*
X92638541Y-83820000D01*
X91720311Y-83820000D01*
X91759502Y-83746680D01*
X91795812Y-83626982D01*
X91808072Y-83502500D01*
X91808072Y-81597500D01*
X91795812Y-81473018D01*
X91759502Y-81353320D01*
X91700537Y-81243006D01*
X91621185Y-81146315D01*
X91524494Y-81066963D01*
X91440554Y-81022095D01*
X91543845Y-80896235D01*
X91691255Y-80620449D01*
X91782030Y-80321204D01*
X91812681Y-80010000D01*
X91782030Y-79698796D01*
X91691255Y-79399551D01*
X91543845Y-79123765D01*
X91345463Y-78882037D01*
X91166101Y-78734837D01*
X91351315Y-78579437D01*
X91545969Y-78336923D01*
X91689571Y-78061094D01*
X91760563Y-77842980D01*
X91640594Y-77597000D01*
X90297000Y-77597000D01*
X90297000Y-77617000D01*
X90043000Y-77617000D01*
X90043000Y-77597000D01*
X88699406Y-77597000D01*
X88579437Y-77842980D01*
X88650429Y-78061094D01*
X88794031Y-78336923D01*
X88988685Y-78579437D01*
X89173899Y-78734837D01*
X88994537Y-78882037D01*
X88796155Y-79123765D01*
X88648745Y-79399551D01*
X88557970Y-79698796D01*
X88527319Y-80010000D01*
X85651177Y-80010000D01*
X85658072Y-79940000D01*
X85655000Y-79025750D01*
X85496250Y-78867000D01*
X83947000Y-78867000D01*
X83693000Y-78867000D01*
X82143750Y-78867000D01*
X81985000Y-79025750D01*
X81981928Y-79940000D01*
X81104740Y-79940000D01*
X81104740Y-79652009D01*
X80965059Y-78949785D01*
X80691065Y-78288305D01*
X80293287Y-77692988D01*
X80140299Y-77540000D01*
X81981928Y-77540000D01*
X81985000Y-78454250D01*
X82143750Y-78613000D01*
X83693000Y-78613000D01*
X83693000Y-77063750D01*
X83947000Y-77063750D01*
X83947000Y-78613000D01*
X85496250Y-78613000D01*
X85655000Y-78454250D01*
X85658072Y-77540000D01*
X85645812Y-77415518D01*
X85609502Y-77295820D01*
X85550537Y-77185506D01*
X85477919Y-77097020D01*
X88579437Y-77097020D01*
X88699406Y-77343000D01*
X90043000Y-77343000D01*
X90043000Y-76044430D01*
X90297000Y-76044430D01*
X90297000Y-77343000D01*
X91640594Y-77343000D01*
X91748736Y-77121269D01*
X93238336Y-77121269D01*
X93297797Y-77355037D01*
X93536242Y-77465934D01*
X93791740Y-77528183D01*
X94054473Y-77539390D01*
X94314344Y-77499125D01*
X94561366Y-77408935D01*
X94662203Y-77355037D01*
X94721664Y-77121269D01*
X93980000Y-76379605D01*
X93238336Y-77121269D01*
X91748736Y-77121269D01*
X91760563Y-77097020D01*
X91689571Y-76878906D01*
X91545969Y-76603077D01*
X91351315Y-76360563D01*
X91248709Y-76274473D01*
X92640610Y-76274473D01*
X92680875Y-76534344D01*
X92771065Y-76781366D01*
X92824963Y-76882203D01*
X93058731Y-76941664D01*
X93800395Y-76200000D01*
X94159605Y-76200000D01*
X94901269Y-76941664D01*
X95135037Y-76882203D01*
X95245934Y-76643758D01*
X95308183Y-76388260D01*
X95319390Y-76125527D01*
X95279125Y-75865656D01*
X95188935Y-75618634D01*
X95135037Y-75517797D01*
X94901269Y-75458336D01*
X94159605Y-76200000D01*
X93800395Y-76200000D01*
X93058731Y-75458336D01*
X92824963Y-75517797D01*
X92714066Y-75756242D01*
X92651817Y-76011740D01*
X92640610Y-76274473D01*
X91248709Y-76274473D01*
X91113089Y-76160684D01*
X90840446Y-76011121D01*
X90543863Y-75917622D01*
X90297000Y-76044430D01*
X90043000Y-76044430D01*
X89796137Y-75917622D01*
X89499554Y-76011121D01*
X89226911Y-76160684D01*
X88988685Y-76360563D01*
X88794031Y-76603077D01*
X88650429Y-76878906D01*
X88579437Y-77097020D01*
X85477919Y-77097020D01*
X85471185Y-77088815D01*
X85374494Y-77009463D01*
X85264180Y-76950498D01*
X85144482Y-76914188D01*
X85020000Y-76901928D01*
X84105750Y-76905000D01*
X83947000Y-77063750D01*
X83693000Y-77063750D01*
X83534250Y-76905000D01*
X82620000Y-76901928D01*
X82495518Y-76914188D01*
X82375820Y-76950498D01*
X82265506Y-77009463D01*
X82168815Y-77088815D01*
X82089463Y-77185506D01*
X82030498Y-77295820D01*
X81994188Y-77415518D01*
X81981928Y-77540000D01*
X80140299Y-77540000D01*
X79787012Y-77186713D01*
X79191695Y-76788935D01*
X78530215Y-76514941D01*
X77827991Y-76375260D01*
X77112009Y-76375260D01*
X76409785Y-76514941D01*
X75748305Y-76788935D01*
X75152988Y-77186713D01*
X74646713Y-77692988D01*
X74248935Y-78288305D01*
X73974941Y-78949785D01*
X73835260Y-79652009D01*
X73484740Y-79652009D01*
X73345059Y-78949785D01*
X73071065Y-78288305D01*
X72673287Y-77692988D01*
X72167012Y-77186713D01*
X71571695Y-76788935D01*
X70910215Y-76514941D01*
X70207991Y-76375260D01*
X69492009Y-76375260D01*
X68789785Y-76514941D01*
X68128305Y-76788935D01*
X67532988Y-77186713D01*
X67026713Y-77692988D01*
X66628935Y-78288305D01*
X66354941Y-78949785D01*
X66215260Y-79652009D01*
X65337105Y-79652009D01*
X65335000Y-79025750D01*
X65176250Y-78867000D01*
X63627000Y-78867000D01*
X63373000Y-78867000D01*
X61823750Y-78867000D01*
X61665000Y-79025750D01*
X61661928Y-79940000D01*
X60055787Y-79940000D01*
X60032030Y-79698796D01*
X59941255Y-79399551D01*
X59793845Y-79123765D01*
X59595463Y-78882037D01*
X59416101Y-78734837D01*
X59601315Y-78579437D01*
X59795969Y-78336923D01*
X59939571Y-78061094D01*
X60010563Y-77842980D01*
X59890594Y-77597000D01*
X58547000Y-77597000D01*
X58547000Y-77617000D01*
X58293000Y-77617000D01*
X58293000Y-77597000D01*
X56949406Y-77597000D01*
X56829437Y-77842980D01*
X56900429Y-78061094D01*
X57044031Y-78336923D01*
X57238685Y-78579437D01*
X57423899Y-78734837D01*
X57244537Y-78882037D01*
X57046155Y-79123765D01*
X56898745Y-79399551D01*
X56807970Y-79698796D01*
X56777319Y-80010000D01*
X40030000Y-80010000D01*
X40030000Y-77540000D01*
X61661928Y-77540000D01*
X61665000Y-78454250D01*
X61823750Y-78613000D01*
X63373000Y-78613000D01*
X63373000Y-77063750D01*
X63627000Y-77063750D01*
X63627000Y-78613000D01*
X65176250Y-78613000D01*
X65335000Y-78454250D01*
X65338072Y-77540000D01*
X65325812Y-77415518D01*
X65289502Y-77295820D01*
X65230537Y-77185506D01*
X65151185Y-77088815D01*
X65054494Y-77009463D01*
X64944180Y-76950498D01*
X64824482Y-76914188D01*
X64700000Y-76901928D01*
X63785750Y-76905000D01*
X63627000Y-77063750D01*
X63373000Y-77063750D01*
X63214250Y-76905000D01*
X62300000Y-76901928D01*
X62175518Y-76914188D01*
X62055820Y-76950498D01*
X61945506Y-77009463D01*
X61848815Y-77088815D01*
X61769463Y-77185506D01*
X61710498Y-77295820D01*
X61674188Y-77415518D01*
X61661928Y-77540000D01*
X40030000Y-77540000D01*
X40030000Y-77121269D01*
X52598336Y-77121269D01*
X52657797Y-77355037D01*
X52896242Y-77465934D01*
X53151740Y-77528183D01*
X53414473Y-77539390D01*
X53674344Y-77499125D01*
X53921366Y-77408935D01*
X54022203Y-77355037D01*
X54081664Y-77121269D01*
X54057415Y-77097020D01*
X56829437Y-77097020D01*
X56949406Y-77343000D01*
X58293000Y-77343000D01*
X58293000Y-76044430D01*
X58547000Y-76044430D01*
X58547000Y-77343000D01*
X59890594Y-77343000D01*
X60010563Y-77097020D01*
X59939571Y-76878906D01*
X59795969Y-76603077D01*
X59601315Y-76360563D01*
X59363089Y-76160684D01*
X59090446Y-76011121D01*
X58793863Y-75917622D01*
X58547000Y-76044430D01*
X58293000Y-76044430D01*
X58046137Y-75917622D01*
X57749554Y-76011121D01*
X57476911Y-76160684D01*
X57238685Y-76360563D01*
X57044031Y-76603077D01*
X56900429Y-76878906D01*
X56829437Y-77097020D01*
X54057415Y-77097020D01*
X53340000Y-76379605D01*
X52598336Y-77121269D01*
X40030000Y-77121269D01*
X40030000Y-76274473D01*
X52000610Y-76274473D01*
X52040875Y-76534344D01*
X52131065Y-76781366D01*
X52184963Y-76882203D01*
X52418731Y-76941664D01*
X53160395Y-76200000D01*
X53519605Y-76200000D01*
X54261269Y-76941664D01*
X54495037Y-76882203D01*
X54605934Y-76643758D01*
X54668183Y-76388260D01*
X54679390Y-76125527D01*
X54639125Y-75865656D01*
X54548935Y-75618634D01*
X54495037Y-75517797D01*
X54261269Y-75458336D01*
X53519605Y-76200000D01*
X53160395Y-76200000D01*
X52418731Y-75458336D01*
X52184963Y-75517797D01*
X52074066Y-75756242D01*
X52011817Y-76011740D01*
X52000610Y-76274473D01*
X40030000Y-76274473D01*
X40030000Y-75278731D01*
X52598336Y-75278731D01*
X53340000Y-76020395D01*
X54081664Y-75278731D01*
X93238336Y-75278731D01*
X93980000Y-76020395D01*
X94721664Y-75278731D01*
X94662203Y-75044963D01*
X94423758Y-74934066D01*
X94168260Y-74871817D01*
X93905527Y-74860610D01*
X93645656Y-74900875D01*
X93398634Y-74991065D01*
X93297797Y-75044963D01*
X93238336Y-75278731D01*
X54081664Y-75278731D01*
X54022203Y-75044963D01*
X53783758Y-74934066D01*
X53528260Y-74871817D01*
X53265527Y-74860610D01*
X53005656Y-74900875D01*
X52758634Y-74991065D01*
X52657797Y-75044963D01*
X52598336Y-75278731D01*
X40030000Y-75278731D01*
X40030000Y-72390000D01*
X51998541Y-72390000D01*
X52024317Y-72651706D01*
X52100653Y-72903354D01*
X52224618Y-73135275D01*
X52391445Y-73338555D01*
X52594725Y-73505382D01*
X52826646Y-73629347D01*
X53078294Y-73705683D01*
X53274421Y-73725000D01*
X53405579Y-73725000D01*
X53601706Y-73705683D01*
X53853354Y-73629347D01*
X54085275Y-73505382D01*
X54288555Y-73338555D01*
X54455382Y-73135275D01*
X54579347Y-72903354D01*
X54655683Y-72651706D01*
X54681459Y-72390000D01*
X54655683Y-72128294D01*
X54579347Y-71876646D01*
X54455382Y-71644725D01*
X54288555Y-71441445D01*
X54085275Y-71274618D01*
X53853354Y-71150653D01*
X53601706Y-71074317D01*
X53405579Y-71055000D01*
X53274421Y-71055000D01*
X53078294Y-71074317D01*
X52826646Y-71150653D01*
X52594725Y-71274618D01*
X52391445Y-71441445D01*
X52224618Y-71644725D01*
X52100653Y-71876646D01*
X52024317Y-72128294D01*
X51998541Y-72390000D01*
X40030000Y-72390000D01*
X40030000Y-68580000D01*
X56777319Y-68580000D01*
X56807970Y-68891204D01*
X56898745Y-69190449D01*
X57046155Y-69466235D01*
X57149446Y-69592095D01*
X57065506Y-69636963D01*
X56968815Y-69716315D01*
X56889463Y-69813006D01*
X56830498Y-69923320D01*
X56794188Y-70043018D01*
X56781928Y-70167500D01*
X56781928Y-72072500D01*
X56794188Y-72196982D01*
X56830498Y-72316680D01*
X56889463Y-72426994D01*
X56968815Y-72523685D01*
X57065506Y-72603037D01*
X57175820Y-72662002D01*
X57295518Y-72698312D01*
X57420000Y-72710572D01*
X59420000Y-72710572D01*
X59544482Y-72698312D01*
X59664180Y-72662002D01*
X59774494Y-72603037D01*
X59871185Y-72523685D01*
X59950537Y-72426994D01*
X60009502Y-72316680D01*
X60045812Y-72196982D01*
X60058072Y-72072500D01*
X60058072Y-71120000D01*
X61656122Y-71120000D01*
X61691552Y-71479723D01*
X61796479Y-71825622D01*
X61966871Y-72144404D01*
X62196181Y-72423819D01*
X62475596Y-72653129D01*
X62794378Y-72823521D01*
X63140277Y-72928448D01*
X63409861Y-72955000D01*
X63590139Y-72955000D01*
X63859723Y-72928448D01*
X64205622Y-72823521D01*
X64524404Y-72653129D01*
X64803819Y-72423819D01*
X65033129Y-72144404D01*
X65203521Y-71825622D01*
X65308448Y-71479723D01*
X65343878Y-71120000D01*
X65308448Y-70760277D01*
X65203521Y-70414378D01*
X65033129Y-70095596D01*
X64803819Y-69816181D01*
X64524404Y-69586871D01*
X64205622Y-69416479D01*
X63859723Y-69311552D01*
X63590139Y-69285000D01*
X63409861Y-69285000D01*
X63140277Y-69311552D01*
X62794378Y-69416479D01*
X62475596Y-69586871D01*
X62196181Y-69816181D01*
X61966871Y-70095596D01*
X61796479Y-70414378D01*
X61691552Y-70760277D01*
X61656122Y-71120000D01*
X60058072Y-71120000D01*
X60058072Y-70167500D01*
X60045812Y-70043018D01*
X60009502Y-69923320D01*
X59950537Y-69813006D01*
X59871185Y-69716315D01*
X59774494Y-69636963D01*
X59690554Y-69592095D01*
X59793845Y-69466235D01*
X59941255Y-69190449D01*
X60032030Y-68891204D01*
X60062681Y-68580000D01*
X60055787Y-68510000D01*
X61661928Y-68510000D01*
X61674188Y-68634482D01*
X61710498Y-68754180D01*
X61769463Y-68864494D01*
X61848815Y-68961185D01*
X61945506Y-69040537D01*
X62055820Y-69099502D01*
X62175518Y-69135812D01*
X62300000Y-69148072D01*
X63214250Y-69145000D01*
X63373000Y-68986250D01*
X63373000Y-67437000D01*
X63627000Y-67437000D01*
X63627000Y-68986250D01*
X63785750Y-69145000D01*
X64700000Y-69148072D01*
X64824482Y-69135812D01*
X64944180Y-69099502D01*
X65054494Y-69040537D01*
X65151185Y-68961185D01*
X65230537Y-68864494D01*
X65289502Y-68754180D01*
X65325812Y-68634482D01*
X65338072Y-68510000D01*
X65337105Y-68222009D01*
X66215260Y-68222009D01*
X66215260Y-68937991D01*
X66354941Y-69640215D01*
X66628935Y-70301695D01*
X67026713Y-70897012D01*
X67532988Y-71403287D01*
X68128305Y-71801065D01*
X68789785Y-72075059D01*
X69492009Y-72214740D01*
X70207991Y-72214740D01*
X70910215Y-72075059D01*
X71571695Y-71801065D01*
X72167012Y-71403287D01*
X72673287Y-70897012D01*
X73071065Y-70301695D01*
X73345059Y-69640215D01*
X73484740Y-68937991D01*
X73484740Y-68222009D01*
X73835260Y-68222009D01*
X73835260Y-68937991D01*
X73974941Y-69640215D01*
X74248935Y-70301695D01*
X74646713Y-70897012D01*
X75152988Y-71403287D01*
X75748305Y-71801065D01*
X76409785Y-72075059D01*
X77112009Y-72214740D01*
X77827991Y-72214740D01*
X78530215Y-72075059D01*
X79191695Y-71801065D01*
X79787012Y-71403287D01*
X80070299Y-71120000D01*
X81976122Y-71120000D01*
X82011552Y-71479723D01*
X82116479Y-71825622D01*
X82286871Y-72144404D01*
X82516181Y-72423819D01*
X82795596Y-72653129D01*
X83114378Y-72823521D01*
X83460277Y-72928448D01*
X83729861Y-72955000D01*
X83910139Y-72955000D01*
X84179723Y-72928448D01*
X84525622Y-72823521D01*
X84844404Y-72653129D01*
X85123819Y-72423819D01*
X85353129Y-72144404D01*
X85523521Y-71825622D01*
X85628448Y-71479723D01*
X85663878Y-71120000D01*
X85628448Y-70760277D01*
X85523521Y-70414378D01*
X85353129Y-70095596D01*
X85123819Y-69816181D01*
X84844404Y-69586871D01*
X84525622Y-69416479D01*
X84179723Y-69311552D01*
X83910139Y-69285000D01*
X83729861Y-69285000D01*
X83460277Y-69311552D01*
X83114378Y-69416479D01*
X82795596Y-69586871D01*
X82516181Y-69816181D01*
X82286871Y-70095596D01*
X82116479Y-70414378D01*
X82011552Y-70760277D01*
X81976122Y-71120000D01*
X80070299Y-71120000D01*
X80293287Y-70897012D01*
X80691065Y-70301695D01*
X80965059Y-69640215D01*
X81104740Y-68937991D01*
X81104740Y-68510000D01*
X81981928Y-68510000D01*
X81994188Y-68634482D01*
X82030498Y-68754180D01*
X82089463Y-68864494D01*
X82168815Y-68961185D01*
X82265506Y-69040537D01*
X82375820Y-69099502D01*
X82495518Y-69135812D01*
X82620000Y-69148072D01*
X83534250Y-69145000D01*
X83693000Y-68986250D01*
X83693000Y-67437000D01*
X83947000Y-67437000D01*
X83947000Y-68986250D01*
X84105750Y-69145000D01*
X85020000Y-69148072D01*
X85144482Y-69135812D01*
X85264180Y-69099502D01*
X85374494Y-69040537D01*
X85471185Y-68961185D01*
X85550537Y-68864494D01*
X85609502Y-68754180D01*
X85645812Y-68634482D01*
X85651177Y-68580000D01*
X88527319Y-68580000D01*
X88557970Y-68891204D01*
X88648745Y-69190449D01*
X88796155Y-69466235D01*
X88899446Y-69592095D01*
X88815506Y-69636963D01*
X88718815Y-69716315D01*
X88639463Y-69813006D01*
X88580498Y-69923320D01*
X88544188Y-70043018D01*
X88531928Y-70167500D01*
X88531928Y-72072500D01*
X88544188Y-72196982D01*
X88580498Y-72316680D01*
X88639463Y-72426994D01*
X88718815Y-72523685D01*
X88815506Y-72603037D01*
X88925820Y-72662002D01*
X89045518Y-72698312D01*
X89170000Y-72710572D01*
X91170000Y-72710572D01*
X91294482Y-72698312D01*
X91414180Y-72662002D01*
X91524494Y-72603037D01*
X91621185Y-72523685D01*
X91700537Y-72426994D01*
X91720311Y-72390000D01*
X92638541Y-72390000D01*
X92664317Y-72651706D01*
X92740653Y-72903354D01*
X92864618Y-73135275D01*
X93031445Y-73338555D01*
X93234725Y-73505382D01*
X93466646Y-73629347D01*
X93718294Y-73705683D01*
X93914421Y-73725000D01*
X94045579Y-73725000D01*
X94241706Y-73705683D01*
X94493354Y-73629347D01*
X94725275Y-73505382D01*
X94928555Y-73338555D01*
X95095382Y-73135275D01*
X95219347Y-72903354D01*
X95295683Y-72651706D01*
X95321459Y-72390000D01*
X95295683Y-72128294D01*
X95219347Y-71876646D01*
X95095382Y-71644725D01*
X94928555Y-71441445D01*
X94725275Y-71274618D01*
X94493354Y-71150653D01*
X94241706Y-71074317D01*
X94045579Y-71055000D01*
X93914421Y-71055000D01*
X93718294Y-71074317D01*
X93466646Y-71150653D01*
X93234725Y-71274618D01*
X93031445Y-71441445D01*
X92864618Y-71644725D01*
X92740653Y-71876646D01*
X92664317Y-72128294D01*
X92638541Y-72390000D01*
X91720311Y-72390000D01*
X91759502Y-72316680D01*
X91795812Y-72196982D01*
X91808072Y-72072500D01*
X91808072Y-70167500D01*
X91795812Y-70043018D01*
X91759502Y-69923320D01*
X91700537Y-69813006D01*
X91621185Y-69716315D01*
X91524494Y-69636963D01*
X91440554Y-69592095D01*
X91543845Y-69466235D01*
X91691255Y-69190449D01*
X91782030Y-68891204D01*
X91812681Y-68580000D01*
X91782030Y-68268796D01*
X91691255Y-67969551D01*
X91543845Y-67693765D01*
X91345463Y-67452037D01*
X91166101Y-67304837D01*
X91351315Y-67149437D01*
X91545969Y-66906923D01*
X91689571Y-66631094D01*
X91760563Y-66412980D01*
X91640594Y-66167000D01*
X90297000Y-66167000D01*
X90297000Y-66187000D01*
X90043000Y-66187000D01*
X90043000Y-66167000D01*
X88699406Y-66167000D01*
X88579437Y-66412980D01*
X88650429Y-66631094D01*
X88794031Y-66906923D01*
X88988685Y-67149437D01*
X89173899Y-67304837D01*
X88994537Y-67452037D01*
X88796155Y-67693765D01*
X88648745Y-67969551D01*
X88557970Y-68268796D01*
X88527319Y-68580000D01*
X85651177Y-68580000D01*
X85658072Y-68510000D01*
X85655000Y-67595750D01*
X85496250Y-67437000D01*
X83947000Y-67437000D01*
X83693000Y-67437000D01*
X82143750Y-67437000D01*
X81985000Y-67595750D01*
X81981928Y-68510000D01*
X81104740Y-68510000D01*
X81104740Y-68222009D01*
X80965059Y-67519785D01*
X80691065Y-66858305D01*
X80293287Y-66262988D01*
X80140299Y-66110000D01*
X81981928Y-66110000D01*
X81985000Y-67024250D01*
X82143750Y-67183000D01*
X83693000Y-67183000D01*
X83693000Y-65633750D01*
X83947000Y-65633750D01*
X83947000Y-67183000D01*
X85496250Y-67183000D01*
X85655000Y-67024250D01*
X85658072Y-66110000D01*
X85645812Y-65985518D01*
X85609502Y-65865820D01*
X85550537Y-65755506D01*
X85477919Y-65667020D01*
X88579437Y-65667020D01*
X88699406Y-65913000D01*
X90043000Y-65913000D01*
X90043000Y-64614430D01*
X90297000Y-64614430D01*
X90297000Y-65913000D01*
X91640594Y-65913000D01*
X91748736Y-65691269D01*
X93238336Y-65691269D01*
X93297797Y-65925037D01*
X93536242Y-66035934D01*
X93791740Y-66098183D01*
X94054473Y-66109390D01*
X94314344Y-66069125D01*
X94561366Y-65978935D01*
X94662203Y-65925037D01*
X94721664Y-65691269D01*
X93980000Y-64949605D01*
X93238336Y-65691269D01*
X91748736Y-65691269D01*
X91760563Y-65667020D01*
X91689571Y-65448906D01*
X91545969Y-65173077D01*
X91351315Y-64930563D01*
X91248709Y-64844473D01*
X92640610Y-64844473D01*
X92680875Y-65104344D01*
X92771065Y-65351366D01*
X92824963Y-65452203D01*
X93058731Y-65511664D01*
X93800395Y-64770000D01*
X94159605Y-64770000D01*
X94901269Y-65511664D01*
X95135037Y-65452203D01*
X95245934Y-65213758D01*
X95308183Y-64958260D01*
X95319390Y-64695527D01*
X95279125Y-64435656D01*
X95188935Y-64188634D01*
X95135037Y-64087797D01*
X94901269Y-64028336D01*
X94159605Y-64770000D01*
X93800395Y-64770000D01*
X93058731Y-64028336D01*
X92824963Y-64087797D01*
X92714066Y-64326242D01*
X92651817Y-64581740D01*
X92640610Y-64844473D01*
X91248709Y-64844473D01*
X91113089Y-64730684D01*
X90840446Y-64581121D01*
X90543863Y-64487622D01*
X90297000Y-64614430D01*
X90043000Y-64614430D01*
X89796137Y-64487622D01*
X89499554Y-64581121D01*
X89226911Y-64730684D01*
X88988685Y-64930563D01*
X88794031Y-65173077D01*
X88650429Y-65448906D01*
X88579437Y-65667020D01*
X85477919Y-65667020D01*
X85471185Y-65658815D01*
X85374494Y-65579463D01*
X85264180Y-65520498D01*
X85144482Y-65484188D01*
X85020000Y-65471928D01*
X84105750Y-65475000D01*
X83947000Y-65633750D01*
X83693000Y-65633750D01*
X83534250Y-65475000D01*
X82620000Y-65471928D01*
X82495518Y-65484188D01*
X82375820Y-65520498D01*
X82265506Y-65579463D01*
X82168815Y-65658815D01*
X82089463Y-65755506D01*
X82030498Y-65865820D01*
X81994188Y-65985518D01*
X81981928Y-66110000D01*
X80140299Y-66110000D01*
X79787012Y-65756713D01*
X79191695Y-65358935D01*
X78530215Y-65084941D01*
X77827991Y-64945260D01*
X77112009Y-64945260D01*
X76409785Y-65084941D01*
X75748305Y-65358935D01*
X75152988Y-65756713D01*
X74646713Y-66262988D01*
X74248935Y-66858305D01*
X73974941Y-67519785D01*
X73835260Y-68222009D01*
X73484740Y-68222009D01*
X73345059Y-67519785D01*
X73071065Y-66858305D01*
X72673287Y-66262988D01*
X72167012Y-65756713D01*
X71571695Y-65358935D01*
X70910215Y-65084941D01*
X70207991Y-64945260D01*
X69492009Y-64945260D01*
X68789785Y-65084941D01*
X68128305Y-65358935D01*
X67532988Y-65756713D01*
X67026713Y-66262988D01*
X66628935Y-66858305D01*
X66354941Y-67519785D01*
X66215260Y-68222009D01*
X65337105Y-68222009D01*
X65335000Y-67595750D01*
X65176250Y-67437000D01*
X63627000Y-67437000D01*
X63373000Y-67437000D01*
X61823750Y-67437000D01*
X61665000Y-67595750D01*
X61661928Y-68510000D01*
X60055787Y-68510000D01*
X60032030Y-68268796D01*
X59941255Y-67969551D01*
X59793845Y-67693765D01*
X59595463Y-67452037D01*
X59416101Y-67304837D01*
X59601315Y-67149437D01*
X59795969Y-66906923D01*
X59939571Y-66631094D01*
X60010563Y-66412980D01*
X59890594Y-66167000D01*
X58547000Y-66167000D01*
X58547000Y-66187000D01*
X58293000Y-66187000D01*
X58293000Y-66167000D01*
X56949406Y-66167000D01*
X56829437Y-66412980D01*
X56900429Y-66631094D01*
X57044031Y-66906923D01*
X57238685Y-67149437D01*
X57423899Y-67304837D01*
X57244537Y-67452037D01*
X57046155Y-67693765D01*
X56898745Y-67969551D01*
X56807970Y-68268796D01*
X56777319Y-68580000D01*
X40030000Y-68580000D01*
X40030000Y-66110000D01*
X61661928Y-66110000D01*
X61665000Y-67024250D01*
X61823750Y-67183000D01*
X63373000Y-67183000D01*
X63373000Y-65633750D01*
X63627000Y-65633750D01*
X63627000Y-67183000D01*
X65176250Y-67183000D01*
X65335000Y-67024250D01*
X65338072Y-66110000D01*
X65325812Y-65985518D01*
X65289502Y-65865820D01*
X65230537Y-65755506D01*
X65151185Y-65658815D01*
X65054494Y-65579463D01*
X64944180Y-65520498D01*
X64824482Y-65484188D01*
X64700000Y-65471928D01*
X63785750Y-65475000D01*
X63627000Y-65633750D01*
X63373000Y-65633750D01*
X63214250Y-65475000D01*
X62300000Y-65471928D01*
X62175518Y-65484188D01*
X62055820Y-65520498D01*
X61945506Y-65579463D01*
X61848815Y-65658815D01*
X61769463Y-65755506D01*
X61710498Y-65865820D01*
X61674188Y-65985518D01*
X61661928Y-66110000D01*
X40030000Y-66110000D01*
X40030000Y-65691269D01*
X52598336Y-65691269D01*
X52657797Y-65925037D01*
X52896242Y-66035934D01*
X53151740Y-66098183D01*
X53414473Y-66109390D01*
X53674344Y-66069125D01*
X53921366Y-65978935D01*
X54022203Y-65925037D01*
X54081664Y-65691269D01*
X54057415Y-65667020D01*
X56829437Y-65667020D01*
X56949406Y-65913000D01*
X58293000Y-65913000D01*
X58293000Y-64614430D01*
X58547000Y-64614430D01*
X58547000Y-65913000D01*
X59890594Y-65913000D01*
X60010563Y-65667020D01*
X59939571Y-65448906D01*
X59795969Y-65173077D01*
X59601315Y-64930563D01*
X59363089Y-64730684D01*
X59090446Y-64581121D01*
X58793863Y-64487622D01*
X58547000Y-64614430D01*
X58293000Y-64614430D01*
X58046137Y-64487622D01*
X57749554Y-64581121D01*
X57476911Y-64730684D01*
X57238685Y-64930563D01*
X57044031Y-65173077D01*
X56900429Y-65448906D01*
X56829437Y-65667020D01*
X54057415Y-65667020D01*
X53340000Y-64949605D01*
X52598336Y-65691269D01*
X40030000Y-65691269D01*
X40030000Y-64844473D01*
X52000610Y-64844473D01*
X52040875Y-65104344D01*
X52131065Y-65351366D01*
X52184963Y-65452203D01*
X52418731Y-65511664D01*
X53160395Y-64770000D01*
X53519605Y-64770000D01*
X54261269Y-65511664D01*
X54495037Y-65452203D01*
X54605934Y-65213758D01*
X54668183Y-64958260D01*
X54679390Y-64695527D01*
X54639125Y-64435656D01*
X54548935Y-64188634D01*
X54495037Y-64087797D01*
X54261269Y-64028336D01*
X53519605Y-64770000D01*
X53160395Y-64770000D01*
X52418731Y-64028336D01*
X52184963Y-64087797D01*
X52074066Y-64326242D01*
X52011817Y-64581740D01*
X52000610Y-64844473D01*
X40030000Y-64844473D01*
X40030000Y-63848731D01*
X52598336Y-63848731D01*
X53340000Y-64590395D01*
X54081664Y-63848731D01*
X93238336Y-63848731D01*
X93980000Y-64590395D01*
X94721664Y-63848731D01*
X94662203Y-63614963D01*
X94423758Y-63504066D01*
X94168260Y-63441817D01*
X93905527Y-63430610D01*
X93645656Y-63470875D01*
X93398634Y-63561065D01*
X93297797Y-63614963D01*
X93238336Y-63848731D01*
X54081664Y-63848731D01*
X54022203Y-63614963D01*
X53783758Y-63504066D01*
X53528260Y-63441817D01*
X53265527Y-63430610D01*
X53005656Y-63470875D01*
X52758634Y-63561065D01*
X52657797Y-63614963D01*
X52598336Y-63848731D01*
X40030000Y-63848731D01*
X40030000Y-56350000D01*
X51901928Y-56350000D01*
X51901928Y-57950000D01*
X51914188Y-58074482D01*
X51950498Y-58194180D01*
X52009463Y-58304494D01*
X52088815Y-58401185D01*
X52185506Y-58480537D01*
X52295820Y-58539502D01*
X52415518Y-58575812D01*
X52540000Y-58588072D01*
X54140000Y-58588072D01*
X54264482Y-58575812D01*
X54384180Y-58539502D01*
X54494494Y-58480537D01*
X54591185Y-58401185D01*
X54670537Y-58304494D01*
X54729502Y-58194180D01*
X54765812Y-58074482D01*
X54767581Y-58056518D01*
X54860392Y-58169608D01*
X55078899Y-58348932D01*
X55328192Y-58482182D01*
X55598691Y-58564236D01*
X55809508Y-58585000D01*
X55950492Y-58585000D01*
X56161309Y-58564236D01*
X56431808Y-58482182D01*
X56681101Y-58348932D01*
X56899608Y-58169608D01*
X57078932Y-57951101D01*
X57150000Y-57818142D01*
X57221068Y-57951101D01*
X57400392Y-58169608D01*
X57618899Y-58348932D01*
X57868192Y-58482182D01*
X58138691Y-58564236D01*
X58349508Y-58585000D01*
X58490492Y-58585000D01*
X58701309Y-58564236D01*
X58971808Y-58482182D01*
X59221101Y-58348932D01*
X59439608Y-58169608D01*
X59618932Y-57951101D01*
X59690000Y-57818142D01*
X59761068Y-57951101D01*
X59940392Y-58169608D01*
X60158899Y-58348932D01*
X60408192Y-58482182D01*
X60678691Y-58564236D01*
X60889508Y-58585000D01*
X61030492Y-58585000D01*
X61241309Y-58564236D01*
X61511808Y-58482182D01*
X61761101Y-58348932D01*
X61979608Y-58169608D01*
X62158932Y-57951101D01*
X62230000Y-57818142D01*
X62301068Y-57951101D01*
X62480392Y-58169608D01*
X62698899Y-58348932D01*
X62948192Y-58482182D01*
X63218691Y-58564236D01*
X63429508Y-58585000D01*
X63570492Y-58585000D01*
X63781309Y-58564236D01*
X64051808Y-58482182D01*
X64301101Y-58348932D01*
X64519608Y-58169608D01*
X64698932Y-57951101D01*
X64770000Y-57818142D01*
X64841068Y-57951101D01*
X65020392Y-58169608D01*
X65238899Y-58348932D01*
X65488192Y-58482182D01*
X65758691Y-58564236D01*
X65969508Y-58585000D01*
X66110492Y-58585000D01*
X66321309Y-58564236D01*
X66591808Y-58482182D01*
X66841101Y-58348932D01*
X67059608Y-58169608D01*
X67238932Y-57951101D01*
X67310000Y-57818142D01*
X67381068Y-57951101D01*
X67560392Y-58169608D01*
X67778899Y-58348932D01*
X68028192Y-58482182D01*
X68298691Y-58564236D01*
X68509508Y-58585000D01*
X68650492Y-58585000D01*
X68861309Y-58564236D01*
X69131808Y-58482182D01*
X69381101Y-58348932D01*
X69599608Y-58169608D01*
X69778932Y-57951101D01*
X69852579Y-57813318D01*
X69967615Y-58005131D01*
X70156586Y-58213519D01*
X70382580Y-58381037D01*
X70636913Y-58501246D01*
X70770961Y-58541904D01*
X70993000Y-58419915D01*
X70993000Y-57277000D01*
X71247000Y-57277000D01*
X71247000Y-58419915D01*
X71469039Y-58541904D01*
X71603087Y-58501246D01*
X71735838Y-58438502D01*
X86521103Y-58438502D01*
X86857260Y-58907657D01*
X87487177Y-59248000D01*
X88171388Y-59458913D01*
X88883599Y-59532290D01*
X89596441Y-59465311D01*
X90282518Y-59260552D01*
X90915466Y-58925879D01*
X90942740Y-58907657D01*
X91278897Y-58438502D01*
X88900000Y-56059605D01*
X86521103Y-58438502D01*
X71735838Y-58438502D01*
X71857420Y-58381037D01*
X72083414Y-58213519D01*
X72272385Y-58005131D01*
X72417070Y-57763881D01*
X72511909Y-57499040D01*
X72390624Y-57277000D01*
X71247000Y-57277000D01*
X70993000Y-57277000D01*
X70973000Y-57277000D01*
X70973000Y-57023000D01*
X70993000Y-57023000D01*
X70993000Y-55880085D01*
X71247000Y-55880085D01*
X71247000Y-57023000D01*
X72390624Y-57023000D01*
X72511909Y-56800960D01*
X72417070Y-56536119D01*
X72272385Y-56294869D01*
X72083414Y-56086481D01*
X71857420Y-55918963D01*
X71740284Y-55863599D01*
X85247710Y-55863599D01*
X85314689Y-56576441D01*
X85519448Y-57262518D01*
X85854121Y-57895466D01*
X85872343Y-57922740D01*
X86341498Y-58258897D01*
X88720395Y-55880000D01*
X89079605Y-55880000D01*
X91458502Y-58258897D01*
X91927657Y-57922740D01*
X92268000Y-57292823D01*
X92478913Y-56608612D01*
X92552290Y-55896401D01*
X92485311Y-55183559D01*
X92280552Y-54497482D01*
X91945879Y-53864534D01*
X91927657Y-53837260D01*
X91458502Y-53501103D01*
X89079605Y-55880000D01*
X88720395Y-55880000D01*
X86341498Y-53501103D01*
X85872343Y-53837260D01*
X85532000Y-54467177D01*
X85321087Y-55151388D01*
X85247710Y-55863599D01*
X71740284Y-55863599D01*
X71603087Y-55798754D01*
X71469039Y-55758096D01*
X71247000Y-55880085D01*
X70993000Y-55880085D01*
X70770961Y-55758096D01*
X70636913Y-55798754D01*
X70382580Y-55918963D01*
X70156586Y-56086481D01*
X69967615Y-56294869D01*
X69852579Y-56486682D01*
X69778932Y-56348899D01*
X69599608Y-56130392D01*
X69381101Y-55951068D01*
X69131808Y-55817818D01*
X68861309Y-55735764D01*
X68650492Y-55715000D01*
X68509508Y-55715000D01*
X68298691Y-55735764D01*
X68028192Y-55817818D01*
X67778899Y-55951068D01*
X67560392Y-56130392D01*
X67381068Y-56348899D01*
X67310000Y-56481858D01*
X67238932Y-56348899D01*
X67059608Y-56130392D01*
X66841101Y-55951068D01*
X66591808Y-55817818D01*
X66321309Y-55735764D01*
X66110492Y-55715000D01*
X65969508Y-55715000D01*
X65758691Y-55735764D01*
X65488192Y-55817818D01*
X65238899Y-55951068D01*
X65020392Y-56130392D01*
X64841068Y-56348899D01*
X64770000Y-56481858D01*
X64698932Y-56348899D01*
X64519608Y-56130392D01*
X64301101Y-55951068D01*
X64051808Y-55817818D01*
X63781309Y-55735764D01*
X63570492Y-55715000D01*
X63429508Y-55715000D01*
X63218691Y-55735764D01*
X62948192Y-55817818D01*
X62698899Y-55951068D01*
X62480392Y-56130392D01*
X62301068Y-56348899D01*
X62230000Y-56481858D01*
X62158932Y-56348899D01*
X61979608Y-56130392D01*
X61761101Y-55951068D01*
X61511808Y-55817818D01*
X61241309Y-55735764D01*
X61030492Y-55715000D01*
X60889508Y-55715000D01*
X60678691Y-55735764D01*
X60408192Y-55817818D01*
X60158899Y-55951068D01*
X59940392Y-56130392D01*
X59761068Y-56348899D01*
X59690000Y-56481858D01*
X59618932Y-56348899D01*
X59439608Y-56130392D01*
X59221101Y-55951068D01*
X58971808Y-55817818D01*
X58701309Y-55735764D01*
X58490492Y-55715000D01*
X58349508Y-55715000D01*
X58138691Y-55735764D01*
X57868192Y-55817818D01*
X57618899Y-55951068D01*
X57400392Y-56130392D01*
X57221068Y-56348899D01*
X57150000Y-56481858D01*
X57078932Y-56348899D01*
X56899608Y-56130392D01*
X56681101Y-55951068D01*
X56431808Y-55817818D01*
X56161309Y-55735764D01*
X55950492Y-55715000D01*
X55809508Y-55715000D01*
X55598691Y-55735764D01*
X55328192Y-55817818D01*
X55078899Y-55951068D01*
X54860392Y-56130392D01*
X54767581Y-56243482D01*
X54765812Y-56225518D01*
X54729502Y-56105820D01*
X54670537Y-55995506D01*
X54591185Y-55898815D01*
X54494494Y-55819463D01*
X54384180Y-55760498D01*
X54264482Y-55724188D01*
X54140000Y-55711928D01*
X52540000Y-55711928D01*
X52415518Y-55724188D01*
X52295820Y-55760498D01*
X52185506Y-55819463D01*
X52088815Y-55898815D01*
X52009463Y-55995506D01*
X51950498Y-56105820D01*
X51914188Y-56225518D01*
X51901928Y-56350000D01*
X40030000Y-56350000D01*
X40030000Y-53321498D01*
X86521103Y-53321498D01*
X88900000Y-55700395D01*
X91278897Y-53321498D01*
X90942740Y-52852343D01*
X90312823Y-52512000D01*
X89628612Y-52301087D01*
X88916401Y-52227710D01*
X88203559Y-52294689D01*
X87517482Y-52499448D01*
X86884534Y-52834121D01*
X86857260Y-52852343D01*
X86521103Y-53321498D01*
X40030000Y-53321498D01*
X40030000Y-49530000D01*
X51898057Y-49530000D01*
X51925764Y-49811309D01*
X52007818Y-50081808D01*
X52141068Y-50331101D01*
X52320392Y-50549608D01*
X52538899Y-50728932D01*
X52788192Y-50862182D01*
X53058691Y-50944236D01*
X53269508Y-50965000D01*
X53410492Y-50965000D01*
X53621309Y-50944236D01*
X53891808Y-50862182D01*
X54141101Y-50728932D01*
X54359608Y-50549608D01*
X54538932Y-50331101D01*
X54610000Y-50198142D01*
X54681068Y-50331101D01*
X54860392Y-50549608D01*
X55078899Y-50728932D01*
X55328192Y-50862182D01*
X55598691Y-50944236D01*
X55809508Y-50965000D01*
X55950492Y-50965000D01*
X56161309Y-50944236D01*
X56431808Y-50862182D01*
X56681101Y-50728932D01*
X56899608Y-50549608D01*
X57078932Y-50331101D01*
X57150000Y-50198142D01*
X57221068Y-50331101D01*
X57400392Y-50549608D01*
X57618899Y-50728932D01*
X57868192Y-50862182D01*
X58138691Y-50944236D01*
X58349508Y-50965000D01*
X58490492Y-50965000D01*
X58701309Y-50944236D01*
X58971808Y-50862182D01*
X59221101Y-50728932D01*
X59439608Y-50549608D01*
X59618932Y-50331101D01*
X59692579Y-50193318D01*
X59807615Y-50385131D01*
X59996586Y-50593519D01*
X60222580Y-50761037D01*
X60476913Y-50881246D01*
X60610961Y-50921904D01*
X60833000Y-50799915D01*
X60833000Y-49657000D01*
X60813000Y-49657000D01*
X60813000Y-49403000D01*
X60833000Y-49403000D01*
X60833000Y-48260085D01*
X61087000Y-48260085D01*
X61087000Y-49403000D01*
X61107000Y-49403000D01*
X61107000Y-49657000D01*
X61087000Y-49657000D01*
X61087000Y-50799915D01*
X61309039Y-50921904D01*
X61443087Y-50881246D01*
X61697420Y-50761037D01*
X61923414Y-50593519D01*
X62112385Y-50385131D01*
X62227421Y-50193318D01*
X62301068Y-50331101D01*
X62480392Y-50549608D01*
X62698899Y-50728932D01*
X62948192Y-50862182D01*
X63218691Y-50944236D01*
X63429508Y-50965000D01*
X63570492Y-50965000D01*
X63781309Y-50944236D01*
X64051808Y-50862182D01*
X64301101Y-50728932D01*
X64519608Y-50549608D01*
X64698932Y-50331101D01*
X64770000Y-50198142D01*
X64841068Y-50331101D01*
X65020392Y-50549608D01*
X65238899Y-50728932D01*
X65488192Y-50862182D01*
X65758691Y-50944236D01*
X65969508Y-50965000D01*
X66110492Y-50965000D01*
X66321309Y-50944236D01*
X66591808Y-50862182D01*
X66841101Y-50728932D01*
X67059608Y-50549608D01*
X67238932Y-50331101D01*
X67310000Y-50198142D01*
X67381068Y-50331101D01*
X67560392Y-50549608D01*
X67778899Y-50728932D01*
X68028192Y-50862182D01*
X68298691Y-50944236D01*
X68509508Y-50965000D01*
X68650492Y-50965000D01*
X68861309Y-50944236D01*
X69131808Y-50862182D01*
X69381101Y-50728932D01*
X69599608Y-50549608D01*
X69778932Y-50331101D01*
X69850000Y-50198142D01*
X69921068Y-50331101D01*
X70100392Y-50549608D01*
X70318899Y-50728932D01*
X70568192Y-50862182D01*
X70838691Y-50944236D01*
X71049508Y-50965000D01*
X71190492Y-50965000D01*
X71401309Y-50944236D01*
X71671808Y-50862182D01*
X71921101Y-50728932D01*
X72139608Y-50549608D01*
X72318932Y-50331101D01*
X72452182Y-50081808D01*
X72534236Y-49811309D01*
X72561943Y-49530000D01*
X72534236Y-49248691D01*
X72452182Y-48978192D01*
X72318932Y-48728899D01*
X72139608Y-48510392D01*
X71921101Y-48331068D01*
X71671808Y-48197818D01*
X71401309Y-48115764D01*
X71190492Y-48095000D01*
X71049508Y-48095000D01*
X70838691Y-48115764D01*
X70568192Y-48197818D01*
X70318899Y-48331068D01*
X70100392Y-48510392D01*
X69921068Y-48728899D01*
X69850000Y-48861858D01*
X69778932Y-48728899D01*
X69599608Y-48510392D01*
X69381101Y-48331068D01*
X69131808Y-48197818D01*
X68861309Y-48115764D01*
X68650492Y-48095000D01*
X68509508Y-48095000D01*
X68298691Y-48115764D01*
X68028192Y-48197818D01*
X67778899Y-48331068D01*
X67560392Y-48510392D01*
X67381068Y-48728899D01*
X67310000Y-48861858D01*
X67238932Y-48728899D01*
X67059608Y-48510392D01*
X66841101Y-48331068D01*
X66591808Y-48197818D01*
X66321309Y-48115764D01*
X66110492Y-48095000D01*
X65969508Y-48095000D01*
X65758691Y-48115764D01*
X65488192Y-48197818D01*
X65238899Y-48331068D01*
X65020392Y-48510392D01*
X64841068Y-48728899D01*
X64770000Y-48861858D01*
X64698932Y-48728899D01*
X64519608Y-48510392D01*
X64301101Y-48331068D01*
X64051808Y-48197818D01*
X63781309Y-48115764D01*
X63570492Y-48095000D01*
X63429508Y-48095000D01*
X63218691Y-48115764D01*
X62948192Y-48197818D01*
X62698899Y-48331068D01*
X62480392Y-48510392D01*
X62301068Y-48728899D01*
X62227421Y-48866682D01*
X62112385Y-48674869D01*
X61923414Y-48466481D01*
X61697420Y-48298963D01*
X61443087Y-48178754D01*
X61309039Y-48138096D01*
X61087000Y-48260085D01*
X60833000Y-48260085D01*
X60610961Y-48138096D01*
X60476913Y-48178754D01*
X60222580Y-48298963D01*
X59996586Y-48466481D01*
X59807615Y-48674869D01*
X59692579Y-48866682D01*
X59618932Y-48728899D01*
X59439608Y-48510392D01*
X59221101Y-48331068D01*
X58971808Y-48197818D01*
X58701309Y-48115764D01*
X58490492Y-48095000D01*
X58349508Y-48095000D01*
X58138691Y-48115764D01*
X57868192Y-48197818D01*
X57618899Y-48331068D01*
X57400392Y-48510392D01*
X57221068Y-48728899D01*
X57150000Y-48861858D01*
X57078932Y-48728899D01*
X56899608Y-48510392D01*
X56681101Y-48331068D01*
X56431808Y-48197818D01*
X56161309Y-48115764D01*
X55950492Y-48095000D01*
X55809508Y-48095000D01*
X55598691Y-48115764D01*
X55328192Y-48197818D01*
X55078899Y-48331068D01*
X54860392Y-48510392D01*
X54681068Y-48728899D01*
X54610000Y-48861858D01*
X54538932Y-48728899D01*
X54359608Y-48510392D01*
X54141101Y-48331068D01*
X53891808Y-48197818D01*
X53621309Y-48115764D01*
X53410492Y-48095000D01*
X53269508Y-48095000D01*
X53058691Y-48115764D01*
X52788192Y-48197818D01*
X52538899Y-48331068D01*
X52320392Y-48510392D01*
X52141068Y-48728899D01*
X52007818Y-48978192D01*
X51925764Y-49248691D01*
X51898057Y-49530000D01*
X40030000Y-49530000D01*
X40030000Y-42822009D01*
X47165260Y-42822009D01*
X47165260Y-43537991D01*
X47304941Y-44240215D01*
X47578935Y-44901695D01*
X47976713Y-45497012D01*
X48482988Y-46003287D01*
X49078305Y-46401065D01*
X49739785Y-46675059D01*
X50442009Y-46814740D01*
X51157991Y-46814740D01*
X51860215Y-46675059D01*
X52521695Y-46401065D01*
X53117012Y-46003287D01*
X53623287Y-45497012D01*
X54021065Y-44901695D01*
X54295059Y-44240215D01*
X54434740Y-43537991D01*
X54434740Y-42822009D01*
X54785260Y-42822009D01*
X54785260Y-43537991D01*
X54924941Y-44240215D01*
X55198935Y-44901695D01*
X55596713Y-45497012D01*
X56102988Y-46003287D01*
X56698305Y-46401065D01*
X57359785Y-46675059D01*
X58062009Y-46814740D01*
X58777991Y-46814740D01*
X59480215Y-46675059D01*
X60141695Y-46401065D01*
X60737012Y-46003287D01*
X61243287Y-45497012D01*
X61641065Y-44901695D01*
X61915059Y-44240215D01*
X62054740Y-43537991D01*
X62054740Y-42822009D01*
X62405260Y-42822009D01*
X62405260Y-43537991D01*
X62544941Y-44240215D01*
X62818935Y-44901695D01*
X63216713Y-45497012D01*
X63722988Y-46003287D01*
X64318305Y-46401065D01*
X64979785Y-46675059D01*
X65682009Y-46814740D01*
X66397991Y-46814740D01*
X67100215Y-46675059D01*
X67761695Y-46401065D01*
X68357012Y-46003287D01*
X68863287Y-45497012D01*
X69261065Y-44901695D01*
X69535059Y-44240215D01*
X69674740Y-43537991D01*
X69674740Y-42822009D01*
X70025260Y-42822009D01*
X70025260Y-43537991D01*
X70164941Y-44240215D01*
X70438935Y-44901695D01*
X70836713Y-45497012D01*
X71342988Y-46003287D01*
X71938305Y-46401065D01*
X72599785Y-46675059D01*
X73302009Y-46814740D01*
X74017991Y-46814740D01*
X74720215Y-46675059D01*
X75381695Y-46401065D01*
X75977012Y-46003287D01*
X76483287Y-45497012D01*
X76881065Y-44901695D01*
X77155059Y-44240215D01*
X77294740Y-43537991D01*
X77294740Y-42822009D01*
X77645260Y-42822009D01*
X77645260Y-43537991D01*
X77784941Y-44240215D01*
X78058935Y-44901695D01*
X78456713Y-45497012D01*
X78962988Y-46003287D01*
X79558305Y-46401065D01*
X80219785Y-46675059D01*
X80922009Y-46814740D01*
X81637991Y-46814740D01*
X82340215Y-46675059D01*
X83001695Y-46401065D01*
X83597012Y-46003287D01*
X84103287Y-45497012D01*
X84501065Y-44901695D01*
X84775059Y-44240215D01*
X84914740Y-43537991D01*
X84914740Y-42822009D01*
X85265260Y-42822009D01*
X85265260Y-43537991D01*
X85404941Y-44240215D01*
X85678935Y-44901695D01*
X86076713Y-45497012D01*
X86582988Y-46003287D01*
X87178305Y-46401065D01*
X87839785Y-46675059D01*
X88542009Y-46814740D01*
X89257991Y-46814740D01*
X89960215Y-46675059D01*
X90621695Y-46401065D01*
X91217012Y-46003287D01*
X91723287Y-45497012D01*
X92121065Y-44901695D01*
X92395059Y-44240215D01*
X92534740Y-43537991D01*
X92534740Y-42822009D01*
X92395059Y-42119785D01*
X92121065Y-41458305D01*
X91723287Y-40862988D01*
X91217012Y-40356713D01*
X90621695Y-39958935D01*
X89960215Y-39684941D01*
X89257991Y-39545260D01*
X88542009Y-39545260D01*
X87839785Y-39684941D01*
X87178305Y-39958935D01*
X86582988Y-40356713D01*
X86076713Y-40862988D01*
X85678935Y-41458305D01*
X85404941Y-42119785D01*
X85265260Y-42822009D01*
X84914740Y-42822009D01*
X84775059Y-42119785D01*
X84501065Y-41458305D01*
X84103287Y-40862988D01*
X83597012Y-40356713D01*
X83001695Y-39958935D01*
X82340215Y-39684941D01*
X81637991Y-39545260D01*
X80922009Y-39545260D01*
X80219785Y-39684941D01*
X79558305Y-39958935D01*
X78962988Y-40356713D01*
X78456713Y-40862988D01*
X78058935Y-41458305D01*
X77784941Y-42119785D01*
X77645260Y-42822009D01*
X77294740Y-42822009D01*
X77155059Y-42119785D01*
X76881065Y-41458305D01*
X76483287Y-40862988D01*
X75977012Y-40356713D01*
X75381695Y-39958935D01*
X74720215Y-39684941D01*
X74017991Y-39545260D01*
X73302009Y-39545260D01*
X72599785Y-39684941D01*
X71938305Y-39958935D01*
X71342988Y-40356713D01*
X70836713Y-40862988D01*
X70438935Y-41458305D01*
X70164941Y-42119785D01*
X70025260Y-42822009D01*
X69674740Y-42822009D01*
X69535059Y-42119785D01*
X69261065Y-41458305D01*
X68863287Y-40862988D01*
X68357012Y-40356713D01*
X67761695Y-39958935D01*
X67100215Y-39684941D01*
X66397991Y-39545260D01*
X65682009Y-39545260D01*
X64979785Y-39684941D01*
X64318305Y-39958935D01*
X63722988Y-40356713D01*
X63216713Y-40862988D01*
X62818935Y-41458305D01*
X62544941Y-42119785D01*
X62405260Y-42822009D01*
X62054740Y-42822009D01*
X61915059Y-42119785D01*
X61641065Y-41458305D01*
X61243287Y-40862988D01*
X60737012Y-40356713D01*
X60141695Y-39958935D01*
X59480215Y-39684941D01*
X58777991Y-39545260D01*
X58062009Y-39545260D01*
X57359785Y-39684941D01*
X56698305Y-39958935D01*
X56102988Y-40356713D01*
X55596713Y-40862988D01*
X55198935Y-41458305D01*
X54924941Y-42119785D01*
X54785260Y-42822009D01*
X54434740Y-42822009D01*
X54295059Y-42119785D01*
X54021065Y-41458305D01*
X53623287Y-40862988D01*
X53117012Y-40356713D01*
X52521695Y-39958935D01*
X51860215Y-39684941D01*
X51157991Y-39545260D01*
X50442009Y-39545260D01*
X49739785Y-39684941D01*
X49078305Y-39958935D01*
X48482988Y-40356713D01*
X47976713Y-40862988D01*
X47578935Y-41458305D01*
X47304941Y-42119785D01*
X47165260Y-42822009D01*
X40030000Y-42822009D01*
X40030000Y-34005852D01*
X42835000Y-34005852D01*
X42835000Y-34574148D01*
X42945869Y-35131523D01*
X43163346Y-35656560D01*
X43479074Y-36129080D01*
X43880920Y-36530926D01*
X44353440Y-36846654D01*
X44878477Y-37064131D01*
X45435852Y-37175000D01*
X46004148Y-37175000D01*
X46561523Y-37064131D01*
X47086560Y-36846654D01*
X47559080Y-36530926D01*
X47960926Y-36129080D01*
X48276654Y-35656560D01*
X48494131Y-35131523D01*
X48605000Y-34574148D01*
X48605000Y-34005852D01*
X96175000Y-34005852D01*
X96175000Y-34574148D01*
X96285869Y-35131523D01*
X96503346Y-35656560D01*
X96819074Y-36129080D01*
X97220920Y-36530926D01*
X97693440Y-36846654D01*
X98218477Y-37064131D01*
X98775852Y-37175000D01*
X99344148Y-37175000D01*
X99901523Y-37064131D01*
X100426560Y-36846654D01*
X100899080Y-36530926D01*
X101300926Y-36129080D01*
X101616654Y-35656560D01*
X101834131Y-35131523D01*
X101945000Y-34574148D01*
X101945000Y-34005852D01*
X101834131Y-33448477D01*
X101616654Y-32923440D01*
X101300926Y-32450920D01*
X100899080Y-32049074D01*
X100426560Y-31733346D01*
X99901523Y-31515869D01*
X99344148Y-31405000D01*
X98775852Y-31405000D01*
X98218477Y-31515869D01*
X97693440Y-31733346D01*
X97220920Y-32049074D01*
X96819074Y-32450920D01*
X96503346Y-32923440D01*
X96285869Y-33448477D01*
X96175000Y-34005852D01*
X48605000Y-34005852D01*
X48494131Y-33448477D01*
X48276654Y-32923440D01*
X47960926Y-32450920D01*
X47559080Y-32049074D01*
X47086560Y-31733346D01*
X46561523Y-31515869D01*
X46004148Y-31405000D01*
X45435852Y-31405000D01*
X44878477Y-31515869D01*
X44353440Y-31733346D01*
X43880920Y-32049074D01*
X43479074Y-32450920D01*
X43163346Y-32923440D01*
X42945869Y-33448477D01*
X42835000Y-34005852D01*
X40030000Y-34005852D01*
X40030000Y-28600000D01*
X104750000Y-28600000D01*
X104750001Y-118720000D01*
M02*
