M48
; DRILL file {KiCad (5.1.2)-2} date 7/16/2019 8:26:28 PM
; FORMAT={-:-/ absolute / inch / decimal}
; #@! TF.CreationDate,2019-07-16T20:26:28-04:00
; #@! TF.GenerationSoftware,Kicad,Pcbnew,(5.1.2)-2
; #@! TF.FileFunction,Plated,1,2,PTH
FMAT,2
INCH
T1C0.0276
T2C0.0315
T3C0.0433
T4C0.0472
T5C0.0984
%
G90
G05
T1
X3.7Y-3.9
X3.7Y-3.45
X3.7Y-3.75
X3.7Y-3.0
X3.7Y-3.3
X2.1Y-3.9
X2.1Y-4.2
X3.7Y-2.55
X3.7Y-2.85
X2.1Y-2.55
X2.1Y-2.85
X3.7Y-4.2
X2.1Y-3.0
X2.1Y-3.3
X2.1Y-3.45
X2.1Y-3.75
T2
X2.1Y-1.95
X2.1Y-2.25
X2.2Y-1.95
X2.2Y-2.25
X2.3Y-1.95
X2.3Y-2.25
X2.4Y-1.95
X2.4Y-2.25
X2.5Y-1.95
X2.5Y-2.25
X2.6Y-1.95
X2.6Y-2.25
X2.7Y-1.95
X2.7Y-2.25
X2.8Y-1.95
X2.8Y-2.25
T3
X3.55Y-3.5
X3.55Y-3.6
X3.55Y-3.7
X2.3Y-3.5
X2.3Y-3.6
X2.3Y-3.7
X2.3Y-2.6
X2.3Y-2.7
X2.3Y-2.8
X3.55Y-2.6
X3.55Y-2.7
X3.55Y-2.8
X2.3Y-3.05
X2.3Y-3.15
X2.3Y-3.25
X2.3Y-3.95
X2.3Y-4.05
X2.3Y-4.15
X3.55Y-3.05
X3.55Y-3.15
X3.55Y-3.25
X3.55Y-3.95
X3.55Y-4.05
X3.55Y-4.15
T4
X2.5Y-4.0
X2.5Y-4.15
X3.3Y-3.1
X3.3Y-3.25
X3.3Y-3.55
X3.3Y-3.7
X3.3Y-2.65
X3.3Y-2.8
X2.5Y-3.1
X2.5Y-3.25
X3.3Y-4.0
X3.3Y-4.15
X2.5Y-2.65
X2.5Y-2.8
X2.5Y-3.55
X2.5Y-3.7
T5
X2.75Y-2.7
X2.75Y-4.05
X2.75Y-3.6
X2.6Y-1.7
X3.2Y-1.7
X3.5Y-1.7
X2.75Y-3.15
X3.05Y-3.15
X3.5Y-2.2
X3.05Y-3.6
X2.3Y-1.7
X2.9Y-1.7
X3.05Y-4.05
X3.05Y-2.7
X2.0Y-1.7
T0
M30
