G04 #@! TF.GenerationSoftware,KiCad,Pcbnew,(5.1.2)-2*
G04 #@! TF.CreationDate,2019-07-16T17:36:30-04:00*
G04 #@! TF.ProjectId,8 bit serial to parallel,38206269-7420-4736-9572-69616c20746f,rev?*
G04 #@! TF.SameCoordinates,Original*
G04 #@! TF.FileFunction,Legend,Top*
G04 #@! TF.FilePolarity,Positive*
%FSLAX46Y46*%
G04 Gerber Fmt 4.6, Leading zero omitted, Abs format (unit mm)*
G04 Created by KiCad (PCBNEW (5.1.2)-2) date 2019-07-16 17:36:30*
%MOMM*%
%LPD*%
G04 APERTURE LIST*
%ADD10C,0.120000*%
%ADD11C,0.150000*%
G04 APERTURE END LIST*
D10*
X52010000Y-50690000D02*
X52010000Y-52340000D01*
X72450000Y-50690000D02*
X52010000Y-50690000D01*
X72450000Y-55990000D02*
X72450000Y-50690000D01*
X52010000Y-55990000D02*
X72450000Y-55990000D01*
X52010000Y-54340000D02*
X52010000Y-55990000D01*
X52010000Y-52340000D02*
G75*
G02X52010000Y-54340000I0J-1000000D01*
G01*
X53340000Y-71450000D02*
X53340000Y-70500000D01*
X53340000Y-65710000D02*
X53340000Y-66660000D01*
X54260000Y-70500000D02*
X54260000Y-66660000D01*
X52420000Y-70500000D02*
X54260000Y-70500000D01*
X52420000Y-66660000D02*
X52420000Y-70500000D01*
X54260000Y-66660000D02*
X52420000Y-66660000D01*
X53340000Y-82880000D02*
X53340000Y-81930000D01*
X53340000Y-77140000D02*
X53340000Y-78090000D01*
X54260000Y-81930000D02*
X54260000Y-78090000D01*
X52420000Y-81930000D02*
X54260000Y-81930000D01*
X52420000Y-78090000D02*
X52420000Y-81930000D01*
X54260000Y-78090000D02*
X52420000Y-78090000D01*
X53340000Y-94310000D02*
X53340000Y-93360000D01*
X53340000Y-88570000D02*
X53340000Y-89520000D01*
X54260000Y-93360000D02*
X54260000Y-89520000D01*
X52420000Y-93360000D02*
X54260000Y-93360000D01*
X52420000Y-89520000D02*
X52420000Y-93360000D01*
X54260000Y-89520000D02*
X52420000Y-89520000D01*
X53340000Y-105740000D02*
X53340000Y-104790000D01*
X53340000Y-100000000D02*
X53340000Y-100950000D01*
X54260000Y-104790000D02*
X54260000Y-100950000D01*
X52420000Y-104790000D02*
X54260000Y-104790000D01*
X52420000Y-100950000D02*
X52420000Y-104790000D01*
X54260000Y-100950000D02*
X52420000Y-100950000D01*
X93980000Y-105740000D02*
X93980000Y-104790000D01*
X93980000Y-100000000D02*
X93980000Y-100950000D01*
X94900000Y-104790000D02*
X94900000Y-100950000D01*
X93060000Y-104790000D02*
X94900000Y-104790000D01*
X93060000Y-100950000D02*
X93060000Y-104790000D01*
X94900000Y-100950000D02*
X93060000Y-100950000D01*
X93980000Y-94310000D02*
X93980000Y-93360000D01*
X93980000Y-88570000D02*
X93980000Y-89520000D01*
X94900000Y-93360000D02*
X94900000Y-89520000D01*
X93060000Y-93360000D02*
X94900000Y-93360000D01*
X93060000Y-89520000D02*
X93060000Y-93360000D01*
X94900000Y-89520000D02*
X93060000Y-89520000D01*
X93980000Y-82880000D02*
X93980000Y-81930000D01*
X93980000Y-77140000D02*
X93980000Y-78090000D01*
X94900000Y-81930000D02*
X94900000Y-78090000D01*
X93060000Y-81930000D02*
X94900000Y-81930000D01*
X93060000Y-78090000D02*
X93060000Y-81930000D01*
X94900000Y-78090000D02*
X93060000Y-78090000D01*
X93980000Y-71450000D02*
X93980000Y-70500000D01*
X93980000Y-65710000D02*
X93980000Y-66660000D01*
X94900000Y-70500000D02*
X94900000Y-66660000D01*
X93060000Y-70500000D02*
X94900000Y-70500000D01*
X93060000Y-66660000D02*
X93060000Y-70500000D01*
X94900000Y-66660000D02*
X93060000Y-66660000D01*
X55150000Y-66729000D02*
X56660000Y-66729000D01*
X55150000Y-70430000D02*
X56660000Y-70430000D01*
X56660000Y-73700000D02*
X56660000Y-63460000D01*
X55150000Y-63460000D02*
X59791000Y-63460000D01*
X55150000Y-73700000D02*
X59791000Y-73700000D01*
X59791000Y-73700000D02*
X59791000Y-63460000D01*
X55150000Y-73700000D02*
X55150000Y-63460000D01*
X55150000Y-78159000D02*
X56660000Y-78159000D01*
X55150000Y-81860000D02*
X56660000Y-81860000D01*
X56660000Y-85130000D02*
X56660000Y-74890000D01*
X55150000Y-74890000D02*
X59791000Y-74890000D01*
X55150000Y-85130000D02*
X59791000Y-85130000D01*
X59791000Y-85130000D02*
X59791000Y-74890000D01*
X55150000Y-85130000D02*
X55150000Y-74890000D01*
X55150000Y-89589000D02*
X56660000Y-89589000D01*
X55150000Y-93290000D02*
X56660000Y-93290000D01*
X56660000Y-96560000D02*
X56660000Y-86320000D01*
X55150000Y-86320000D02*
X59791000Y-86320000D01*
X55150000Y-96560000D02*
X59791000Y-96560000D01*
X59791000Y-96560000D02*
X59791000Y-86320000D01*
X55150000Y-96560000D02*
X55150000Y-86320000D01*
X55150000Y-101019000D02*
X56660000Y-101019000D01*
X55150000Y-104720000D02*
X56660000Y-104720000D01*
X56660000Y-107990000D02*
X56660000Y-97750000D01*
X55150000Y-97750000D02*
X59791000Y-97750000D01*
X55150000Y-107990000D02*
X59791000Y-107990000D01*
X59791000Y-107990000D02*
X59791000Y-97750000D01*
X55150000Y-107990000D02*
X55150000Y-97750000D01*
X86900000Y-101019000D02*
X88410000Y-101019000D01*
X86900000Y-104720000D02*
X88410000Y-104720000D01*
X88410000Y-107990000D02*
X88410000Y-97750000D01*
X86900000Y-97750000D02*
X91541000Y-97750000D01*
X86900000Y-107990000D02*
X91541000Y-107990000D01*
X91541000Y-107990000D02*
X91541000Y-97750000D01*
X86900000Y-107990000D02*
X86900000Y-97750000D01*
X86900000Y-89589000D02*
X88410000Y-89589000D01*
X86900000Y-93290000D02*
X88410000Y-93290000D01*
X88410000Y-96560000D02*
X88410000Y-86320000D01*
X86900000Y-86320000D02*
X91541000Y-86320000D01*
X86900000Y-96560000D02*
X91541000Y-96560000D01*
X91541000Y-96560000D02*
X91541000Y-86320000D01*
X86900000Y-96560000D02*
X86900000Y-86320000D01*
X86900000Y-78159000D02*
X88410000Y-78159000D01*
X86900000Y-81860000D02*
X88410000Y-81860000D01*
X88410000Y-85130000D02*
X88410000Y-74890000D01*
X86900000Y-74890000D02*
X91541000Y-74890000D01*
X86900000Y-85130000D02*
X91541000Y-85130000D01*
X91541000Y-85130000D02*
X91541000Y-74890000D01*
X86900000Y-85130000D02*
X86900000Y-74890000D01*
X86900000Y-66729000D02*
X88410000Y-66729000D01*
X86900000Y-70430000D02*
X88410000Y-70430000D01*
X88410000Y-73700000D02*
X88410000Y-63460000D01*
X86900000Y-63460000D02*
X91541000Y-63460000D01*
X86900000Y-73700000D02*
X91541000Y-73700000D01*
X91541000Y-73700000D02*
X91541000Y-63460000D01*
X86900000Y-73700000D02*
X86900000Y-63460000D01*
X63500000Y-69230000D02*
X63500000Y-69620000D01*
X65420000Y-67310000D02*
G75*
G03X65420000Y-67310000I-1920000J0D01*
G01*
X63500000Y-80660000D02*
X63500000Y-81050000D01*
X65420000Y-78740000D02*
G75*
G03X65420000Y-78740000I-1920000J0D01*
G01*
X63500000Y-92090000D02*
X63500000Y-92480000D01*
X65420000Y-90170000D02*
G75*
G03X65420000Y-90170000I-1920000J0D01*
G01*
X63500000Y-103520000D02*
X63500000Y-103910000D01*
X65420000Y-101600000D02*
G75*
G03X65420000Y-101600000I-1920000J0D01*
G01*
X83820000Y-103520000D02*
X83820000Y-103910000D01*
X85740000Y-101600000D02*
G75*
G03X85740000Y-101600000I-1920000J0D01*
G01*
X83820000Y-92090000D02*
X83820000Y-92480000D01*
X85740000Y-90170000D02*
G75*
G03X85740000Y-90170000I-1920000J0D01*
G01*
X83820000Y-80660000D02*
X83820000Y-81050000D01*
X85740000Y-78740000D02*
G75*
G03X85740000Y-78740000I-1920000J0D01*
G01*
X83820000Y-69230000D02*
X83820000Y-69620000D01*
X85740000Y-67310000D02*
G75*
G03X85740000Y-67310000I-1920000J0D01*
G01*
D11*
X50462380Y-54101904D02*
X51271904Y-54101904D01*
X51367142Y-54054285D01*
X51414761Y-54006666D01*
X51462380Y-53911428D01*
X51462380Y-53720952D01*
X51414761Y-53625714D01*
X51367142Y-53578095D01*
X51271904Y-53530476D01*
X50462380Y-53530476D01*
X51462380Y-52530476D02*
X51462380Y-53101904D01*
X51462380Y-52816190D02*
X50462380Y-52816190D01*
X50605238Y-52911428D01*
X50700476Y-53006666D01*
X50748095Y-53101904D01*
X88328571Y-50252380D02*
X88519047Y-50252380D01*
X88614285Y-50300000D01*
X88709523Y-50395238D01*
X88757142Y-50585714D01*
X88757142Y-50919047D01*
X88709523Y-51109523D01*
X88614285Y-51204761D01*
X88519047Y-51252380D01*
X88328571Y-51252380D01*
X88233333Y-51204761D01*
X88138095Y-51109523D01*
X88090476Y-50919047D01*
X88090476Y-50585714D01*
X88138095Y-50395238D01*
X88233333Y-50300000D01*
X88328571Y-50252380D01*
X89709523Y-51252380D02*
X89138095Y-51252380D01*
X89423809Y-51252380D02*
X89423809Y-50252380D01*
X89328571Y-50395238D01*
X89233333Y-50490476D01*
X89138095Y-50538095D01*
X53792380Y-68746666D02*
X53316190Y-69080000D01*
X53792380Y-69318095D02*
X52792380Y-69318095D01*
X52792380Y-68937142D01*
X52840000Y-68841904D01*
X52887619Y-68794285D01*
X52982857Y-68746666D01*
X53125714Y-68746666D01*
X53220952Y-68794285D01*
X53268571Y-68841904D01*
X53316190Y-68937142D01*
X53316190Y-69318095D01*
X53220952Y-68175238D02*
X53173333Y-68270476D01*
X53125714Y-68318095D01*
X53030476Y-68365714D01*
X52982857Y-68365714D01*
X52887619Y-68318095D01*
X52840000Y-68270476D01*
X52792380Y-68175238D01*
X52792380Y-67984761D01*
X52840000Y-67889523D01*
X52887619Y-67841904D01*
X52982857Y-67794285D01*
X53030476Y-67794285D01*
X53125714Y-67841904D01*
X53173333Y-67889523D01*
X53220952Y-67984761D01*
X53220952Y-68175238D01*
X53268571Y-68270476D01*
X53316190Y-68318095D01*
X53411428Y-68365714D01*
X53601904Y-68365714D01*
X53697142Y-68318095D01*
X53744761Y-68270476D01*
X53792380Y-68175238D01*
X53792380Y-67984761D01*
X53744761Y-67889523D01*
X53697142Y-67841904D01*
X53601904Y-67794285D01*
X53411428Y-67794285D01*
X53316190Y-67841904D01*
X53268571Y-67889523D01*
X53220952Y-67984761D01*
X53792380Y-80176666D02*
X53316190Y-80510000D01*
X53792380Y-80748095D02*
X52792380Y-80748095D01*
X52792380Y-80367142D01*
X52840000Y-80271904D01*
X52887619Y-80224285D01*
X52982857Y-80176666D01*
X53125714Y-80176666D01*
X53220952Y-80224285D01*
X53268571Y-80271904D01*
X53316190Y-80367142D01*
X53316190Y-80748095D01*
X52792380Y-79843333D02*
X52792380Y-79176666D01*
X53792380Y-79605238D01*
X53792380Y-91606666D02*
X53316190Y-91940000D01*
X53792380Y-92178095D02*
X52792380Y-92178095D01*
X52792380Y-91797142D01*
X52840000Y-91701904D01*
X52887619Y-91654285D01*
X52982857Y-91606666D01*
X53125714Y-91606666D01*
X53220952Y-91654285D01*
X53268571Y-91701904D01*
X53316190Y-91797142D01*
X53316190Y-92178095D01*
X52792380Y-90749523D02*
X52792380Y-90940000D01*
X52840000Y-91035238D01*
X52887619Y-91082857D01*
X53030476Y-91178095D01*
X53220952Y-91225714D01*
X53601904Y-91225714D01*
X53697142Y-91178095D01*
X53744761Y-91130476D01*
X53792380Y-91035238D01*
X53792380Y-90844761D01*
X53744761Y-90749523D01*
X53697142Y-90701904D01*
X53601904Y-90654285D01*
X53363809Y-90654285D01*
X53268571Y-90701904D01*
X53220952Y-90749523D01*
X53173333Y-90844761D01*
X53173333Y-91035238D01*
X53220952Y-91130476D01*
X53268571Y-91178095D01*
X53363809Y-91225714D01*
X53792380Y-103036666D02*
X53316190Y-103370000D01*
X53792380Y-103608095D02*
X52792380Y-103608095D01*
X52792380Y-103227142D01*
X52840000Y-103131904D01*
X52887619Y-103084285D01*
X52982857Y-103036666D01*
X53125714Y-103036666D01*
X53220952Y-103084285D01*
X53268571Y-103131904D01*
X53316190Y-103227142D01*
X53316190Y-103608095D01*
X52792380Y-102131904D02*
X52792380Y-102608095D01*
X53268571Y-102655714D01*
X53220952Y-102608095D01*
X53173333Y-102512857D01*
X53173333Y-102274761D01*
X53220952Y-102179523D01*
X53268571Y-102131904D01*
X53363809Y-102084285D01*
X53601904Y-102084285D01*
X53697142Y-102131904D01*
X53744761Y-102179523D01*
X53792380Y-102274761D01*
X53792380Y-102512857D01*
X53744761Y-102608095D01*
X53697142Y-102655714D01*
X96352380Y-103036666D02*
X95876190Y-103370000D01*
X96352380Y-103608095D02*
X95352380Y-103608095D01*
X95352380Y-103227142D01*
X95400000Y-103131904D01*
X95447619Y-103084285D01*
X95542857Y-103036666D01*
X95685714Y-103036666D01*
X95780952Y-103084285D01*
X95828571Y-103131904D01*
X95876190Y-103227142D01*
X95876190Y-103608095D01*
X95685714Y-102179523D02*
X96352380Y-102179523D01*
X95304761Y-102417619D02*
X96019047Y-102655714D01*
X96019047Y-102036666D01*
X96352380Y-91606666D02*
X95876190Y-91940000D01*
X96352380Y-92178095D02*
X95352380Y-92178095D01*
X95352380Y-91797142D01*
X95400000Y-91701904D01*
X95447619Y-91654285D01*
X95542857Y-91606666D01*
X95685714Y-91606666D01*
X95780952Y-91654285D01*
X95828571Y-91701904D01*
X95876190Y-91797142D01*
X95876190Y-92178095D01*
X95352380Y-91273333D02*
X95352380Y-90654285D01*
X95733333Y-90987619D01*
X95733333Y-90844761D01*
X95780952Y-90749523D01*
X95828571Y-90701904D01*
X95923809Y-90654285D01*
X96161904Y-90654285D01*
X96257142Y-90701904D01*
X96304761Y-90749523D01*
X96352380Y-90844761D01*
X96352380Y-91130476D01*
X96304761Y-91225714D01*
X96257142Y-91273333D01*
X96352380Y-80176666D02*
X95876190Y-80510000D01*
X96352380Y-80748095D02*
X95352380Y-80748095D01*
X95352380Y-80367142D01*
X95400000Y-80271904D01*
X95447619Y-80224285D01*
X95542857Y-80176666D01*
X95685714Y-80176666D01*
X95780952Y-80224285D01*
X95828571Y-80271904D01*
X95876190Y-80367142D01*
X95876190Y-80748095D01*
X95447619Y-79795714D02*
X95400000Y-79748095D01*
X95352380Y-79652857D01*
X95352380Y-79414761D01*
X95400000Y-79319523D01*
X95447619Y-79271904D01*
X95542857Y-79224285D01*
X95638095Y-79224285D01*
X95780952Y-79271904D01*
X96352380Y-79843333D01*
X96352380Y-79224285D01*
X96352380Y-68746666D02*
X95876190Y-69080000D01*
X96352380Y-69318095D02*
X95352380Y-69318095D01*
X95352380Y-68937142D01*
X95400000Y-68841904D01*
X95447619Y-68794285D01*
X95542857Y-68746666D01*
X95685714Y-68746666D01*
X95780952Y-68794285D01*
X95828571Y-68841904D01*
X95876190Y-68937142D01*
X95876190Y-69318095D01*
X96352380Y-67794285D02*
X96352380Y-68365714D01*
X96352380Y-68080000D02*
X95352380Y-68080000D01*
X95495238Y-68175238D01*
X95590476Y-68270476D01*
X95638095Y-68365714D01*
X56427619Y-68675238D02*
X56380000Y-68770476D01*
X56284761Y-68865714D01*
X56141904Y-69008571D01*
X56094285Y-69103809D01*
X56094285Y-69199047D01*
X56332380Y-69151428D02*
X56284761Y-69246666D01*
X56189523Y-69341904D01*
X55999047Y-69389523D01*
X55665714Y-69389523D01*
X55475238Y-69341904D01*
X55380000Y-69246666D01*
X55332380Y-69151428D01*
X55332380Y-68960952D01*
X55380000Y-68865714D01*
X55475238Y-68770476D01*
X55665714Y-68722857D01*
X55999047Y-68722857D01*
X56189523Y-68770476D01*
X56284761Y-68865714D01*
X56332380Y-68960952D01*
X56332380Y-69151428D01*
X55760952Y-68151428D02*
X55713333Y-68246666D01*
X55665714Y-68294285D01*
X55570476Y-68341904D01*
X55522857Y-68341904D01*
X55427619Y-68294285D01*
X55380000Y-68246666D01*
X55332380Y-68151428D01*
X55332380Y-67960952D01*
X55380000Y-67865714D01*
X55427619Y-67818095D01*
X55522857Y-67770476D01*
X55570476Y-67770476D01*
X55665714Y-67818095D01*
X55713333Y-67865714D01*
X55760952Y-67960952D01*
X55760952Y-68151428D01*
X55808571Y-68246666D01*
X55856190Y-68294285D01*
X55951428Y-68341904D01*
X56141904Y-68341904D01*
X56237142Y-68294285D01*
X56284761Y-68246666D01*
X56332380Y-68151428D01*
X56332380Y-67960952D01*
X56284761Y-67865714D01*
X56237142Y-67818095D01*
X56141904Y-67770476D01*
X55951428Y-67770476D01*
X55856190Y-67818095D01*
X55808571Y-67865714D01*
X55760952Y-67960952D01*
X56427619Y-80105238D02*
X56380000Y-80200476D01*
X56284761Y-80295714D01*
X56141904Y-80438571D01*
X56094285Y-80533809D01*
X56094285Y-80629047D01*
X56332380Y-80581428D02*
X56284761Y-80676666D01*
X56189523Y-80771904D01*
X55999047Y-80819523D01*
X55665714Y-80819523D01*
X55475238Y-80771904D01*
X55380000Y-80676666D01*
X55332380Y-80581428D01*
X55332380Y-80390952D01*
X55380000Y-80295714D01*
X55475238Y-80200476D01*
X55665714Y-80152857D01*
X55999047Y-80152857D01*
X56189523Y-80200476D01*
X56284761Y-80295714D01*
X56332380Y-80390952D01*
X56332380Y-80581428D01*
X55332380Y-79819523D02*
X55332380Y-79152857D01*
X56332380Y-79581428D01*
X56427619Y-91535238D02*
X56380000Y-91630476D01*
X56284761Y-91725714D01*
X56141904Y-91868571D01*
X56094285Y-91963809D01*
X56094285Y-92059047D01*
X56332380Y-92011428D02*
X56284761Y-92106666D01*
X56189523Y-92201904D01*
X55999047Y-92249523D01*
X55665714Y-92249523D01*
X55475238Y-92201904D01*
X55380000Y-92106666D01*
X55332380Y-92011428D01*
X55332380Y-91820952D01*
X55380000Y-91725714D01*
X55475238Y-91630476D01*
X55665714Y-91582857D01*
X55999047Y-91582857D01*
X56189523Y-91630476D01*
X56284761Y-91725714D01*
X56332380Y-91820952D01*
X56332380Y-92011428D01*
X55332380Y-90725714D02*
X55332380Y-90916190D01*
X55380000Y-91011428D01*
X55427619Y-91059047D01*
X55570476Y-91154285D01*
X55760952Y-91201904D01*
X56141904Y-91201904D01*
X56237142Y-91154285D01*
X56284761Y-91106666D01*
X56332380Y-91011428D01*
X56332380Y-90820952D01*
X56284761Y-90725714D01*
X56237142Y-90678095D01*
X56141904Y-90630476D01*
X55903809Y-90630476D01*
X55808571Y-90678095D01*
X55760952Y-90725714D01*
X55713333Y-90820952D01*
X55713333Y-91011428D01*
X55760952Y-91106666D01*
X55808571Y-91154285D01*
X55903809Y-91201904D01*
X56427619Y-102965238D02*
X56380000Y-103060476D01*
X56284761Y-103155714D01*
X56141904Y-103298571D01*
X56094285Y-103393809D01*
X56094285Y-103489047D01*
X56332380Y-103441428D02*
X56284761Y-103536666D01*
X56189523Y-103631904D01*
X55999047Y-103679523D01*
X55665714Y-103679523D01*
X55475238Y-103631904D01*
X55380000Y-103536666D01*
X55332380Y-103441428D01*
X55332380Y-103250952D01*
X55380000Y-103155714D01*
X55475238Y-103060476D01*
X55665714Y-103012857D01*
X55999047Y-103012857D01*
X56189523Y-103060476D01*
X56284761Y-103155714D01*
X56332380Y-103250952D01*
X56332380Y-103441428D01*
X55332380Y-102108095D02*
X55332380Y-102584285D01*
X55808571Y-102631904D01*
X55760952Y-102584285D01*
X55713333Y-102489047D01*
X55713333Y-102250952D01*
X55760952Y-102155714D01*
X55808571Y-102108095D01*
X55903809Y-102060476D01*
X56141904Y-102060476D01*
X56237142Y-102108095D01*
X56284761Y-102155714D01*
X56332380Y-102250952D01*
X56332380Y-102489047D01*
X56284761Y-102584285D01*
X56237142Y-102631904D01*
X88177619Y-99155238D02*
X88130000Y-99250476D01*
X88034761Y-99345714D01*
X87891904Y-99488571D01*
X87844285Y-99583809D01*
X87844285Y-99679047D01*
X88082380Y-99631428D02*
X88034761Y-99726666D01*
X87939523Y-99821904D01*
X87749047Y-99869523D01*
X87415714Y-99869523D01*
X87225238Y-99821904D01*
X87130000Y-99726666D01*
X87082380Y-99631428D01*
X87082380Y-99440952D01*
X87130000Y-99345714D01*
X87225238Y-99250476D01*
X87415714Y-99202857D01*
X87749047Y-99202857D01*
X87939523Y-99250476D01*
X88034761Y-99345714D01*
X88082380Y-99440952D01*
X88082380Y-99631428D01*
X87415714Y-98345714D02*
X88082380Y-98345714D01*
X87034761Y-98583809D02*
X87749047Y-98821904D01*
X87749047Y-98202857D01*
X88177619Y-87725238D02*
X88130000Y-87820476D01*
X88034761Y-87915714D01*
X87891904Y-88058571D01*
X87844285Y-88153809D01*
X87844285Y-88249047D01*
X88082380Y-88201428D02*
X88034761Y-88296666D01*
X87939523Y-88391904D01*
X87749047Y-88439523D01*
X87415714Y-88439523D01*
X87225238Y-88391904D01*
X87130000Y-88296666D01*
X87082380Y-88201428D01*
X87082380Y-88010952D01*
X87130000Y-87915714D01*
X87225238Y-87820476D01*
X87415714Y-87772857D01*
X87749047Y-87772857D01*
X87939523Y-87820476D01*
X88034761Y-87915714D01*
X88082380Y-88010952D01*
X88082380Y-88201428D01*
X87082380Y-87439523D02*
X87082380Y-86820476D01*
X87463333Y-87153809D01*
X87463333Y-87010952D01*
X87510952Y-86915714D01*
X87558571Y-86868095D01*
X87653809Y-86820476D01*
X87891904Y-86820476D01*
X87987142Y-86868095D01*
X88034761Y-86915714D01*
X88082380Y-87010952D01*
X88082380Y-87296666D01*
X88034761Y-87391904D01*
X87987142Y-87439523D01*
X88177619Y-76295238D02*
X88130000Y-76390476D01*
X88034761Y-76485714D01*
X87891904Y-76628571D01*
X87844285Y-76723809D01*
X87844285Y-76819047D01*
X88082380Y-76771428D02*
X88034761Y-76866666D01*
X87939523Y-76961904D01*
X87749047Y-77009523D01*
X87415714Y-77009523D01*
X87225238Y-76961904D01*
X87130000Y-76866666D01*
X87082380Y-76771428D01*
X87082380Y-76580952D01*
X87130000Y-76485714D01*
X87225238Y-76390476D01*
X87415714Y-76342857D01*
X87749047Y-76342857D01*
X87939523Y-76390476D01*
X88034761Y-76485714D01*
X88082380Y-76580952D01*
X88082380Y-76771428D01*
X87177619Y-75961904D02*
X87130000Y-75914285D01*
X87082380Y-75819047D01*
X87082380Y-75580952D01*
X87130000Y-75485714D01*
X87177619Y-75438095D01*
X87272857Y-75390476D01*
X87368095Y-75390476D01*
X87510952Y-75438095D01*
X88082380Y-76009523D01*
X88082380Y-75390476D01*
X88177619Y-64865238D02*
X88130000Y-64960476D01*
X88034761Y-65055714D01*
X87891904Y-65198571D01*
X87844285Y-65293809D01*
X87844285Y-65389047D01*
X88082380Y-65341428D02*
X88034761Y-65436666D01*
X87939523Y-65531904D01*
X87749047Y-65579523D01*
X87415714Y-65579523D01*
X87225238Y-65531904D01*
X87130000Y-65436666D01*
X87082380Y-65341428D01*
X87082380Y-65150952D01*
X87130000Y-65055714D01*
X87225238Y-64960476D01*
X87415714Y-64912857D01*
X87749047Y-64912857D01*
X87939523Y-64960476D01*
X88034761Y-65055714D01*
X88082380Y-65150952D01*
X88082380Y-65341428D01*
X88082380Y-63960476D02*
X88082380Y-64531904D01*
X88082380Y-64246190D02*
X87082380Y-64246190D01*
X87225238Y-64341428D01*
X87320476Y-64436666D01*
X87368095Y-64531904D01*
X69040476Y-62952380D02*
X69373809Y-63952380D01*
X69707142Y-62952380D01*
X70183333Y-63380952D02*
X70088095Y-63333333D01*
X70040476Y-63285714D01*
X69992857Y-63190476D01*
X69992857Y-63142857D01*
X70040476Y-63047619D01*
X70088095Y-63000000D01*
X70183333Y-62952380D01*
X70373809Y-62952380D01*
X70469047Y-63000000D01*
X70516666Y-63047619D01*
X70564285Y-63142857D01*
X70564285Y-63190476D01*
X70516666Y-63285714D01*
X70469047Y-63333333D01*
X70373809Y-63380952D01*
X70183333Y-63380952D01*
X70088095Y-63428571D01*
X70040476Y-63476190D01*
X69992857Y-63571428D01*
X69992857Y-63761904D01*
X70040476Y-63857142D01*
X70088095Y-63904761D01*
X70183333Y-63952380D01*
X70373809Y-63952380D01*
X70469047Y-63904761D01*
X70516666Y-63857142D01*
X70564285Y-63761904D01*
X70564285Y-63571428D01*
X70516666Y-63476190D01*
X70469047Y-63428571D01*
X70373809Y-63380952D01*
X69040476Y-74382380D02*
X69373809Y-75382380D01*
X69707142Y-74382380D01*
X69945238Y-74382380D02*
X70611904Y-74382380D01*
X70183333Y-75382380D01*
X69040476Y-85812380D02*
X69373809Y-86812380D01*
X69707142Y-85812380D01*
X70469047Y-85812380D02*
X70278571Y-85812380D01*
X70183333Y-85860000D01*
X70135714Y-85907619D01*
X70040476Y-86050476D01*
X69992857Y-86240952D01*
X69992857Y-86621904D01*
X70040476Y-86717142D01*
X70088095Y-86764761D01*
X70183333Y-86812380D01*
X70373809Y-86812380D01*
X70469047Y-86764761D01*
X70516666Y-86717142D01*
X70564285Y-86621904D01*
X70564285Y-86383809D01*
X70516666Y-86288571D01*
X70469047Y-86240952D01*
X70373809Y-86193333D01*
X70183333Y-86193333D01*
X70088095Y-86240952D01*
X70040476Y-86288571D01*
X69992857Y-86383809D01*
X69040476Y-97242380D02*
X69373809Y-98242380D01*
X69707142Y-97242380D01*
X70516666Y-97242380D02*
X70040476Y-97242380D01*
X69992857Y-97718571D01*
X70040476Y-97670952D01*
X70135714Y-97623333D01*
X70373809Y-97623333D01*
X70469047Y-97670952D01*
X70516666Y-97718571D01*
X70564285Y-97813809D01*
X70564285Y-98051904D01*
X70516666Y-98147142D01*
X70469047Y-98194761D01*
X70373809Y-98242380D01*
X70135714Y-98242380D01*
X70040476Y-98194761D01*
X69992857Y-98147142D01*
X76660476Y-97242380D02*
X76993809Y-98242380D01*
X77327142Y-97242380D01*
X78089047Y-97575714D02*
X78089047Y-98242380D01*
X77850952Y-97194761D02*
X77612857Y-97909047D01*
X78231904Y-97909047D01*
X76660476Y-85812380D02*
X76993809Y-86812380D01*
X77327142Y-85812380D01*
X77565238Y-85812380D02*
X78184285Y-85812380D01*
X77850952Y-86193333D01*
X77993809Y-86193333D01*
X78089047Y-86240952D01*
X78136666Y-86288571D01*
X78184285Y-86383809D01*
X78184285Y-86621904D01*
X78136666Y-86717142D01*
X78089047Y-86764761D01*
X77993809Y-86812380D01*
X77708095Y-86812380D01*
X77612857Y-86764761D01*
X77565238Y-86717142D01*
X76660476Y-74382380D02*
X76993809Y-75382380D01*
X77327142Y-74382380D01*
X77612857Y-74477619D02*
X77660476Y-74430000D01*
X77755714Y-74382380D01*
X77993809Y-74382380D01*
X78089047Y-74430000D01*
X78136666Y-74477619D01*
X78184285Y-74572857D01*
X78184285Y-74668095D01*
X78136666Y-74810952D01*
X77565238Y-75382380D01*
X78184285Y-75382380D01*
X76660476Y-62952380D02*
X76993809Y-63952380D01*
X77327142Y-62952380D01*
X78184285Y-63952380D02*
X77612857Y-63952380D01*
X77898571Y-63952380D02*
X77898571Y-62952380D01*
X77803333Y-63095238D01*
X77708095Y-63190476D01*
X77612857Y-63238095D01*
X50323809Y-38552380D02*
X50323809Y-37552380D01*
X51323809Y-38552380D02*
X50752380Y-38552380D01*
X51038095Y-38552380D02*
X51038095Y-37552380D01*
X50942857Y-37695238D01*
X50847619Y-37790476D01*
X50752380Y-37838095D01*
X57943809Y-38552380D02*
X57943809Y-37552380D01*
X58372380Y-37647619D02*
X58420000Y-37600000D01*
X58515238Y-37552380D01*
X58753333Y-37552380D01*
X58848571Y-37600000D01*
X58896190Y-37647619D01*
X58943809Y-37742857D01*
X58943809Y-37838095D01*
X58896190Y-37980952D01*
X58324761Y-38552380D01*
X58943809Y-38552380D01*
X73183809Y-38552380D02*
X73183809Y-37552380D01*
X74088571Y-37885714D02*
X74088571Y-38552380D01*
X73850476Y-37504761D02*
X73612380Y-38219047D01*
X74231428Y-38219047D01*
X80803809Y-38552380D02*
X80803809Y-37552380D01*
X81756190Y-37552380D02*
X81280000Y-37552380D01*
X81232380Y-38028571D01*
X81280000Y-37980952D01*
X81375238Y-37933333D01*
X81613333Y-37933333D01*
X81708571Y-37980952D01*
X81756190Y-38028571D01*
X81803809Y-38123809D01*
X81803809Y-38361904D01*
X81756190Y-38457142D01*
X81708571Y-38504761D01*
X81613333Y-38552380D01*
X81375238Y-38552380D01*
X81280000Y-38504761D01*
X81232380Y-38457142D01*
X65563809Y-38552380D02*
X65563809Y-37552380D01*
X65944761Y-37552380D02*
X66563809Y-37552380D01*
X66230476Y-37933333D01*
X66373333Y-37933333D01*
X66468571Y-37980952D01*
X66516190Y-38028571D01*
X66563809Y-38123809D01*
X66563809Y-38361904D01*
X66516190Y-38457142D01*
X66468571Y-38504761D01*
X66373333Y-38552380D01*
X66087619Y-38552380D01*
X65992380Y-38504761D01*
X65944761Y-38457142D01*
X88328571Y-37552380D02*
X88519047Y-37552380D01*
X88614285Y-37600000D01*
X88709523Y-37695238D01*
X88757142Y-37885714D01*
X88757142Y-38219047D01*
X88709523Y-38409523D01*
X88614285Y-38504761D01*
X88519047Y-38552380D01*
X88328571Y-38552380D01*
X88233333Y-38504761D01*
X88138095Y-38409523D01*
X88090476Y-38219047D01*
X88090476Y-37885714D01*
X88138095Y-37695238D01*
X88233333Y-37600000D01*
X88328571Y-37552380D01*
X89138095Y-37647619D02*
X89185714Y-37600000D01*
X89280952Y-37552380D01*
X89519047Y-37552380D01*
X89614285Y-37600000D01*
X89661904Y-37647619D01*
X89709523Y-37742857D01*
X89709523Y-37838095D01*
X89661904Y-37980952D01*
X89090476Y-38552380D01*
X89709523Y-38552380D01*
X61412380Y-70588095D02*
X60412380Y-70588095D01*
X60412380Y-70350000D01*
X60460000Y-70207142D01*
X60555238Y-70111904D01*
X60650476Y-70064285D01*
X60840952Y-70016666D01*
X60983809Y-70016666D01*
X61174285Y-70064285D01*
X61269523Y-70111904D01*
X61364761Y-70207142D01*
X61412380Y-70350000D01*
X61412380Y-70588095D01*
X60840952Y-69445238D02*
X60793333Y-69540476D01*
X60745714Y-69588095D01*
X60650476Y-69635714D01*
X60602857Y-69635714D01*
X60507619Y-69588095D01*
X60460000Y-69540476D01*
X60412380Y-69445238D01*
X60412380Y-69254761D01*
X60460000Y-69159523D01*
X60507619Y-69111904D01*
X60602857Y-69064285D01*
X60650476Y-69064285D01*
X60745714Y-69111904D01*
X60793333Y-69159523D01*
X60840952Y-69254761D01*
X60840952Y-69445238D01*
X60888571Y-69540476D01*
X60936190Y-69588095D01*
X61031428Y-69635714D01*
X61221904Y-69635714D01*
X61317142Y-69588095D01*
X61364761Y-69540476D01*
X61412380Y-69445238D01*
X61412380Y-69254761D01*
X61364761Y-69159523D01*
X61317142Y-69111904D01*
X61221904Y-69064285D01*
X61031428Y-69064285D01*
X60936190Y-69111904D01*
X60888571Y-69159523D01*
X60840952Y-69254761D01*
X62466666Y-69458095D02*
X62466666Y-68981904D01*
X62752380Y-69553333D02*
X61752380Y-69220000D01*
X62752380Y-68886666D01*
X61412380Y-81383095D02*
X60412380Y-81383095D01*
X60412380Y-81145000D01*
X60460000Y-81002142D01*
X60555238Y-80906904D01*
X60650476Y-80859285D01*
X60840952Y-80811666D01*
X60983809Y-80811666D01*
X61174285Y-80859285D01*
X61269523Y-80906904D01*
X61364761Y-81002142D01*
X61412380Y-81145000D01*
X61412380Y-81383095D01*
X60412380Y-80478333D02*
X60412380Y-79811666D01*
X61412380Y-80240238D01*
X62466666Y-80888095D02*
X62466666Y-80411904D01*
X62752380Y-80983333D02*
X61752380Y-80650000D01*
X62752380Y-80316666D01*
X61412380Y-92813095D02*
X60412380Y-92813095D01*
X60412380Y-92575000D01*
X60460000Y-92432142D01*
X60555238Y-92336904D01*
X60650476Y-92289285D01*
X60840952Y-92241666D01*
X60983809Y-92241666D01*
X61174285Y-92289285D01*
X61269523Y-92336904D01*
X61364761Y-92432142D01*
X61412380Y-92575000D01*
X61412380Y-92813095D01*
X60412380Y-91384523D02*
X60412380Y-91575000D01*
X60460000Y-91670238D01*
X60507619Y-91717857D01*
X60650476Y-91813095D01*
X60840952Y-91860714D01*
X61221904Y-91860714D01*
X61317142Y-91813095D01*
X61364761Y-91765476D01*
X61412380Y-91670238D01*
X61412380Y-91479761D01*
X61364761Y-91384523D01*
X61317142Y-91336904D01*
X61221904Y-91289285D01*
X60983809Y-91289285D01*
X60888571Y-91336904D01*
X60840952Y-91384523D01*
X60793333Y-91479761D01*
X60793333Y-91670238D01*
X60840952Y-91765476D01*
X60888571Y-91813095D01*
X60983809Y-91860714D01*
X62466666Y-92318095D02*
X62466666Y-91841904D01*
X62752380Y-92413333D02*
X61752380Y-92080000D01*
X62752380Y-91746666D01*
X61412380Y-104243095D02*
X60412380Y-104243095D01*
X60412380Y-104005000D01*
X60460000Y-103862142D01*
X60555238Y-103766904D01*
X60650476Y-103719285D01*
X60840952Y-103671666D01*
X60983809Y-103671666D01*
X61174285Y-103719285D01*
X61269523Y-103766904D01*
X61364761Y-103862142D01*
X61412380Y-104005000D01*
X61412380Y-104243095D01*
X60412380Y-102766904D02*
X60412380Y-103243095D01*
X60888571Y-103290714D01*
X60840952Y-103243095D01*
X60793333Y-103147857D01*
X60793333Y-102909761D01*
X60840952Y-102814523D01*
X60888571Y-102766904D01*
X60983809Y-102719285D01*
X61221904Y-102719285D01*
X61317142Y-102766904D01*
X61364761Y-102814523D01*
X61412380Y-102909761D01*
X61412380Y-103147857D01*
X61364761Y-103243095D01*
X61317142Y-103290714D01*
X62466666Y-103748095D02*
X62466666Y-103271904D01*
X62752380Y-103843333D02*
X61752380Y-103510000D01*
X62752380Y-103176666D01*
X81732380Y-106148095D02*
X80732380Y-106148095D01*
X80732380Y-105910000D01*
X80780000Y-105767142D01*
X80875238Y-105671904D01*
X80970476Y-105624285D01*
X81160952Y-105576666D01*
X81303809Y-105576666D01*
X81494285Y-105624285D01*
X81589523Y-105671904D01*
X81684761Y-105767142D01*
X81732380Y-105910000D01*
X81732380Y-106148095D01*
X81065714Y-104719523D02*
X81732380Y-104719523D01*
X80684761Y-104957619D02*
X81399047Y-105195714D01*
X81399047Y-104576666D01*
X82786666Y-103748095D02*
X82786666Y-103271904D01*
X83072380Y-103843333D02*
X82072380Y-103510000D01*
X83072380Y-103176666D01*
X81732380Y-94718095D02*
X80732380Y-94718095D01*
X80732380Y-94480000D01*
X80780000Y-94337142D01*
X80875238Y-94241904D01*
X80970476Y-94194285D01*
X81160952Y-94146666D01*
X81303809Y-94146666D01*
X81494285Y-94194285D01*
X81589523Y-94241904D01*
X81684761Y-94337142D01*
X81732380Y-94480000D01*
X81732380Y-94718095D01*
X80732380Y-93813333D02*
X80732380Y-93194285D01*
X81113333Y-93527619D01*
X81113333Y-93384761D01*
X81160952Y-93289523D01*
X81208571Y-93241904D01*
X81303809Y-93194285D01*
X81541904Y-93194285D01*
X81637142Y-93241904D01*
X81684761Y-93289523D01*
X81732380Y-93384761D01*
X81732380Y-93670476D01*
X81684761Y-93765714D01*
X81637142Y-93813333D01*
X82786666Y-92318095D02*
X82786666Y-91841904D01*
X83072380Y-92413333D02*
X82072380Y-92080000D01*
X83072380Y-91746666D01*
X81732380Y-83288095D02*
X80732380Y-83288095D01*
X80732380Y-83050000D01*
X80780000Y-82907142D01*
X80875238Y-82811904D01*
X80970476Y-82764285D01*
X81160952Y-82716666D01*
X81303809Y-82716666D01*
X81494285Y-82764285D01*
X81589523Y-82811904D01*
X81684761Y-82907142D01*
X81732380Y-83050000D01*
X81732380Y-83288095D01*
X80827619Y-82335714D02*
X80780000Y-82288095D01*
X80732380Y-82192857D01*
X80732380Y-81954761D01*
X80780000Y-81859523D01*
X80827619Y-81811904D01*
X80922857Y-81764285D01*
X81018095Y-81764285D01*
X81160952Y-81811904D01*
X81732380Y-82383333D01*
X81732380Y-81764285D01*
X82786666Y-80888095D02*
X82786666Y-80411904D01*
X83072380Y-80983333D02*
X82072380Y-80650000D01*
X83072380Y-80316666D01*
X81732380Y-71858095D02*
X80732380Y-71858095D01*
X80732380Y-71620000D01*
X80780000Y-71477142D01*
X80875238Y-71381904D01*
X80970476Y-71334285D01*
X81160952Y-71286666D01*
X81303809Y-71286666D01*
X81494285Y-71334285D01*
X81589523Y-71381904D01*
X81684761Y-71477142D01*
X81732380Y-71620000D01*
X81732380Y-71858095D01*
X81732380Y-70334285D02*
X81732380Y-70905714D01*
X81732380Y-70620000D02*
X80732380Y-70620000D01*
X80875238Y-70715238D01*
X80970476Y-70810476D01*
X81018095Y-70905714D01*
X82786666Y-69458095D02*
X82786666Y-68981904D01*
X83072380Y-69553333D02*
X82072380Y-69220000D01*
X83072380Y-68886666D01*
M02*
